SourceCodePro_0.ufo
<glyph name="numbersign" format="1">
  <advance width="600"/>
  <unicode hex="0023"/>
  <outline>
    <contour>
      <point x="158" y="0" type="line"/>
      <point x="185" y="0" type="line"/>
      <point x="255" y="219" type="line"/>
      <point x="412" y="219" type="line"/>
      <point x="342" y="0" type="line"/>
      <point x="369" y="0" type="line"/>
      <point x="439" y="219" type="line"/>
      <point x="529" y="219" type="line"/>
      <point x="534" y="245" type="line"/>
      <point x="448" y="245" type="line"/>
      <point x="506" y="425" type="line"/>
      <point x="590" y="425" type="line"/>
      <point x="595" y="451" type="line"/>
      <point x="513" y="451" type="line"/>
      <point x="579" y="650" type="line"/>
      <point x="552" y="650" type="line"/>
      <point x="486" y="451" type="line"/>
      <point x="329" y="451" type="line"/>
      <point x="395" y="650" type="line"/>
      <point x="368" y="650" type="line"/>
      <point x="302" y="451" type="line"/>
      <point x="210" y="451" type="line"/>
      <point x="205" y="425" type="line"/>
      <point x="295" y="425" type="line"/>
      <point x="237" y="245" type="line"/>
      <point x="149" y="245" type="line"/>
      <point x="144" y="219" type="line"/>
      <point x="228" y="219" type="line"/>
    </contour>
    <contour>
      <point x="264" y="245" type="line"/>
      <point x="322" y="425" type="line"/>
      <point x="479" y="425" type="line"/>
      <point x="421" y="245" type="line"/>
    </contour>
  </outline>
</glyph>
<glyph name="dollar" format="1">
  <advance width="599"/>
  <unicode hex="0024"/>
  <outline>
    <contour>
      <point x="414" y="601" type="line"/>
      <point x="442" y="601" type="line"/>
      <point x="472" y="750" type="line"/>
      <point x="444" y="750" type="line"/>
    </contour>
    <contour>
      <point x="125" y="112" type="line"/>
      <point x="162" y="74"/>
      <point x="227" y="34"/>
      <point x="318" y="34" type="curve" smooth="yes"/>
      <point x="431" y="34"/>
      <point x="541" y="99"/>
      <point x="541" y="205" type="curve" smooth="yes"/>
      <point x="541" y="359"/>
      <point x="256" y="343"/>
      <point x="256" y="465" type="curve" smooth="yes"/>
      <point x="256" y="539"/>
      <point x="327" y="592"/>
      <point x="424" y="592" type="curve" smooth="yes"/>
      <point x="501" y="592"/>
      <point x="530" y="568"/>
      <point x="566" y="530" type="curve"/>
      <point x="588" y="548" type="line"/>
      <point x="555" y="586"/>
      <point x="517" y="618"/>
      <point x="432" y="618" type="curve" smooth="yes"/>
      <point x="322" y="618"/>
      <point x="226" y="554"/>
      <point x="226" y="459" type="curve" smooth="yes"/>
      <point x="226" y="319"/>
      <point x="510" y="331"/>
      <point x="510" y="198" type="curve" smooth="yes"/>
      <point x="510" y="121"/>
      <point x="441" y="60"/>
      <point x="323" y="60" type="curve" smooth="yes"/>
      <point x="237" y="60"/>
      <point x="179" y="98"/>
      <point x="146" y="132" type="curve"/>
    </contour>
    <contour>
      <point x="301" y="37" type="line"/>
      <point x="272" y="-110" type="line"/>
      <point x="300" y="-110" type="line"/>
      <point x="329" y="37" type="line"/>
    </contour>
  </outline>
</glyph>
<glyph name="quotesingle" format="1">
  <advance width="600"/>
  <unicode hex="0027"/>
  <outline>
    <contour>
      <point x="366" y="394" type="line"/>
      <point x="392" y="394" type="line"/>
      <point x="453" y="609" type="line"/>
      <point x="468" y="688" type="line"/>
      <point x="408" y="688" type="line"/>
      <point x="391" y="609" type="line"/>
    </contour>
  </outline>
</glyph>
<glyph name="parenleft" format="1">
  <advance width="600"/>
  <unicode hex="0028"/>
  <outline>
    <contour>
      <point x="433" y="-173" type="curve"/>
      <point x="452" y="-151" type="line"/>
      <point x="355" y="-66"/>
      <point x="307" y="54"/>
      <point x="307" y="185" type="curve" smooth="yes"/>
      <point x="307" y="393"/>
      <point x="407" y="567"/>
      <point x="624" y="707" type="curve"/>
      <point x="613" y="729" type="line"/>
      <point x="407" y="603"/>
      <point x="275" y="419"/>
      <point x="275" y="182" type="curve" smooth="yes"/>
      <point x="275" y="35"/>
      <point x="333" y="-92"/>
    </contour>
  </outline>
</glyph>
<glyph name="parenright" format="1">
  <advance width="600"/>
  <unicode hex="0029"/>
  <outline>
    <contour>
      <point x="99" y="-173" type="line"/>
      <point x="305" y="-47"/>
      <point x="437" y="137"/>
      <point x="437" y="374" type="curve" smooth="yes"/>
      <point x="437" y="521"/>
      <point x="379" y="648"/>
      <point x="279" y="729" type="curve"/>
      <point x="259" y="707" type="line"/>
      <point x="357" y="622"/>
      <point x="405" y="502"/>
      <point x="405" y="371" type="curve" smooth="yes"/>
      <point x="405" y="163"/>
      <point x="304" y="-11"/>
      <point x="88" y="-151" type="curve"/>
    </contour>
  </outline>
</glyph>
<glyph name="asterisk" format="1">
  <advance width="600"/>
  <unicode hex="002A"/>
  <outline>
    <contour>
      <point x="202" y="129" type="line"/>
      <point x="360" y="302" type="line"/>
      <point x="450" y="129" type="line"/>
      <point x="476" y="145" type="line"/>
      <point x="392" y="319" type="line"/>
      <point x="576" y="391" type="line"/>
      <point x="572" y="414" type="line"/>
      <point x="387" y="349" type="line"/>
      <point x="422" y="548" type="line"/>
      <point x="397" y="548" type="line"/>
      <point x="353" y="349" type="line"/>
      <point x="193" y="414" type="line"/>
      <point x="180" y="391" type="line"/>
      <point x="335" y="319" type="line"/>
      <point x="182" y="145" type="line"/>
    </contour>
  </outline>
</glyph>
<glyph name="comma" format="1">
  <advance width="599"/>
  <unicode hex="002C"/>
  <outline>
    <contour>
      <point x="316" y="83" type="line"/>
      <point x="319" y="-1" type="line"/>
      <point x="310" y="-76"/>
      <point x="253" y="-139"/>
      <point x="175" y="-175" type="curve"/>
      <point x="188" y="-211" type="line"/>
      <point x="292" y="-170"/>
      <point x="373" y="-70"/>
      <point x="373" y="41" type="curve" smooth="yes"/>
      <point x="373" y="76"/>
      <point x="357" y="104"/>
      <point x="325" y="104" type="curve" smooth="yes"/>
      <point x="289" y="104"/>
      <point x="265" y="71"/>
      <point x="265" y="41" type="curve" smooth="yes"/>
      <point x="265" y="13"/>
      <point x="283" y="-4"/>
      <point x="310" y="-4" type="curve" smooth="yes"/>
      <point x="323" y="-4"/>
      <point x="343" y="-1"/>
      <point x="352" y="13" type="curve"/>
    </contour>
  </outline>
</glyph>
<glyph name="zero" format="1">
  <advance width="599"/>
  <unicode hex="0030"/>
  <outline>
    <contour>
      <point x="298" y="-12" type="curve" smooth="yes"/>
      <point x="480" y="-12"/>
      <point x="594" y="184"/>
      <point x="594" y="427" type="curve" smooth="yes"/>
      <point x="594" y="570"/>
      <point x="537" y="652"/>
      <point x="430" y="652" type="curve" smooth="yes"/>
      <point x="246" y="652"/>
      <point x="135" y="463"/>
      <point x="135" y="217" type="curve" smooth="yes"/>
      <point x="135" y="75"/>
      <point x="191" y="-12"/>
    </contour>
    <contour>
      <point x="425" y="626" type="curve" smooth="yes"/>
      <point x="512" y="626"/>
      <point x="563" y="553"/>
      <point x="563" y="419" type="curve" smooth="yes"/>
      <point x="563" y="184"/>
      <point x="449" y="14"/>
      <point x="303" y="14" type="curve" smooth="yes"/>
      <point x="217" y="14"/>
      <point x="165" y="90"/>
      <point x="165" y="224" type="curve" smooth="yes"/>
      <point x="165" y="462"/>
      <point x="279" y="626"/>
    </contour>
    <contour>
      <point x="355" y="275" type="curve" smooth="yes"/>
      <point x="384" y="275"/>
      <point x="419" y="299"/>
      <point x="419" y="344" type="curve" smooth="yes"/>
      <point x="419" y="374"/>
      <point x="400" y="390"/>
      <point x="378" y="390" type="curve" smooth="yes"/>
      <point x="348" y="390"/>
      <point x="313" y="365"/>
      <point x="313" y="320" type="curve" smooth="yes"/>
      <point x="313" y="291"/>
      <point x="333" y="275"/>
    </contour>
  </outline>
</glyph>
<glyph name="two" format="1">
  <advance width="600"/>
  <unicode hex="0032"/>
  <outline>
    <contour>
      <point x="86" y="0" type="line"/>
      <point x="511" y="0" type="line"/>
      <point x="516" y="26" type="line"/>
      <point x="255" y="26" type="line" smooth="yes"/>
      <point x="214" y="26"/>
      <point x="175" y="24"/>
      <point x="133" y="22" type="curve"/>
      <point x="416" y="243"/>
      <point x="574" y="364"/>
      <point x="574" y="511" type="curve" smooth="yes"/>
      <point x="574" y="596"/>
      <point x="518" y="652"/>
      <point x="411" y="652" type="curve" smooth="yes"/>
      <point x="327" y="652"/>
      <point x="257" y="610"/>
      <point x="196" y="558" type="curve"/>
      <point x="213" y="540" type="line"/>
      <point x="268" y="590"/>
      <point x="337" y="626"/>
      <point x="405" y="626" type="curve" smooth="yes"/>
      <point x="504" y="626"/>
      <point x="545" y="574"/>
      <point x="545" y="507" type="curve" smooth="yes"/>
      <point x="545" y="376"/>
      <point x="411" y="266"/>
      <point x="90" y="18" type="curve"/>
    </contour>
  </outline>
</glyph>
<glyph name="seven" format="1">
  <advance width="599"/>
  <unicode hex="0037"/>
  <outline>
    <contour>
      <point x="253" y="0" type="curve"/>
      <point x="287" y="0" type="line"/>
      <point x="345" y="252"/>
      <point x="433" y="417"/>
      <point x="650" y="624" type="curve"/>
      <point x="653" y="640" type="line"/>
      <point x="204" y="640" type="line"/>
      <point x="199" y="614" type="line"/>
      <point x="609" y="614" type="line"/>
      <point x="415" y="426"/>
      <point x="317" y="267"/>
    </contour>
  </outline>
</glyph>
<glyph name="eight" format="1">
  <advance width="600"/>
  <unicode hex="0038"/>
  <outline>
    <contour>
      <point x="134" y="142" type="curve" smooth="yes"/>
      <point x="134" y="239"/>
      <point x="215" y="289"/>
      <point x="321" y="335" type="curve"/>
      <point x="431" y="298"/>
      <point x="528" y="273"/>
      <point x="528" y="178" type="curve" smooth="yes"/>
      <point x="528" y="89"/>
      <point x="448" y="14"/>
      <point x="308" y="14" type="curve" smooth="yes"/>
      <point x="195" y="14"/>
      <point x="134" y="71"/>
    </contour>
    <contour>
      <point x="425" y="329" type="curve"/>
      <point x="330" y="360"/>
      <point x="252" y="396"/>
      <point x="252" y="477" type="curve" smooth="yes"/>
      <point x="252" y="560"/>
      <point x="328" y="626"/>
      <point x="430" y="626" type="curve" smooth="yes"/>
      <point x="522" y="626"/>
      <point x="566" y="573"/>
      <point x="566" y="510" type="curve" smooth="yes"/>
      <point x="566" y="441"/>
      <point x="517" y="383"/>
    </contour>
    <contour>
      <point x="104" y="138" type="curve" smooth="yes"/>
      <point x="104" y="52"/>
      <point x="176" y="-12"/>
      <point x="303" y="-12" type="curve" smooth="yes"/>
      <point x="458" y="-12"/>
      <point x="558" y="76"/>
      <point x="558" y="184" type="curve" smooth="yes"/>
      <point x="558" y="255"/>
      <point x="512" y="287"/>
      <point x="456" y="318" type="curve"/>
      <point x="457" y="322" type="line"/>
      <point x="531" y="369"/>
      <point x="597" y="436"/>
      <point x="597" y="516" type="curve" smooth="yes"/>
      <point x="597" y="594"/>
      <point x="543" y="652"/>
      <point x="435" y="652" type="curve" smooth="yes"/>
      <point x="321" y="652"/>
      <point x="222" y="576"/>
      <point x="222" y="476" type="curve" smooth="yes"/>
      <point x="222" y="420"/>
      <point x="256" y="376"/>
      <point x="296" y="351" type="curve"/>
      <point x="295" y="347" type="line"/>
      <point x="208" y="311"/>
      <point x="104" y="250"/>
    </contour>
  </outline>
</glyph>
<glyph name="nine" format="1">
  <advance width="600"/>
  <unicode hex="0039"/>
  <outline>
    <contour>
      <point x="408" y="652" type="curve" smooth="yes"/>
      <point x="288" y="652"/>
      <point x="163" y="551"/>
      <point x="163" y="411" type="curve" smooth="yes"/>
      <point x="163" y="312"/>
      <point x="224" y="256"/>
      <point x="330" y="256" type="curve" smooth="yes"/>
      <point x="410" y="256"/>
      <point x="486" y="295"/>
      <point x="556" y="353" type="curve"/>
      <point x="564" y="392" type="line"/>
      <point x="480" y="313"/>
      <point x="397" y="283"/>
      <point x="336" y="283" type="curve" smooth="yes"/>
      <point x="240" y="283"/>
      <point x="193" y="333"/>
      <point x="193" y="414" type="curve" smooth="yes"/>
      <point x="193" y="532"/>
      <point x="291" y="626"/>
      <point x="401" y="626" type="curve" smooth="yes"/>
      <point x="515" y="626"/>
      <point x="562" y="543"/>
      <point x="562" y="430" type="curve" smooth="yes"/>
      <point x="562" y="145"/>
      <point x="412" y="14"/>
      <point x="255" y="14" type="curve" smooth="yes"/>
      <point x="200" y="14"/>
      <point x="156" y="32"/>
      <point x="125" y="68" type="curve"/>
      <point x="102" y="48" type="line"/>
      <point x="136" y="12"/>
      <point x="180" y="-12"/>
      <point x="247" y="-12" type="curve" smooth="yes"/>
      <point x="421" y="-12"/>
      <point x="592" y="122"/>
      <point x="592" y="433" type="curve" smooth="yes"/>
      <point x="592" y="570"/>
      <point x="527" y="652"/>
    </contour>
  </outline>
</glyph>
<glyph name="less" format="1">
  <advance width="599"/>
  <unicode hex="003C"/>
  <outline>
    <contour>
      <point x="124" y="317" type="line"/>
      <point x="485" y="63" type="line"/>
      <point x="485" y="96" type="line"/>
      <point x="154" y="330" type="line"/>
      <point x="154" y="334" type="line"/>
      <point x="485" y="568" type="line"/>
      <point x="485" y="601" type="line"/>
      <point x="124" y="347" type="line"/>
    </contour>
  </outline>
</glyph>
<glyph name="greater" format="1">
  <advance width="599"/>
  <unicode hex="003E"/>
  <outline>
    <contour>
      <point x="475" y="347" type="line"/>
      <point x="114" y="601" type="line"/>
      <point x="114" y="568" type="line"/>
      <point x="446" y="334" type="line"/>
      <point x="446" y="330" type="line"/>
      <point x="114" y="96" type="line"/>
      <point x="114" y="63" type="line"/>
      <point x="475" y="317" type="line"/>
    </contour>
  </outline>
</glyph>
<glyph name="at" format="1">
  <advance width="599"/>
  <unicode hex="0040"/>
  <outline>
    <contour>
      <point x="621" y="396" type="line" smooth="yes"/>
      <point x="647" y="528"/>
      <point x="605" y="628"/>
      <point x="478" y="628" type="curve" smooth="yes"/>
      <point x="276" y="628"/>
      <point x="101" y="437"/>
      <point x="101" y="147" type="curve" smooth="yes"/>
      <point x="101" y="-34"/>
      <point x="187" y="-142"/>
      <point x="313" y="-142" type="curve" smooth="yes"/>
      <point x="376" y="-142"/>
      <point x="433" y="-124"/>
      <point x="488" y="-86" type="curve"/>
      <point x="477" y="-65" type="line"/>
      <point x="430" y="-98"/>
      <point x="379" y="-115"/>
      <point x="319" y="-115" type="curve" smooth="yes"/>
      <point x="201" y="-115"/>
      <point x="131" y="-12"/>
      <point x="131" y="147" type="curve" smooth="yes"/>
      <point x="131" y="418"/>
      <point x="294" y="601"/>
      <point x="469" y="601" type="curve" smooth="yes"/>
      <point x="587" y="601"/>
      <point x="615" y="508"/>
      <point x="592" y="394" type="curve" smooth="yes"/>
      <point x="589" y="382" type="line"/>
      <point x="378" y="357"/>
      <point x="276" y="298"/>
      <point x="276" y="187" type="curve" smooth="yes"/>
      <point x="276" y="120"/>
      <point x="324" y="88"/>
      <point x="384" y="88" type="curve" smooth="yes"/>
      <point x="434" y="88"/>
      <point x="502" y="126"/>
      <point x="542" y="164" type="curve"/>
      <point x="546" y="164" type="line"/>
      <point x="537" y="100" type="line"/>
      <point x="562" y="100" type="line"/>
    </contour>
    <contour>
      <point x="306" y="192" type="curve" smooth="yes"/>
      <point x="306" y="279"/>
      <point x="384" y="330"/>
      <point x="585" y="357" type="curve"/>
      <point x="554" y="202" type="line"/>
      <point x="493" y="143"/>
      <point x="435" y="114"/>
      <point x="393" y="114" type="curve" smooth="yes"/>
      <point x="339" y="114"/>
      <point x="306" y="143"/>
    </contour>
  </outline>
</glyph>
<glyph name="E" format="1">
  <advance width="600"/>
  <unicode hex="0045"/>
  <outline>
    <contour>
      <point x="132" y="0" type="line"/>
      <point x="526" y="0" type="line"/>
      <point x="532" y="26" type="line"/>
      <point x="166" y="26" type="line"/>
      <point x="230" y="338" type="line"/>
      <point x="526" y="338" type="line"/>
      <point x="532" y="364" type="line"/>
      <point x="234" y="364" type="line"/>
      <point x="288" y="634" type="line"/>
      <point x="644" y="634" type="line"/>
      <point x="650" y="660" type="line"/>
      <point x="264" y="660" type="line"/>
    </contour>
  </outline>
</glyph>
<glyph name="F" format="1">
  <advance width="599"/>
  <unicode hex="0046"/>
  <outline>
    <contour>
      <point x="156" y="0" type="line"/>
      <point x="186" y="0" type="line"/>
      <point x="252" y="326" type="line"/>
      <point x="542" y="326" type="line"/>
      <point x="548" y="352" type="line"/>
      <point x="256" y="352" type="line"/>
      <point x="312" y="634" type="line"/>
      <point x="662" y="634" type="line"/>
      <point x="668" y="660" type="line"/>
      <point x="288" y="660" type="line"/>
    </contour>
  </outline>
</glyph>
<glyph name="G" format="1">
  <advance width="600"/>
  <unicode hex="0047"/>
  <outline>
    <contour>
      <point x="117" y="248" type="curve" smooth="yes"/>
      <point x="117" y="91"/>
      <point x="195" y="-12"/>
      <point x="330" y="-12" type="curve" smooth="yes"/>
      <point x="415" y="-12"/>
      <point x="485" y="18"/>
      <point x="534" y="62" type="curve"/>
      <point x="585" y="317" type="line"/>
      <point x="393" y="317" type="line"/>
      <point x="387" y="291" type="line"/>
      <point x="549" y="291" type="line"/>
      <point x="505" y="70" type="line"/>
      <point x="465" y="36"/>
      <point x="402" y="16"/>
      <point x="338" y="16" type="curve" smooth="yes"/>
      <point x="215" y="16"/>
      <point x="148" y="109"/>
      <point x="148" y="250" type="curve" smooth="yes"/>
      <point x="148" y="478"/>
      <point x="281" y="645"/>
      <point x="472" y="645" type="curve" smooth="yes"/>
      <point x="544" y="645"/>
      <point x="585" y="612"/>
      <point x="612" y="574" type="curve"/>
      <point x="634" y="594" type="line"/>
      <point x="608" y="630"/>
      <point x="563" y="672"/>
      <point x="477" y="672" type="curve" smooth="yes"/>
      <point x="273" y="672"/>
      <point x="117" y="495"/>
    </contour>
  </outline>
</glyph>
<glyph name="L" format="1">
  <advance width="599"/>
  <unicode hex="004C"/>
  <outline>
    <contour>
      <point x="156" y="0" type="line"/>
      <point x="538" y="0" type="line"/>
      <point x="544" y="26" type="line"/>
      <point x="192" y="26" type="line"/>
      <point x="318" y="660" type="line"/>
      <point x="288" y="660" type="line"/>
    </contour>
  </outline>
</glyph>
<glyph name="M" format="1">
  <advance width="600"/>
  <unicode hex="004D"/>
  <outline>
    <contour>
      <point x="96" y="0" type="line"/>
      <point x="125" y="0" type="line"/>
      <point x="225" y="502" type="line" smooth="yes"/>
      <point x="233" y="542"/>
      <point x="239" y="585"/>
      <point x="246" y="626" type="curve"/>
      <point x="248" y="626" type="line"/>
      <point x="265" y="517" type="line"/>
      <point x="324" y="181" type="line"/>
      <point x="350" y="181" type="line"/>
      <point x="542" y="517" type="line"/>
      <point x="599" y="626" type="line"/>
      <point x="602" y="626" type="line"/>
      <point x="593" y="585"/>
      <point x="583" y="542"/>
      <point x="575" y="502" type="curve" smooth="yes"/>
      <point x="475" y="0" type="line"/>
      <point x="505" y="0" type="line"/>
      <point x="636" y="660" type="line"/>
      <point x="593" y="660" type="line"/>
      <point x="412" y="340" type="line"/>
      <point x="347" y="219" type="line"/>
      <point x="343" y="219" type="line"/>
      <point x="325" y="340" type="line"/>
      <point x="271" y="660" type="line"/>
      <point x="228" y="660" type="line"/>
    </contour>
  </outline>
</glyph>
<glyph name="O" format="1">
  <advance width="599"/>
  <unicode hex="004F"/>
  <outline>
    <contour>
      <point x="414" y="672" type="curve" smooth="yes"/>
      <point x="256" y="672"/>
      <point x="112" y="504"/>
      <point x="112" y="252" type="curve" smooth="yes"/>
      <point x="112" y="98"/>
      <point x="190" y="-12"/>
      <point x="316" y="-12" type="curve" smooth="yes"/>
      <point x="474" y="-12"/>
      <point x="618" y="156"/>
      <point x="618" y="408" type="curve" smooth="yes"/>
      <point x="618" y="562"/>
      <point x="540" y="672"/>
    </contour>
    <contour>
      <point x="318" y="14" type="curve" smooth="yes"/>
      <point x="206" y="14"/>
      <point x="142" y="114"/>
      <point x="142" y="256" type="curve" smooth="yes"/>
      <point x="142" y="488"/>
      <point x="272" y="646"/>
      <point x="412" y="646" type="curve" smooth="yes"/>
      <point x="524" y="646"/>
      <point x="588" y="546"/>
      <point x="588" y="404" type="curve" smooth="yes"/>
      <point x="588" y="172"/>
      <point x="458" y="14"/>
    </contour>
  </outline>
</glyph>
<glyph name="P" format="1">
  <advance width="599"/>
  <unicode hex="0050"/>
  <outline>
    <contour>
      <point x="126" y="0" type="line"/>
      <point x="156" y="0" type="line"/>
      <point x="214" y="294" type="line"/>
      <point x="352" y="294" type="line" smooth="yes"/>
      <point x="522" y="294"/>
      <point x="628" y="366"/>
      <point x="628" y="510" type="curve" smooth="yes"/>
      <point x="628" y="614"/>
      <point x="556" y="660"/>
      <point x="436" y="660" type="curve" smooth="yes"/>
      <point x="258" y="660" type="line"/>
    </contour>
    <contour>
      <point x="220" y="320" type="line"/>
      <point x="282" y="634" type="line"/>
      <point x="418" y="634" type="line" smooth="yes"/>
      <point x="536" y="634"/>
      <point x="598" y="598"/>
      <point x="598" y="508" type="curve" smooth="yes"/>
      <point x="598" y="384"/>
      <point x="512" y="320"/>
      <point x="346" y="320" type="curve" smooth="yes"/>
    </contour>
  </outline>
</glyph>
<glyph name="R" format="1">
  <advance width="599"/>
  <unicode hex="0052"/>
  <outline>
    <contour>
      <point x="368" y="312" type="line"/>
      <point x="496" y="0" type="line"/>
      <point x="530" y="0" type="line"/>
      <point x="396" y="324" type="line"/>
    </contour>
    <contour>
      <point x="124" y="0" type="line"/>
      <point x="154" y="0" type="line"/>
      <point x="216" y="310" type="line"/>
      <point x="372" y="310" type="line" smooth="yes"/>
      <point x="514" y="310"/>
      <point x="620" y="390"/>
      <point x="620" y="518" type="curve" smooth="yes"/>
      <point x="620" y="618"/>
      <point x="548" y="660"/>
      <point x="430" y="660" type="curve" smooth="yes"/>
      <point x="256" y="660" type="line"/>
    </contour>
    <contour>
      <point x="222" y="336" type="line"/>
      <point x="280" y="634" type="line"/>
      <point x="412" y="634" type="line" smooth="yes"/>
      <point x="530" y="634"/>
      <point x="590" y="602"/>
      <point x="590" y="516" type="curve" smooth="yes"/>
      <point x="590" y="404"/>
      <point x="506" y="336"/>
      <point x="358" y="336" type="curve" smooth="yes"/>
    </contour>
  </outline>
</glyph>
<glyph name="S" format="1">
  <advance width="599"/>
  <unicode hex="0053"/>
  <outline>
    <contour>
      <point x="101" y="98" type="line"/>
      <point x="149" y="28"/>
      <point x="225" y="-12"/>
      <point x="329" y="-12" type="curve" smooth="yes"/>
      <point x="460" y="-12"/>
      <point x="561" y="64"/>
      <point x="561" y="180" type="curve" smooth="yes"/>
      <point x="561" y="252"/>
      <point x="514" y="298"/>
      <point x="446" y="334" type="curve" smooth="yes"/>
      <point x="350" y="384" type="line" smooth="yes"/>
      <point x="300" y="410"/>
      <point x="253" y="446"/>
      <point x="253" y="510" type="curve" smooth="yes"/>
      <point x="253" y="576"/>
      <point x="318" y="646"/>
      <point x="419" y="646" type="curve" smooth="yes"/>
      <point x="499" y="646"/>
      <point x="559" y="610"/>
      <point x="597" y="566" type="curve"/>
      <point x="618" y="584" type="line"/>
      <point x="581" y="632"/>
      <point x="513" y="672"/>
      <point x="425" y="672" type="curve" smooth="yes"/>
      <point x="305" y="672"/>
      <point x="225" y="594"/>
      <point x="225" y="506" type="curve" smooth="yes"/>
      <point x="225" y="436"/>
      <point x="280" y="390"/>
      <point x="340" y="358" type="curve" smooth="yes"/>
      <point x="437" y="306" type="line" smooth="yes"/>
      <point x="495" y="275"/>
      <point x="533" y="236"/>
      <point x="533" y="176" type="curve" smooth="yes"/>
      <point x="533" y="78"/>
      <point x="445" y="14"/>
      <point x="333" y="14" type="curve" smooth="yes"/>
      <point x="237" y="14"/>
      <point x="171" y="50"/>
      <point x="124" y="114" type="curve"/>
    </contour>
  </outline>
</glyph>
<glyph name="T" format="1">
  <advance width="599"/>
  <unicode hex="0054"/>
  <outline>
    <contour>
      <point x="284" y="0" type="line"/>
      <point x="314" y="0" type="line"/>
      <point x="440" y="634" type="line"/>
      <point x="674" y="634" type="line"/>
      <point x="680" y="660" type="line"/>
      <point x="182" y="660" type="line"/>
      <point x="176" y="634" type="line"/>
      <point x="410" y="634" type="line"/>
    </contour>
  </outline>
</glyph>
<glyph name="V" format="1">
  <advance width="599"/>
  <unicode hex="0056"/>
  <outline>
    <contour>
      <point x="272" y="0" type="line"/>
      <point x="306" y="0" type="line"/>
      <point x="666" y="660" type="line"/>
      <point x="636" y="660" type="line"/>
      <point x="420" y="260" type="line" smooth="yes"/>
      <point x="382" y="190"/>
      <point x="336" y="110"/>
      <point x="300" y="38" type="curve"/>
      <point x="296" y="38" type="line"/>
      <point x="288" y="112"/>
      <point x="278" y="188"/>
      <point x="270" y="260" type="curve" smooth="yes"/>
      <point x="228" y="660" type="line"/>
      <point x="200" y="660" type="line"/>
    </contour>
  </outline>
</glyph>
<glyph name="W" format="1">
  <advance width="600"/>
  <unicode hex="0057"/>
  <outline>
    <contour>
      <point x="128" y="0" type="line"/>
      <point x="167" y="0" type="line"/>
      <point x="334" y="334" type="line" smooth="yes"/>
      <point x="353" y="372"/>
      <point x="370" y="409"/>
      <point x="389" y="448" type="curve"/>
      <point x="392" y="448" type="line"/>
      <point x="395" y="409"/>
      <point x="396" y="372"/>
      <point x="399" y="334" type="curve" smooth="yes"/>
      <point x="435" y="0" type="line"/>
      <point x="474" y="0" type="line"/>
      <point x="716" y="661" type="line"/>
      <point x="691" y="661" type="line"/>
      <point x="521" y="193" type="line" smooth="yes"/>
      <point x="502" y="141"/>
      <point x="483" y="87"/>
      <point x="466" y="36" type="curve"/>
      <point x="462" y="36" type="line"/>
      <point x="456" y="87"/>
      <point x="451" y="140"/>
      <point x="447" y="193" type="curve" smooth="yes"/>
      <point x="415" y="488" type="line"/>
      <point x="381" y="488" type="line"/>
      <point x="233" y="193" type="line" smooth="yes"/>
      <point x="208" y="140"/>
      <point x="181" y="88"/>
      <point x="153" y="36" type="curve"/>
      <point x="151" y="36" type="line"/>
      <point x="155" y="88"/>
      <point x="158" y="140"/>
      <point x="159" y="193" type="curve" smooth="yes"/>
      <point x="174" y="661" type="line"/>
      <point x="148" y="661" type="line"/>
    </contour>
  </outline>
</glyph>
<glyph name="Z" format="1">
  <advance width="599"/>
  <unicode hex="005A"/>
  <outline>
    <contour>
      <point x="72" y="0" type="line"/>
      <point x="532" y="0" type="line"/>
      <point x="537" y="26" type="line"/>
      <point x="111" y="26" type="line"/>
      <point x="654" y="644" type="line"/>
      <point x="657" y="661" type="line"/>
      <point x="239" y="661" type="line"/>
      <point x="234" y="637" type="line"/>
      <point x="618" y="637" type="line"/>
      <point x="75" y="17" type="line"/>
    </contour>
  </outline>
</glyph>
<glyph name="bracketright" format="1">
  <advance width="599"/>
  <unicode hex="005D"/>
  <outline>
    <contour>
      <point x="464" y="686" type="line"/>
      <point x="302" y="-130" type="line"/>
      <point x="68" y="-130" type="line"/>
      <point x="66" y="-152" type="line"/>
      <point x="322" y="-152" type="line"/>
      <point x="494" y="708" type="line"/>
      <point x="238" y="708" type="line"/>
      <point x="232" y="686" type="line"/>
    </contour>
  </outline>
</glyph>
<glyph name="d" format="1">
  <advance width="599"/>
  <unicode hex="0064"/>
  <outline>
    <contour>
      <point x="542" y="410" type="line"/>
      <point x="538" y="410" type="line"/>
      <point x="508" y="458"/>
      <point x="453" y="490"/>
      <point x="380" y="490" type="curve" smooth="yes"/>
      <point x="232" y="490"/>
      <point x="112" y="348"/>
      <point x="112" y="170" type="curve" smooth="yes"/>
      <point x="112" y="51"/>
      <point x="180" y="-12"/>
      <point x="282" y="-12" type="curve" smooth="yes"/>
      <point x="350" y="-12"/>
      <point x="419" y="26"/>
      <point x="472" y="78" type="curve"/>
      <point x="476" y="78" type="line"/>
      <point x="464" y="0" type="line"/>
      <point x="488" y="0" type="line"/>
      <point x="634" y="722" type="line"/>
      <point x="606" y="722" type="line"/>
      <point x="562" y="506" type="line"/>
    </contour>
    <contour>
      <point x="284" y="14" type="curve" smooth="yes"/>
      <point x="196" y="14"/>
      <point x="140" y="67"/>
      <point x="140" y="176" type="curve" smooth="yes"/>
      <point x="140" y="319"/>
      <point x="242" y="464"/>
      <point x="378" y="464" type="curve" smooth="yes"/>
      <point x="438" y="464"/>
      <point x="492" y="438"/>
      <point x="536" y="372" type="curve"/>
      <point x="484" y="122" type="line"/>
      <point x="421" y="54"/>
      <point x="348" y="14"/>
    </contour>
  </outline>
</glyph>
<glyph name="l" format="1">
  <advance width="600"/>
  <unicode hex="006C"/>
  <outline>
    <contour>
      <point x="237" y="696" type="line"/>
      <point x="422" y="696" type="line"/>
      <point x="310" y="142" type="line" smooth="yes"/>
      <point x="289" y="35"/>
      <point x="342" y="-12"/>
      <point x="417" y="-12" type="curve" smooth="yes"/>
      <point x="463" y="-12"/>
      <point x="494" y="0"/>
      <point x="535" y="18" type="curve"/>
      <point x="526" y="42" type="line"/>
      <point x="486" y="24"/>
      <point x="456" y="14"/>
      <point x="423" y="14" type="curve" smooth="yes"/>
      <point x="362" y="14"/>
      <point x="319" y="49"/>
      <point x="336" y="134" type="curve" smooth="yes"/>
      <point x="454" y="722" type="line"/>
      <point x="242" y="722" type="line"/>
    </contour>
  </outline>
</glyph>
<glyph name="m" format="1">
  <advance width="599"/>
  <unicode hex="006D"/>
  <outline>
    <contour>
      <point x="81" y="0" type="line"/>
      <point x="108" y="0" type="line"/>
      <point x="182" y="365" type="line"/>
      <point x="233" y="430"/>
      <point x="272" y="464"/>
      <point x="324" y="464" type="curve" smooth="yes"/>
      <point x="364" y="464"/>
      <point x="379" y="423"/>
      <point x="366" y="344" type="curve" smooth="yes"/>
      <point x="297" y="0" type="line"/>
      <point x="325" y="0" type="line"/>
      <point x="398" y="365" type="line"/>
      <point x="450" y="430"/>
      <point x="489" y="464"/>
      <point x="540" y="464" type="curve" smooth="yes"/>
      <point x="581" y="464"/>
      <point x="595" y="423"/>
      <point x="583" y="344" type="curve" smooth="yes"/>
      <point x="514" y="0" type="line"/>
      <point x="541" y="0" type="line"/>
      <point x="611" y="348" type="line" smooth="yes"/>
      <point x="627" y="444"/>
      <point x="603" y="490"/>
      <point x="546" y="490" type="curve" smooth="yes"/>
      <point x="489" y="490"/>
      <point x="450" y="460"/>
      <point x="400" y="402" type="curve"/>
      <point x="398" y="461"/>
      <point x="377" y="490"/>
      <point x="330" y="490" type="curve" smooth="yes"/>
      <point x="273" y="490"/>
      <point x="235" y="460"/>
      <point x="193" y="411" type="curve"/>
      <point x="191" y="411" type="line"/>
      <point x="200" y="478" type="line"/>
      <point x="176" y="478" type="line"/>
    </contour>
  </outline>
</glyph>
<glyph name="o" format="1">
  <advance width="600"/>
  <unicode hex="006F"/>
  <outline>
    <contour>
      <point x="386" y="490" type="curve" smooth="yes"/>
      <point x="238" y="490"/>
      <point x="114" y="358"/>
      <point x="114" y="194" type="curve" smooth="yes"/>
      <point x="114" y="74"/>
      <point x="184" y="-12"/>
      <point x="304" y="-12" type="curve" smooth="yes"/>
      <point x="452" y="-12"/>
      <point x="576" y="120"/>
      <point x="576" y="284" type="curve" smooth="yes"/>
      <point x="576" y="404"/>
      <point x="506" y="490"/>
    </contour>
    <contour>
      <point x="306" y="14" type="curve" smooth="yes"/>
      <point x="202" y="14"/>
      <point x="142" y="88"/>
      <point x="142" y="200" type="curve" smooth="yes"/>
      <point x="142" y="341"/>
      <point x="256" y="464"/>
      <point x="384" y="464" type="curve" smooth="yes"/>
      <point x="488" y="464"/>
      <point x="548" y="390"/>
      <point x="548" y="278" type="curve" smooth="yes"/>
      <point x="548" y="137"/>
      <point x="434" y="14"/>
    </contour>
  </outline>
</glyph>
<glyph name="r" format="1">
  <advance width="599"/>
  <unicode hex="0072"/>
  <outline>
    <contour>
      <point x="170" y="0" type="line"/>
      <point x="198" y="0" type="line"/>
      <point x="256" y="282" type="line"/>
      <point x="336" y="406"/>
      <point x="428" y="462"/>
      <point x="512" y="462" type="curve" smooth="yes"/>
      <point x="560" y="462"/>
      <point x="582" y="456"/>
      <point x="608" y="438" type="curve"/>
      <point x="620" y="464" type="line"/>
      <point x="594" y="482"/>
      <point x="564" y="490"/>
      <point x="518" y="490" type="curve" smooth="yes"/>
      <point x="420" y="490"/>
      <point x="337" y="432"/>
      <point x="272" y="344" type="curve"/>
      <point x="268" y="344" type="line"/>
      <point x="290" y="478" type="line"/>
      <point x="266" y="478" type="line"/>
    </contour>
  </outline>
</glyph>
<glyph name="s" format="1">
  <advance width="600"/>
  <unicode hex="0073"/>
  <outline>
    <contour>
      <point x="100" y="86" type="line"/>
      <point x="142" y="39"/>
      <point x="236" y="-12"/>
      <point x="338" y="-12" type="curve" smooth="yes"/>
      <point x="458" y="-12"/>
      <point x="530" y="38"/>
      <point x="530" y="118" type="curve" smooth="yes"/>
      <point x="530" y="161"/>
      <point x="513" y="200"/>
      <point x="358" y="264" type="curve" smooth="yes"/>
      <point x="285" y="293"/>
      <point x="218" y="321"/>
      <point x="218" y="374" type="curve" smooth="yes"/>
      <point x="218" y="423"/>
      <point x="282" y="464"/>
      <point x="364" y="464" type="curve" smooth="yes"/>
      <point x="449" y="464"/>
      <point x="504" y="428"/>
      <point x="544" y="394" type="curve"/>
      <point x="564" y="414" type="line"/>
      <point x="511" y="454"/>
      <point x="446" y="490"/>
      <point x="366" y="490" type="curve" smooth="yes"/>
      <point x="273" y="490"/>
      <point x="190" y="442"/>
      <point x="190" y="368" type="curve" smooth="yes"/>
      <point x="190" y="316"/>
      <point x="230" y="282"/>
      <point x="360" y="230" type="curve" smooth="yes"/>
      <point x="477" y="185"/>
      <point x="502" y="156"/>
      <point x="502" y="112" type="curve" smooth="yes"/>
      <point x="502" y="59"/>
      <point x="438" y="14"/>
      <point x="342" y="14" type="curve" smooth="yes"/>
      <point x="238" y="14"/>
      <point x="164" y="55"/>
      <point x="122" y="102" type="curve"/>
    </contour>
  </outline>
</glyph>
<glyph name="t" format="1">
  <advance width="599"/>
  <unicode hex="0074"/>
  <outline>
    <contour>
      <point x="268" y="175" type="line" smooth="yes"/>
      <point x="246" y="64"/>
      <point x="272" y="-12"/>
      <point x="399" y="-12" type="curve" smooth="yes"/>
      <point x="442" y="-12"/>
      <point x="498" y="0"/>
      <point x="544" y="20" type="curve"/>
      <point x="534" y="42" type="line"/>
      <point x="492" y="24"/>
      <point x="458" y="14"/>
      <point x="405" y="14" type="curve" smooth="yes"/>
      <point x="293" y="14"/>
      <point x="275" y="75"/>
      <point x="295" y="171" type="curve" smooth="yes"/>
      <point x="351" y="452" type="line"/>
      <point x="614" y="452" type="line"/>
      <point x="619" y="478" type="line"/>
      <point x="356" y="478" type="line"/>
      <point x="384" y="618" type="line"/>
      <point x="360" y="618" type="line"/>
      <point x="329" y="478" type="line"/>
      <point x="179" y="474" type="line"/>
      <point x="175" y="452" type="line"/>
      <point x="324" y="452" type="line"/>
    </contour>
  </outline>
</glyph>
<glyph name="u" format="1">
  <advance width="599"/>
  <unicode hex="0075"/>
  <outline>
    <contour>
      <point x="584" y="478" type="line"/>
      <point x="556" y="478" type="line"/>
      <point x="490" y="154" type="line"/>
      <point x="406" y="68"/>
      <point x="328" y="14"/>
      <point x="250" y="14" type="curve" smooth="yes"/>
      <point x="196" y="14"/>
      <point x="146" y="46"/>
      <point x="146" y="108" type="curve" smooth="yes"/>
      <point x="146" y="136"/>
      <point x="150" y="162"/>
      <point x="156" y="192" type="curve" smooth="yes"/>
      <point x="214" y="478" type="line"/>
      <point x="186" y="478" type="line"/>
      <point x="128" y="188" type="line" smooth="yes"/>
      <point x="122" y="160"/>
      <point x="118" y="136"/>
      <point x="118" y="104" type="curve" smooth="yes"/>
      <point x="118" y="36"/>
      <point x="175" y="-12"/>
      <point x="246" y="-12" type="curve" smooth="yes"/>
      <point x="340" y="-12"/>
      <point x="412" y="46"/>
      <point x="478" y="110" type="curve"/>
      <point x="482" y="110" type="line"/>
      <point x="464" y="0" type="line"/>
      <point x="488" y="0" type="line"/>
    </contour>
  </outline>
</glyph>
<glyph name="x" format="1">
  <advance width="599"/>
  <unicode hex="0078"/>
  <outline>
    <contour>
      <point x="87" y="0" type="line"/>
      <point x="118" y="0" type="line"/>
      <point x="253" y="137" type="line" smooth="yes"/>
      <point x="284" y="169"/>
      <point x="311" y="197"/>
      <point x="341" y="227" type="curve"/>
      <point x="345" y="227" type="line"/>
      <point x="364" y="199"/>
      <point x="381" y="165"/>
      <point x="398" y="138" type="curve" smooth="yes"/>
      <point x="480" y="0" type="line"/>
      <point x="513" y="0" type="line"/>
      <point x="365" y="248" type="line"/>
      <point x="592" y="478" type="line"/>
      <point x="561" y="478" type="line"/>
      <point x="438" y="350" type="line" smooth="yes"/>
      <point x="413" y="324"/>
      <point x="383" y="294"/>
      <point x="355" y="269" type="curve"/>
      <point x="351" y="269" type="line"/>
      <point x="334" y="294"/>
      <point x="320" y="322"/>
      <point x="305" y="348" type="curve" smooth="yes"/>
      <point x="232" y="478" type="line"/>
      <point x="199" y="478" type="line"/>
      <point x="332" y="248" type="line"/>
    </contour>
  </outline>
</glyph>
<glyph name="z" format="1">
  <advance width="599"/>
  <unicode hex="007A"/>
  <outline>
    <contour>
      <point x="72" y="0" type="line"/>
      <point x="524" y="0" type="line"/>
      <point x="529" y="26" type="line"/>
      <point x="121" y="26" type="line"/>
      <point x="604" y="463" type="line"/>
      <point x="607" y="478" type="line"/>
      <point x="210" y="478" type="line"/>
      <point x="205" y="452" type="line"/>
      <point x="557" y="452" type="line"/>
      <point x="75" y="14" type="line"/>
    </contour>
  </outline>
</glyph>
<glyph name="cent" format="1">
  <advance width="600"/>
  <unicode hex="00A2"/>
  <outline>
    <contour>
      <point x="311" y="-26" type="line"/>
      <point x="338" y="-26" type="line"/>
      <point x="473" y="652" type="line"/>
      <point x="447" y="652" type="line"/>
    </contour>
    <contour>
      <point x="183" y="263" type="curve" smooth="yes"/>
      <point x="183" y="150"/>
      <point x="253" y="85"/>
      <point x="357" y="85" type="curve" smooth="yes"/>
      <point x="419" y="85"/>
      <point x="474" y="113"/>
      <point x="521" y="149" type="curve"/>
      <point x="508" y="167" type="line"/>
      <point x="467" y="136"/>
      <point x="416" y="111"/>
      <point x="361" y="111" type="curve" smooth="yes"/>
      <point x="268" y="111"/>
      <point x="213" y="174"/>
      <point x="213" y="269" type="curve" smooth="yes"/>
      <point x="213" y="413"/>
      <point x="324" y="514"/>
      <point x="442" y="514" type="curve" smooth="yes"/>
      <point x="492" y="514"/>
      <point x="528" y="491"/>
      <point x="555" y="461" type="curve"/>
      <point x="575" y="479" type="line"/>
      <point x="549" y="509"/>
      <point x="513" y="539"/>
      <point x="447" y="539" type="curve" smooth="yes"/>
      <point x="316" y="539"/>
      <point x="183" y="439"/>
    </contour>
  </outline>
</glyph>
<glyph name="brokenbar" format="1">
  <advance width="599"/>
  <unicode hex="00A6"/>
  <outline>
    <contour>
      <point x="342" y="273" type="line"/>
      <point x="367" y="273" type="line"/>
      <point x="462" y="750" type="line"/>
      <point x="437" y="750" type="line"/>
    </contour>
    <contour>
      <point x="331" y="222" type="line"/>
      <point x="237" y="-250" type="line"/>
      <point x="263" y="-250" type="line"/>
      <point x="357" y="222" type="line"/>
    </contour>
  </outline>
</glyph>
<glyph name="copyright" format="1">
  <advance width="599"/>
  <unicode hex="00A9"/>
  <outline>
    <contour>
      <point x="94" y="241" type="curve" smooth="yes"/>
      <point x="94" y="88"/>
      <point x="170" y="-12"/>
      <point x="297" y="-12" type="curve" smooth="yes"/>
      <point x="483" y="-12"/>
      <point x="634" y="165"/>
      <point x="634" y="402" type="curve" smooth="yes"/>
      <point x="634" y="554"/>
      <point x="557" y="652"/>
      <point x="430" y="652" type="curve" smooth="yes"/>
      <point x="244" y="652"/>
      <point x="94" y="479"/>
    </contour>
    <contour>
      <point x="124" y="244" type="curve" smooth="yes"/>
      <point x="124" y="462"/>
      <point x="257" y="627"/>
      <point x="425" y="627" type="curve" smooth="yes"/>
      <point x="538" y="627"/>
      <point x="604" y="536"/>
      <point x="604" y="398" type="curve" smooth="yes"/>
      <point x="604" y="182"/>
      <point x="470" y="13"/>
      <point x="302" y="13" type="curve" smooth="yes"/>
      <point x="189" y="13"/>
      <point x="124" y="106"/>
    </contour>
    <contour>
      <point x="210" y="274" type="curve" smooth="yes"/>
      <point x="210" y="179"/>
      <point x="260" y="124"/>
      <point x="328" y="124" type="curve" smooth="yes"/>
      <point x="384" y="124"/>
      <point x="419" y="146"/>
      <point x="454" y="174" type="curve"/>
      <point x="443" y="195" type="line"/>
      <point x="412" y="172"/>
      <point x="378" y="153"/>
      <point x="336" y="153" type="curve" smooth="yes"/>
      <point x="277" y="153"/>
      <point x="243" y="200"/>
      <point x="243" y="276" type="curve" smooth="yes"/>
      <point x="243" y="397"/>
      <point x="319" y="479"/>
      <point x="403" y="479" type="curve" smooth="yes"/>
      <point x="437" y="479"/>
      <point x="457" y="466"/>
      <point x="479" y="443" type="curve"/>
      <point x="500" y="464" type="line"/>
      <point x="479" y="490"/>
      <point x="455" y="508"/>
      <point x="411" y="508" type="curve" smooth="yes"/>
      <point x="313" y="508"/>
      <point x="210" y="419"/>
    </contour>
  </outline>
</glyph>
<glyph name="plusminus" format="1">
  <advance width="600"/>
  <unicode hex="00B1"/>
  <outline>
    <contour>
      <point x="348" y="110" type="line"/>
      <point x="376" y="110" type="line"/>
      <point x="376" y="318" type="line"/>
      <point x="556" y="318" type="line"/>
      <point x="556" y="344" type="line"/>
      <point x="376" y="344" type="line"/>
      <point x="376" y="546" type="line"/>
      <point x="348" y="546" type="line"/>
      <point x="348" y="344" type="line"/>
      <point x="168" y="344" type="line"/>
      <point x="168" y="318" type="line"/>
      <point x="348" y="318" type="line"/>
    </contour>
    <contour>
      <point x="556" y="0" type="line"/>
      <point x="556" y="26" type="line"/>
      <point x="168" y="26" type="line"/>
      <point x="168" y="0" type="line"/>
    </contour>
  </outline>
</glyph>
<glyph name="paragraph" format="1">
  <advance width="599"/>
  <unicode hex="00B6"/>
  <outline>
    <contour>
      <point x="406" y="-80" type="line"/>
      <point x="434" y="-80" type="line"/>
      <point x="582" y="660" type="line"/>
      <point x="554" y="660" type="line"/>
    </contour>
    <contour>
      <point x="402" y="248" type="curve" smooth="yes"/>
      <point x="420" y="248" type="line"/>
      <point x="504" y="660" type="line"/>
      <point x="436" y="660" type="line" smooth="yes"/>
      <point x="306" y="660"/>
      <point x="178" y="578"/>
      <point x="178" y="418" type="curve" smooth="yes"/>
      <point x="178" y="306"/>
      <point x="280" y="248"/>
    </contour>
  </outline>
</glyph>
<glyph name="AE" format="1">
  <advance width="599"/>
  <unicode hex="00C6"/>
  <outline>
    <contour>
      <point x="0" y="0" type="line"/>
      <point x="33" y="0" type="line"/>
      <point x="290" y="395" type="line" smooth="yes"/>
      <point x="343" y="478"/>
      <point x="394" y="554"/>
      <point x="444" y="632" type="curve"/>
      <point x="448" y="632" type="line"/>
      <point x="322" y="0" type="line"/>
      <point x="588" y="0" type="line"/>
      <point x="593" y="26" type="line"/>
      <point x="357" y="26" type="line"/>
      <point x="420" y="340" type="line"/>
      <point x="591" y="340" type="line"/>
      <point x="596" y="365" type="line"/>
      <point x="425" y="365" type="line"/>
      <point x="479" y="635" type="line"/>
      <point x="705" y="635" type="line"/>
      <point x="710" y="660" type="line"/>
      <point x="436" y="660" type="line"/>
    </contour>
    <contour>
      <point x="175" y="228" type="line"/>
      <point x="393" y="228" type="line"/>
      <point x="398" y="254" type="line"/>
      <point x="181" y="254" type="line"/>
    </contour>
  </outline>
</glyph>
<glyph name="Eth" format="1">
  <advance width="600"/>
  <unicode hex="00D0"/>
  <outline>
    <contour>
      <point x="106" y="0" type="line"/>
      <point x="274" y="0" type="line" smooth="yes"/>
      <point x="506" y="0"/>
      <point x="626" y="180"/>
      <point x="626" y="404" type="curve" smooth="yes"/>
      <point x="626" y="556"/>
      <point x="538" y="660"/>
      <point x="356" y="660" type="curve" smooth="yes"/>
      <point x="238" y="660" type="line"/>
      <point x="178" y="364" type="line"/>
      <point x="108" y="362" type="line"/>
      <point x="102" y="338" type="line"/>
      <point x="173" y="338" type="line"/>
    </contour>
    <contour>
      <point x="140" y="26" type="line"/>
      <point x="202" y="338" type="line"/>
      <point x="372" y="338" type="line"/>
      <point x="378" y="364" type="line"/>
      <point x="207" y="364" type="line"/>
      <point x="262" y="634" type="line"/>
      <point x="354" y="634" type="line" smooth="yes"/>
      <point x="518" y="634"/>
      <point x="596" y="538"/>
      <point x="596" y="402" type="curve" smooth="yes"/>
      <point x="596" y="202"/>
      <point x="482" y="26"/>
      <point x="276" y="26" type="curve" smooth="yes"/>
    </contour>
  </outline>
</glyph>
<glyph name="multiply" format="1">
  <advance width="600"/>
  <unicode hex="00D7"/>
  <outline>
    <contour>
      <point x="364" y="314" type="line"/>
      <point x="522" y="148" type="line"/>
      <point x="540" y="166" type="line"/>
      <point x="382" y="332" type="line"/>
      <point x="540" y="496" type="line"/>
      <point x="522" y="514" type="line"/>
      <point x="364" y="350" type="line"/>
      <point x="206" y="514" type="line"/>
      <point x="188" y="496" type="line"/>
      <point x="346" y="332" type="line"/>
      <point x="188" y="166" type="line"/>
      <point x="206" y="148" type="line"/>
    </contour>
  </outline>
</glyph>
<glyph name="germandbls" format="1">
  <advance width="599"/>
  <unicode hex="00DF"/>
  <outline>
    <contour>
      <point x="112" y="0" type="line"/>
      <point x="140" y="0" type="line"/>
      <point x="246" y="530" type="line" smooth="yes"/>
      <point x="268" y="628"/>
      <point x="338" y="708"/>
      <point x="426" y="708" type="curve" smooth="yes"/>
      <point x="500" y="708"/>
      <point x="530" y="668"/>
      <point x="530" y="616" type="curve" smooth="yes"/>
      <point x="530" y="496"/>
      <point x="368" y="472"/>
      <point x="368" y="356" type="curve" smooth="yes"/>
      <point x="368" y="254"/>
      <point x="554" y="242"/>
      <point x="554" y="124" type="curve" smooth="yes"/>
      <point x="554" y="60"/>
      <point x="488" y="14"/>
      <point x="414" y="14" type="curve" smooth="yes"/>
      <point x="364" y="14"/>
      <point x="325" y="34"/>
      <point x="286" y="64" type="curve"/>
      <point x="270" y="42" type="line"/>
      <point x="311" y="8"/>
      <point x="363" y="-12"/>
      <point x="412" y="-12" type="curve" smooth="yes"/>
      <point x="512" y="-12"/>
      <point x="582" y="52"/>
      <point x="582" y="130" type="curve" smooth="yes"/>
      <point x="582" y="258"/>
      <point x="396" y="266"/>
      <point x="396" y="362" type="curve" smooth="yes"/>
      <point x="396" y="456"/>
      <point x="558" y="482"/>
      <point x="558" y="616" type="curve" smooth="yes"/>
      <point x="558" y="692"/>
      <point x="508" y="734"/>
      <point x="428" y="734" type="curve" smooth="yes"/>
      <point x="322" y="734"/>
      <point x="244" y="644"/>
      <point x="220" y="540" type="curve" smooth="yes"/>
    </contour>
  </outline>
</glyph>
<glyph name="eth" format="1">
  <advance width="600"/>
  <unicode hex="00F0"/>
  <outline>
    <contour>
      <point x="109" y="176" type="curve" smooth="yes"/>
      <point x="109" y="59"/>
      <point x="194" y="-12"/>
      <point x="298" y="-12" type="curve" smooth="yes"/>
      <point x="457" y="-12"/>
      <point x="586" y="122"/>
      <point x="586" y="348" type="curve" smooth="yes"/>
      <point x="586" y="541"/>
      <point x="486" y="652"/>
      <point x="351" y="722" type="curve"/>
      <point x="332" y="701" type="line"/>
      <point x="461" y="630"/>
      <point x="557" y="538"/>
      <point x="557" y="350" type="curve" smooth="yes"/>
      <point x="557" y="169"/>
      <point x="478" y="14"/>
      <point x="303" y="14" type="curve" smooth="yes"/>
      <point x="207" y="14"/>
      <point x="139" y="83"/>
      <point x="139" y="182" type="curve" smooth="yes"/>
      <point x="139" y="295"/>
      <point x="225" y="414"/>
      <point x="385" y="414" type="curve" smooth="yes"/>
      <point x="447" y="414"/>
      <point x="516" y="383"/>
      <point x="556" y="298" type="curve"/>
      <point x="563" y="335" type="line"/>
      <point x="532" y="393"/>
      <point x="469" y="440"/>
      <point x="393" y="440" type="curve" smooth="yes"/>
      <point x="226" y="440"/>
      <point x="109" y="325"/>
    </contour>
    <contour>
      <point x="306" y="521" type="line"/>
      <point x="637" y="678" type="line"/>
      <point x="630" y="699" type="line"/>
      <point x="298" y="542" type="line"/>
    </contour>
  </outline>
</glyph>
<glyph name="dcroat" format="1">
  <advance width="600"/>
  <unicode hex="0111"/>
  <outline>
    <contour>
      <point x="109" y="171" type="curve" smooth="yes"/>
      <point x="109" y="53"/>
      <point x="175" y="-12"/>
      <point x="281" y="-12" type="curve" smooth="yes"/>
      <point x="351" y="-12"/>
      <point x="423" y="29"/>
      <point x="475" y="75" type="curve"/>
      <point x="477" y="75" type="line"/>
      <point x="466" y="0" type="line"/>
      <point x="489" y="0" type="line"/>
      <point x="634" y="723" type="line"/>
      <point x="607" y="723" type="line"/>
      <point x="562" y="500" type="line"/>
      <point x="544" y="399" type="line"/>
      <point x="499" y="443"/>
      <point x="455" y="470"/>
      <point x="393" y="470" type="curve" smooth="yes"/>
      <point x="254" y="470"/>
      <point x="109" y="354"/>
    </contour>
    <contour>
      <point x="139" y="178" type="curve" smooth="yes"/>
      <point x="139" y="324"/>
      <point x="261" y="444"/>
      <point x="385" y="444" type="curve" smooth="yes"/>
      <point x="439" y="444"/>
      <point x="488" y="423"/>
      <point x="536" y="367" type="curve"/>
      <point x="484" y="109" type="line"/>
      <point x="414" y="48"/>
      <point x="346" y="14"/>
      <point x="287" y="14" type="curve" smooth="yes"/>
      <point x="191" y="14"/>
      <point x="139" y="81"/>
    </contour>
    <contour>
      <point x="390" y="585" type="line"/>
      <point x="606" y="585" type="line"/>
      <point x="683" y="589" type="line"/>
      <point x="688" y="612" type="line"/>
      <point x="396" y="612" type="line"/>
    </contour>
  </outline>
</glyph>
<glyph name="eogonek" format="1">
  <advance width="599"/>
  <unicode hex="0119"/>
  <outline>
    <contour>
      <point x="510" y="68" type="line"/>
      <point x="458" y="36"/>
      <point x="401" y="14"/>
      <point x="334" y="14" type="curve" smooth="yes"/>
      <point x="201" y="14"/>
      <point x="131" y="109"/>
      <point x="157" y="239" type="curve"/>
      <point x="575" y="239" type="line"/>
      <point x="580" y="251"/>
      <point x="589" y="260"/>
      <point x="589" y="317" type="curve" smooth="yes"/>
      <point x="589" y="425"/>
      <point x="524" y="490"/>
      <point x="416" y="490" type="curve" smooth="yes"/>
      <point x="278" y="490"/>
      <point x="122" y="372"/>
      <point x="122" y="191" type="curve" smooth="yes"/>
      <point x="122" y="65"/>
      <point x="209" y="-12"/>
      <point x="327" y="-12" type="curve" smooth="yes"/>
      <point x="362" y="-12"/>
      <point x="393" y="-10"/>
      <point x="432" y="6" type="curve"/>
      <point x="390" y="-23"/>
      <point x="330" y="-77"/>
      <point x="330" y="-140" type="curve" smooth="yes"/>
      <point x="330" y="-181"/>
      <point x="356" y="-202"/>
      <point x="394" y="-202" type="curve" smooth="yes"/>
      <point x="413" y="-202"/>
      <point x="441" y="-192"/>
      <point x="457" y="-180" type="curve"/>
      <point x="447" y="-161" type="line"/>
      <point x="431" y="-171"/>
      <point x="418" y="-175"/>
      <point x="400" y="-175" type="curve" smooth="yes"/>
      <point x="378" y="-175"/>
      <point x="359" y="-161"/>
      <point x="359" y="-132" type="curve" smooth="yes"/>
      <point x="359" y="-86"/>
      <point x="392" y="-36"/>
      <point x="518" y="44" type="curve"/>
    </contour>
    <contour>
      <point x="163" y="265" type="line"/>
      <point x="201" y="386"/>
      <point x="308" y="464"/>
      <point x="410" y="464" type="curve" smooth="yes"/>
      <point x="519" y="464"/>
      <point x="581" y="397"/>
      <point x="555" y="265" type="curve"/>
    </contour>
  </outline>
</glyph>
<glyph name="kgreenlandic" format="1">
  <advance width="599"/>
  <unicode hex="0138"/>
  <outline>
    <contour>
      <point x="131" y="0" type="line"/>
      <point x="158" y="0" type="line"/>
      <point x="185" y="136" type="line"/>
      <point x="363" y="278" type="line"/>
      <point x="530" y="0" type="line"/>
      <point x="563" y="0" type="line"/>
      <point x="389" y="294" type="line"/>
      <point x="624" y="478" type="line"/>
      <point x="587" y="478" type="line"/>
      <point x="195" y="173" type="line"/>
      <point x="192" y="171" type="line"/>
      <point x="254" y="478" type="line"/>
      <point x="226" y="478" type="line"/>
    </contour>
  </outline>
</glyph>
<glyph name="Lslash" format="1">
  <advance width="599"/>
  <unicode hex="0141"/>
  <outline>
    <contour>
      <point x="235" y="264" type="line"/>
      <point x="504" y="390" type="line"/>
      <point x="509" y="418" type="line"/>
      <point x="240" y="292" type="line"/>
      <point x="215" y="281" type="line"/>
      <point x="117" y="235" type="line"/>
      <point x="111" y="207" type="line"/>
      <point x="210" y="253" type="line"/>
    </contour>
    <contour>
      <point x="156" y="0" type="line"/>
      <point x="538" y="0" type="line"/>
      <point x="544" y="26" type="line"/>
      <point x="192" y="26" type="line"/>
      <point x="318" y="660" type="line"/>
      <point x="288" y="660" type="line"/>
    </contour>
  </outline>
</glyph>
<glyph name="napostrophe" format="1">
  <advance width="599"/>
  <unicode hex="0149"/>
  <outline>
    <contour>
      <point x="179" y="0" type="line"/>
      <point x="206" y="0" type="line"/>
      <point x="277" y="357" type="line"/>
      <point x="363" y="428"/>
      <point x="419" y="464"/>
      <point x="487" y="464" type="curve" smooth="yes"/>
      <point x="583" y="464"/>
      <point x="613" y="411"/>
      <point x="591" y="304" type="curve" smooth="yes"/>
      <point x="531" y="0" type="line"/>
      <point x="558" y="0" type="line"/>
      <point x="619" y="308" type="line" smooth="yes"/>
      <point x="644" y="432"/>
      <point x="601" y="490"/>
      <point x="491" y="490" type="curve" smooth="yes"/>
      <point x="417" y="490"/>
      <point x="354" y="447"/>
      <point x="289" y="391" type="curve"/>
      <point x="285" y="391" type="line"/>
      <point x="298" y="478" type="line"/>
      <point x="274" y="478" type="line"/>
    </contour>
    <contour>
      <point x="96" y="401" type="line"/>
      <point x="184" y="448"/>
      <point x="258" y="543"/>
      <point x="258" y="633" type="curve" smooth="yes"/>
      <point x="258" y="675"/>
      <point x="234" y="700"/>
      <point x="206" y="700" type="curve" smooth="yes"/>
      <point x="168" y="700"/>
      <point x="138" y="670"/>
      <point x="138" y="633" type="curve" smooth="yes"/>
      <point x="138" y="607"/>
      <point x="154" y="588"/>
      <point x="181" y="588" type="curve" smooth="yes"/>
      <point x="201" y="588"/>
      <point x="221" y="602"/>
      <point x="241" y="623" type="curve"/>
      <point x="201" y="677" type="line"/>
      <point x="219" y="614" type="line"/>
      <point x="202" y="532"/>
      <point x="151" y="466"/>
      <point x="83" y="423" type="curve"/>
    </contour>
  </outline>
</glyph>
<glyph name="ohorn" format="1">
  <advance width="600"/>
  <unicode hex="01A1"/>
  <outline>
    <contour>
      <point x="496" y="442" type="line"/>
      <point x="579" y="454"/>
      <point x="640" y="486"/>
      <point x="640" y="552" type="curve" smooth="yes"/>
      <point x="640" y="564"/>
      <point x="637" y="578"/>
      <point x="631" y="591" type="curve"/>
      <point x="604" y="576" type="line"/>
      <point x="609" y="566"/>
      <point x="611" y="555"/>
      <point x="611" y="546" type="curve" smooth="yes"/>
      <point x="611" y="504"/>
      <point x="581" y="475"/>
      <point x="485" y="466" type="curve"/>
    </contour>
    <contour>
      <point x="386" y="490" type="curve" smooth="yes"/>
      <point x="238" y="490"/>
      <point x="114" y="358"/>
      <point x="114" y="194" type="curve" smooth="yes"/>
      <point x="114" y="74"/>
      <point x="184" y="-12"/>
      <point x="304" y="-12" type="curve" smooth="yes"/>
      <point x="452" y="-12"/>
      <point x="576" y="120"/>
      <point x="576" y="284" type="curve" smooth="yes"/>
      <point x="576" y="404"/>
      <point x="506" y="490"/>
    </contour>
    <contour>
      <point x="306" y="14" type="curve" smooth="yes"/>
      <point x="202" y="14"/>
      <point x="142" y="88"/>
      <point x="142" y="200" type="curve" smooth="yes"/>
      <point x="142" y="341"/>
      <point x="256" y="464"/>
      <point x="384" y="464" type="curve" smooth="yes"/>
      <point x="488" y="464"/>
      <point x="548" y="390"/>
      <point x="548" y="278" type="curve" smooth="yes"/>
      <point x="548" y="137"/>
      <point x="434" y="14"/>
    </contour>
  </outline>
</glyph>
<glyph name="emdash" format="1">
  <advance width="599"/>
  <unicode hex="2014"/>
  <outline>
    <contour>
      <point x="66" y="231" type="line"/>
      <point x="626" y="231" type="line"/>
      <point x="634" y="269" type="line"/>
      <point x="74" y="269" type="line"/>
    </contour>
  </outline>
</glyph>
<glyph name="guilsinglright" format="1">
  <advance width="599"/>
  <unicode hex="203A"/>
  <outline>
    <contour>
      <point x="246" y="90" type="line"/>
      <point x="262" y="75" type="line"/>
      <point x="432" y="239" type="line"/>
      <point x="437" y="265" type="line"/>
      <point x="333" y="429" type="line"/>
      <point x="310" y="412" type="line"/>
      <point x="404" y="252" type="line"/>
    </contour>
  </outline>
</glyph>
<glyph name="peseta" format="1">
  <advance width="599"/>
  <unicode hex="20A7"/>
  <outline>
    <contour>
      <point x="143" y="0" type="line"/>
      <point x="170" y="0" type="line"/>
      <point x="225" y="271" type="line"/>
      <point x="316" y="271" type="line" smooth="yes"/>
      <point x="463" y="271"/>
      <point x="570" y="351"/>
      <point x="570" y="501" type="curve" smooth="yes"/>
      <point x="570" y="599"/>
      <point x="499" y="640"/>
      <point x="389" y="640" type="curve" smooth="yes"/>
      <point x="271" y="640" type="line"/>
    </contour>
    <contour>
      <point x="230" y="298" type="line"/>
      <point x="293" y="614" type="line"/>
      <point x="372" y="614" type="line" smooth="yes"/>
      <point x="480" y="614"/>
      <point x="540" y="583"/>
      <point x="540" y="498" type="curve" smooth="yes"/>
      <point x="540" y="367"/>
      <point x="459" y="298"/>
      <point x="309" y="298" type="curve" smooth="yes"/>
    </contour>
    <contour>
      <point x="150" y="448" type="line"/>
      <point x="628" y="448" type="line"/>
      <point x="634" y="474" type="line"/>
      <point x="239" y="474" type="line"/>
      <point x="155" y="470" type="line"/>
    </contour>
  </outline>
</glyph>
<glyph name="trademark" format="1">
  <advance width="599"/>
  <unicode hex="2122"/>
  <outline>
    <contour>
      <point x="381" y="370" type="line"/>
      <point x="409" y="370" type="line"/>
      <point x="444" y="542" type="line"/>
      <point x="459" y="638" type="line"/>
      <point x="463" y="638" type="line"/>
      <point x="506" y="418" type="line"/>
      <point x="535" y="418" type="line"/>
      <point x="666" y="638" type="line"/>
      <point x="670" y="638" type="line"/>
      <point x="647" y="542" type="line"/>
      <point x="613" y="370" type="line"/>
      <point x="641" y="370" type="line"/>
      <point x="702" y="676" type="line"/>
      <point x="660" y="676" type="line"/>
      <point x="581" y="545" type="line"/>
      <point x="531" y="457" type="line"/>
      <point x="527" y="457" type="line"/>
      <point x="513" y="545" type="line"/>
      <point x="484" y="676" type="line"/>
      <point x="442" y="676" type="line"/>
    </contour>
    <contour>
      <point x="187" y="370" type="line"/>
      <point x="215" y="370" type="line"/>
      <point x="271" y="649" type="line"/>
      <point x="382" y="649" type="line"/>
      <point x="387" y="676" type="line"/>
      <point x="137" y="676" type="line"/>
      <point x="132" y="649" type="line"/>
      <point x="243" y="649" type="line"/>
    </contour>
  </outline>
</glyph>
<glyph name="arrowright" format="1">
  <advance width="599"/>
  <unicode hex="2192"/>
  <outline>
    <contour>
      <point x="578" y="254" type="line"/>
      <point x="310" y="518" type="line"/>
      <point x="291" y="499" type="line"/>
      <point x="536" y="265" type="line"/>
      <point x="28" y="265" type="line"/>
      <point x="28" y="239" type="line"/>
      <point x="536" y="239" type="line"/>
      <point x="291" y="5" type="line"/>
      <point x="310" y="-14" type="line"/>
      <point x="578" y="250" type="line"/>
    </contour>
  </outline>
</glyph>
<glyph name="summation" format="1">
  <advance width="599"/>
  <unicode hex="2211"/>
  <outline>
    <contour>
      <point x="59" y="-95" type="line"/>
      <point x="54" y="-120" type="line"/>
      <point x="517" y="-120" type="line"/>
      <point x="522" y="-94" type="line"/>
      <point x="98" y="-94" type="line"/>
      <point x="99" y="-90" type="line"/>
      <point x="431" y="262" type="line"/>
      <point x="251" y="610" type="line"/>
      <point x="251" y="614" type="line"/>
      <point x="632" y="614" type="line"/>
      <point x="637" y="640" type="line"/>
      <point x="218" y="640" type="line"/>
      <point x="213" y="616" type="line"/>
      <point x="395" y="260" type="line"/>
    </contour>
  </outline>
</glyph>
<glyph name="Bstroke" format="1">
  <advance width="599"/>
  <outline>
    <contour>
      <point x="78" y="178" type="line"/>
      <point x="359" y="178" type="line"/>
      <point x="364" y="205" type="line"/>
      <point x="162" y="205" type="line"/>
      <point x="83" y="201" type="line"/>
    </contour>
    <contour>
      <point x="120" y="0" type="line"/>
      <point x="303" y="0" type="line" smooth="yes"/>
      <point x="476" y="0"/>
      <point x="589" y="82"/>
      <point x="589" y="221" type="curve" smooth="yes"/>
      <point x="589" y="294"/>
      <point x="540" y="340"/>
      <point x="457" y="352" type="curve"/>
      <point x="458" y="356" type="line"/>
      <point x="555" y="380"/>
      <point x="609" y="446"/>
      <point x="609" y="530" type="curve" smooth="yes"/>
      <point x="609" y="617"/>
      <point x="540" y="660"/>
      <point x="424" y="660" type="curve" smooth="yes"/>
      <point x="252" y="660" type="line"/>
    </contour>
    <contour>
      <point x="223" y="365" type="line"/>
      <point x="276" y="634" type="line"/>
      <point x="404" y="634" type="line" smooth="yes"/>
      <point x="519" y="634"/>
      <point x="580" y="602"/>
      <point x="580" y="529" type="curve" smooth="yes"/>
      <point x="580" y="427"/>
      <point x="519" y="365"/>
      <point x="344" y="365" type="curve" smooth="yes"/>
    </contour>
    <contour>
      <point x="155" y="26" type="line"/>
      <point x="217" y="339" type="line"/>
      <point x="359" y="339" type="line" smooth="yes"/>
      <point x="487" y="339"/>
      <point x="559" y="298"/>
      <point x="559" y="215" type="curve" smooth="yes"/>
      <point x="559" y="88"/>
      <point x="457" y="26"/>
      <point x="297" y="26" type="curve" smooth="yes"/>
    </contour>
  </outline>
</glyph>
<glyph name="Delta.math" format="1">
  <advance width="600"/>
  <outline>
    <contour>
      <point x="55" y="0" type="line"/>
      <point x="547" y="0" type="line"/>
      <point x="550" y="16" type="line"/>
      <point x="446" y="660" type="line"/>
      <point x="420" y="660" type="line"/>
      <point x="58" y="16" type="line"/>
    </contour>
    <contour>
      <point x="93" y="26" type="line"/>
      <point x="298" y="393" type="line"/>
      <point x="424" y="618" type="line"/>
      <point x="428" y="618" type="line"/>
      <point x="461" y="393" type="line"/>
      <point x="519" y="26" type="line"/>
    </contour>
  </outline>
</glyph>
<glyph name="Oogonek" format="1">
  <advance width="600"/>
  <outline>
    <contour>
      <point x="347" y="-161" type="line"/>
      <point x="331" y="-171"/>
      <point x="318" y="-175"/>
      <point x="300" y="-175" type="curve" smooth="yes"/>
      <point x="277" y="-175"/>
      <point x="257" y="-160"/>
      <point x="257" y="-131" type="curve" smooth="yes"/>
      <point x="257" y="-91"/>
      <point x="299" y="-29"/>
      <point x="367" y="-2" type="curve" smooth="yes"/>
      <point x="519" y="58"/>
      <point x="622" y="211"/>
      <point x="622" y="420" type="curve" smooth="yes"/>
      <point x="622" y="574"/>
      <point x="550" y="672"/>
      <point x="435" y="672" type="curve" smooth="yes"/>
      <point x="262" y="672"/>
      <point x="112" y="491"/>
      <point x="112" y="245" type="curve" smooth="yes"/>
      <point x="112" y="109"/>
      <point x="169" y="-16"/>
      <point x="312" y="-12" type="curve"/>
      <point x="258" y="-50"/>
      <point x="228" y="-95"/>
      <point x="228" y="-139" type="curve" smooth="yes"/>
      <point x="228" y="-181"/>
      <point x="256" y="-201"/>
      <point x="293" y="-201" type="curve" smooth="yes"/>
      <point x="313" y="-201"/>
      <point x="340" y="-192"/>
      <point x="356" y="-180" type="curve"/>
    </contour>
    <contour>
      <point x="303" y="16" type="curve" smooth="yes"/>
      <point x="202" y="16"/>
      <point x="143" y="107"/>
      <point x="143" y="245" type="curve" smooth="yes"/>
      <point x="143" y="473"/>
      <point x="272" y="645"/>
      <point x="429" y="645" type="curve" smooth="yes"/>
      <point x="530" y="645"/>
      <point x="590" y="556"/>
      <point x="590" y="418" type="curve" smooth="yes"/>
      <point x="590" y="192"/>
      <point x="460" y="16"/>
    </contour>
  </outline>
</glyph>
<glyph name=".notdef.001" format="1">
  <advance width="599"/>
  <outline>
    <contour>
      <point x="85" y="0" type="line"/>
      <point x="515" y="0" type="line"/>
      <point x="646" y="660" type="line"/>
      <point x="217" y="660" type="line"/>
    </contour>
    <contour>
      <point x="136" y="72" type="line"/>
      <point x="244" y="612" type="line"/>
      <point x="345" y="340" type="line"/>
    </contour>
    <contour>
      <point x="391" y="340" type="line"/>
      <point x="598" y="612" type="line"/>
      <point x="490" y="72" type="line"/>
    </contour>
    <contour>
      <point x="136" y="31" type="line"/>
      <point x="275" y="209" type="line"/>
      <point x="361" y="315" type="line"/>
      <point x="365" y="315" type="line"/>
      <point x="406" y="209" type="line"/>
      <point x="472" y="31" type="line"/>
    </contour>
    <contour>
      <point x="371" y="365" type="line"/>
      <point x="333" y="457" type="line"/>
      <point x="271" y="627" type="line"/>
      <point x="577" y="627" type="line"/>
      <point x="447" y="457" type="line"/>
      <point x="375" y="365" type="line"/>
    </contour>
  </outline>
</glyph>
<glyph name="aogonek.alt" format="1">
  <advance width="599"/>
  <outline>
    <contour>
      <point x="117" y="95" type="curve" smooth="yes"/>
      <point x="117" y="20"/>
      <point x="187" y="-12"/>
      <point x="262" y="-12" type="curve" smooth="yes"/>
      <point x="334" y="-12"/>
      <point x="419" y="29"/>
      <point x="484" y="74" type="curve"/>
      <point x="486" y="74" type="line"/>
      <point x="477" y="8" type="line"/>
      <point x="413" y="-26"/>
      <point x="358" y="-82"/>
      <point x="358" y="-140" type="curve" smooth="yes"/>
      <point x="358" y="-181"/>
      <point x="384" y="-202"/>
      <point x="421" y="-202" type="curve" smooth="yes"/>
      <point x="441" y="-202"/>
      <point x="469" y="-192"/>
      <point x="485" y="-180" type="curve"/>
      <point x="475" y="-161" type="line"/>
      <point x="459" y="-171"/>
      <point x="446" y="-175"/>
      <point x="428" y="-175" type="curve" smooth="yes"/>
      <point x="405" y="-175"/>
      <point x="387" y="-161"/>
      <point x="387" y="-132" type="curve" smooth="yes"/>
      <point x="387" y="-85"/>
      <point x="440" y="-29"/>
      <point x="499" y="0" type="curve"/>
      <point x="561" y="311" type="line" smooth="yes"/>
      <point x="580" y="405"/>
      <point x="548" y="490"/>
      <point x="422" y="490" type="curve" smooth="yes"/>
      <point x="336" y="490"/>
      <point x="242" y="443"/>
      <point x="204" y="417" type="curve"/>
      <point x="215" y="395" type="line"/>
      <point x="257" y="423"/>
      <point x="339" y="464"/>
      <point x="415" y="464" type="curve" smooth="yes"/>
      <point x="532" y="464"/>
      <point x="548" y="382"/>
      <point x="531" y="297" type="curve"/>
      <point x="232" y="271"/>
      <point x="117" y="215"/>
    </contour>
    <contour>
      <point x="147" y="100" type="curve" smooth="yes"/>
      <point x="147" y="192"/>
      <point x="230" y="246"/>
      <point x="526" y="273" type="curve"/>
      <point x="493" y="107" type="line"/>
      <point x="408" y="45"/>
      <point x="333" y="14"/>
      <point x="268" y="14" type="curve" smooth="yes"/>
      <point x="206" y="14"/>
      <point x="147" y="38"/>
    </contour>
  </outline>
</glyph>
<glyph name="approxequal.001" format="1">
  <advance width="456"/>
  <outline>
    <contour>
      <point x="72" y="398" type="line"/>
      <point x="96" y="444"/>
      <point x="120" y="462"/>
      <point x="150" y="462" type="curve" smooth="yes"/>
      <point x="204" y="462"/>
      <point x="252" y="370"/>
      <point x="324" y="370" type="curve" smooth="yes"/>
      <point x="360" y="370"/>
      <point x="398" y="396"/>
      <point x="424" y="448" type="curve"/>
      <point x="402" y="460" type="line"/>
      <point x="378" y="414"/>
      <point x="354" y="396"/>
      <point x="324" y="396" type="curve" smooth="yes"/>
      <point x="270" y="396"/>
      <point x="222" y="488"/>
      <point x="150" y="488" type="curve" smooth="yes"/>
      <point x="114" y="488"/>
      <point x="76" y="462"/>
      <point x="50" y="410" type="curve"/>
    </contour>
    <contour>
      <point x="72" y="200" type="line"/>
      <point x="96" y="246"/>
      <point x="120" y="264"/>
      <point x="150" y="264" type="curve" smooth="yes"/>
      <point x="204" y="264"/>
      <point x="252" y="172"/>
      <point x="324" y="172" type="curve" smooth="yes"/>
      <point x="360" y="172"/>
      <point x="398" y="198"/>
      <point x="424" y="250" type="curve"/>
      <point x="402" y="262" type="line"/>
      <point x="378" y="216"/>
      <point x="354" y="198"/>
      <point x="324" y="198" type="curve" smooth="yes"/>
      <point x="270" y="198"/>
      <point x="222" y="290"/>
      <point x="150" y="290" type="curve" smooth="yes"/>
      <point x="114" y="290"/>
      <point x="76" y="264"/>
      <point x="50" y="212" type="curve"/>
    </contour>
  </outline>
</glyph>
<glyph name="arrowdown.001" format="1">
  <advance width="600"/>
  <outline>
    <contour>
      <point x="297" y="-24" type="line"/>
      <point x="615" y="244" type="line"/>
      <point x="600" y="263" type="line"/>
      <point x="317" y="18" type="line"/>
      <point x="418" y="526" type="line"/>
      <point x="392" y="526" type="line"/>
      <point x="291" y="18" type="line"/>
      <point x="105" y="263" type="line"/>
      <point x="83" y="244" type="line"/>
      <point x="293" y="-24" type="line"/>
    </contour>
  </outline>
</glyph>
<glyph name="arrowleft.001" format="1">
  <advance width="599"/>
  <outline>
    <contour>
      <point x="70" y="250" type="line"/>
      <point x="285" y="-14" type="line"/>
      <point x="308" y="5" type="line"/>
      <point x="110" y="239" type="line"/>
      <point x="618" y="239" type="line"/>
      <point x="623" y="265" type="line"/>
      <point x="115" y="265" type="line"/>
      <point x="406" y="499" type="line"/>
      <point x="391" y="518" type="line"/>
      <point x="71" y="254" type="line"/>
    </contour>
  </outline>
</glyph>
<glyph name="arrowright.001" format="1">
  <advance width="600"/>
  <outline>
    <contour>
      <point x="629" y="254" type="line"/>
      <point x="414" y="518" type="line"/>
      <point x="391" y="499" type="line"/>
      <point x="589" y="265" type="line"/>
      <point x="81" y="265" type="line"/>
      <point x="76" y="239" type="line"/>
      <point x="584" y="239" type="line"/>
      <point x="292" y="5" type="line"/>
      <point x="308" y="-14" type="line"/>
      <point x="628" y="250" type="line"/>
    </contour>
  </outline>
</glyph>
<glyph name="arrowup.001" format="1">
  <advance width="600"/>
  <outline>
    <contour>
      <point x="403" y="526" type="line"/>
      <point x="86" y="258" type="line"/>
      <point x="101" y="239" type="line"/>
      <point x="384" y="484" type="line"/>
      <point x="283" y="-24" type="line"/>
      <point x="308" y="-24" type="line"/>
      <point x="410" y="484" type="line"/>
      <point x="596" y="239" type="line"/>
      <point x="618" y="258" type="line"/>
      <point x="407" y="526" type="line"/>
    </contour>
  </outline>
</glyph>
<glyph name="asciicircum.001" format="1">
  <advance width="458"/>
  <outline>
    <contour>
      <point x="92" y="290" type="line"/>
      <point x="120" y="290" type="line"/>
      <point x="200" y="502" type="line"/>
      <point x="248" y="634" type="line"/>
      <point x="250" y="634" type="line"/>
      <point x="298" y="502" type="line"/>
      <point x="378" y="290" type="line"/>
      <point x="404" y="290" type="line"/>
      <point x="260" y="670" type="line"/>
      <point x="236" y="670" type="line"/>
    </contour>
  </outline>
</glyph>
<glyph name="asciicircum.002" format="1">
  <advance width="600"/>
  <outline>
    <contour>
      <point x="192" y="292" type="line"/>
      <point x="222" y="292" type="line"/>
      <point x="348" y="509" type="line"/>
      <point x="426" y="640" type="line"/>
      <point x="430" y="640" type="line"/>
      <point x="456" y="509" type="line"/>
      <point x="496" y="292" type="line"/>
      <point x="526" y="292" type="line"/>
      <point x="451" y="670" type="line"/>
      <point x="417" y="670" type="line"/>
    </contour>
  </outline>
</glyph>
<glyph name="asciitilde.001" format="1">
  <advance width="456"/>
  <outline>
    <contour>
      <point x="72" y="300" type="line"/>
      <point x="96" y="346"/>
      <point x="120" y="364"/>
      <point x="150" y="364" type="curve" smooth="yes"/>
      <point x="204" y="364"/>
      <point x="252" y="272"/>
      <point x="324" y="272" type="curve" smooth="yes"/>
      <point x="360" y="272"/>
      <point x="398" y="298"/>
      <point x="424" y="350" type="curve"/>
      <point x="402" y="362" type="line"/>
      <point x="378" y="316"/>
      <point x="354" y="298"/>
      <point x="324" y="298" type="curve" smooth="yes"/>
      <point x="270" y="298"/>
      <point x="222" y="390"/>
      <point x="150" y="390" type="curve" smooth="yes"/>
      <point x="114" y="390"/>
      <point x="76" y="364"/>
      <point x="50" y="312" type="curve"/>
    </contour>
  </outline>
</glyph>
<glyph name="ascript" format="1">
  <advance width="599"/>
  <outline>
    <contour>
      <point x="140" y="184" type="curve" smooth="yes"/>
      <point x="140" y="339"/>
      <point x="264" y="464"/>
      <point x="389" y="464" type="curve" smooth="yes"/>
      <point x="442" y="464"/>
      <point x="491" y="442"/>
      <point x="539" y="387" type="curve"/>
      <point x="484" y="109" type="line"/>
      <point x="414" y="48"/>
      <point x="346" y="14"/>
      <point x="286" y="14" type="curve" smooth="yes"/>
      <point x="191" y="14"/>
      <point x="140" y="83"/>
    </contour>
    <contour>
      <point x="110" y="177" type="curve" smooth="yes"/>
      <point x="110" y="55"/>
      <point x="175" y="-12"/>
      <point x="280" y="-12" type="curve" smooth="yes"/>
      <point x="351" y="-12"/>
      <point x="422" y="29"/>
      <point x="474" y="75" type="curve"/>
      <point x="476" y="75" type="line"/>
      <point x="465" y="0" type="line"/>
      <point x="489" y="0" type="line"/>
      <point x="584" y="478" type="line"/>
      <point x="561" y="478" type="line"/>
      <point x="546" y="421" type="line"/>
      <point x="544" y="421" type="line"/>
      <point x="503" y="463"/>
      <point x="459" y="490"/>
      <point x="397" y="490" type="curve" smooth="yes"/>
      <point x="257" y="490"/>
      <point x="110" y="368"/>
    </contour>
  </outline>
</glyph>
<glyph name="bar.001" format="1">
  <advance width="599"/>
  <outline>
    <contour>
      <point x="237" y="-250" type="line"/>
      <point x="263" y="-250" type="line"/>
      <point x="462" y="750" type="line"/>
      <point x="437" y="750" type="line"/>
    </contour>
  </outline>
</glyph>
<glyph name="breveacute" format="1">
  <advance width="599"/>
  <outline>
    <contour>
      <point x="403" y="663" type="line"/>
      <point x="429" y="663" type="line"/>
      <point x="537" y="771" type="line"/>
      <point x="501" y="771" type="line"/>
    </contour>
    <contour>
      <point x="415" y="576" type="curve" smooth="yes"/>
      <point x="494" y="576"/>
      <point x="538" y="644"/>
      <point x="553" y="691" type="curve"/>
      <point x="528" y="691" type="line"/>
      <point x="513" y="647"/>
      <point x="476" y="601"/>
      <point x="420" y="601" type="curve" smooth="yes"/>
      <point x="363" y="601"/>
      <point x="345" y="647"/>
      <point x="347" y="691" type="curve"/>
      <point x="322" y="691" type="line"/>
      <point x="319" y="644"/>
      <point x="335" y="576"/>
    </contour>
  </outline>
</glyph>
<glyph name="brevebelowcmb" format="1">
  <advance width="600"/>
  <outline>
    <contour>
      <point x="260" y="-202" type="curve" smooth="yes"/>
      <point x="339" y="-202"/>
      <point x="383" y="-134"/>
      <point x="398" y="-86" type="curve"/>
      <point x="374" y="-86" type="line"/>
      <point x="359" y="-131"/>
      <point x="321" y="-177"/>
      <point x="265" y="-177" type="curve" smooth="yes"/>
      <point x="208" y="-177"/>
      <point x="189" y="-131"/>
      <point x="192" y="-86" type="curve"/>
      <point x="167" y="-86" type="line"/>
      <point x="164" y="-134"/>
      <point x="180" y="-202"/>
    </contour>
  </outline>
</glyph>
<glyph name="brevecmb" format="1">
  <advance width="599"/>
  <outline>
    <contour>
      <point x="414" y="576" type="curve" smooth="yes"/>
      <point x="490" y="576"/>
      <point x="528" y="638"/>
      <point x="546" y="690" type="curve"/>
      <point x="522" y="690" type="line"/>
      <point x="504" y="640"/>
      <point x="466" y="600"/>
      <point x="416" y="600" type="curve" smooth="yes"/>
      <point x="366" y="600"/>
      <point x="346" y="636"/>
      <point x="350" y="690" type="curve"/>
      <point x="328" y="690" type="line"/>
      <point x="324" y="638"/>
      <point x="338" y="576"/>
    </contour>
  </outline>
</glyph>
<glyph name="brevetilde.cap" format="1">
  <advance width="599"/>
  <outline>
    <contour>
      <point x="442" y="712" type="curve" smooth="yes"/>
      <point x="512" y="712"/>
      <point x="557" y="768"/>
      <point x="571" y="810" type="curve"/>
      <point x="546" y="810" type="line"/>
      <point x="531" y="774"/>
      <point x="499" y="737"/>
      <point x="447" y="737" type="curve" smooth="yes"/>
      <point x="395" y="737"/>
      <point x="378" y="774"/>
      <point x="377" y="810" type="curve"/>
      <point x="352" y="810" type="line"/>
      <point x="350" y="768"/>
      <point x="373" y="712"/>
    </contour>
    <contour>
      <point x="351" y="842" type="curve"/>
      <point x="374" y="842" type="line"/>
      <point x="384" y="872"/>
      <point x="404" y="892"/>
      <point x="426" y="892" type="curve" smooth="yes"/>
      <point x="462" y="892"/>
      <point x="470" y="842"/>
      <point x="518" y="842" type="curve" smooth="yes"/>
      <point x="565" y="842"/>
      <point x="592" y="886"/>
      <point x="600" y="917" type="curve"/>
      <point x="577" y="917" type="line"/>
      <point x="567" y="887"/>
      <point x="547" y="867"/>
      <point x="525" y="867" type="curve" smooth="yes"/>
      <point x="489" y="867"/>
      <point x="481" y="917"/>
      <point x="433" y="917" type="curve" smooth="yes"/>
      <point x="386" y="917"/>
      <point x="359" y="873"/>
    </contour>
  </outline>
</glyph>
<glyph name="bulletoperator.001" format="1">
  <advance width="208"/>
  <outline>
    <contour>
      <point x="378" y="406" type="curve" smooth="yes"/>
      <point x="346" y="406"/>
      <point x="316" y="372"/>
      <point x="316" y="338" type="curve" smooth="yes"/>
      <point x="316" y="312"/>
      <point x="332" y="292"/>
      <point x="358" y="292" type="curve" smooth="yes"/>
      <point x="390" y="292"/>
      <point x="420" y="326"/>
      <point x="420" y="360" type="curve" smooth="yes"/>
      <point x="420" y="386"/>
      <point x="404" y="406"/>
    </contour>
  </outline>
</glyph>
<glyph name="c.sups" format="1">
  <advance width="599"/>
  <outline>
    <contour>
      <point x="268" y="383" type="curve" smooth="yes"/>
      <point x="268" y="301"/>
      <point x="319" y="252"/>
      <point x="396" y="252" type="curve" smooth="yes"/>
      <point x="440" y="252"/>
      <point x="480" y="270"/>
      <point x="515" y="294" type="curve"/>
      <point x="504" y="315" type="line"/>
      <point x="476" y="295"/>
      <point x="440" y="279"/>
      <point x="402" y="279" type="curve" smooth="yes"/>
      <point x="337" y="279"/>
      <point x="299" y="323"/>
      <point x="299" y="388" type="curve" smooth="yes"/>
      <point x="299" y="486"/>
      <point x="375" y="559"/>
      <point x="459" y="559" type="curve" smooth="yes"/>
      <point x="492" y="559"/>
      <point x="516" y="544"/>
      <point x="535" y="525" type="curve"/>
      <point x="557" y="546" type="line"/>
      <point x="537" y="566"/>
      <point x="510" y="585"/>
      <point x="463" y="585" type="curve" smooth="yes"/>
      <point x="367" y="585"/>
      <point x="268" y="509"/>
    </contour>
  </outline>
</glyph>
<glyph name="caron.alt" format="1">
  <advance width="600"/>
  <outline>
    <contour>
      <point x="403" y="548" type="line"/>
      <point x="440" y="704" type="line"/>
      <point x="449" y="752" type="line"/>
      <point x="421" y="752" type="line"/>
      <point x="382" y="548" type="line"/>
    </contour>
  </outline>
</glyph>
<glyph name="caroncmb.cap" format="1">
  <advance width="600"/>
  <outline>
    <contour>
      <point x="568" y="812" type="line"/>
      <point x="538" y="812" type="line"/>
      <point x="448" y="736" type="line"/>
      <point x="444" y="736" type="line"/>
      <point x="386" y="812" type="line"/>
      <point x="360" y="812" type="line"/>
      <point x="432" y="710" type="line"/>
      <point x="456" y="710" type="line"/>
    </contour>
  </outline>
</glyph>
<glyph name="cedi" format="1">
  <advance width="600"/>
  <outline>
    <contour>
      <point x="315" y="-110" type="line"/>
      <point x="344" y="-110" type="line"/>
      <point x="516" y="752" type="line"/>
      <point x="487" y="752" type="line"/>
    </contour>
    <contour>
      <point x="164" y="233" type="curve" smooth="yes"/>
      <point x="164" y="85"/>
      <point x="230" y="-12"/>
      <point x="346" y="-12" type="curve" smooth="yes"/>
      <point x="430" y="-12"/>
      <point x="490" y="24"/>
      <point x="548" y="82" type="curve"/>
      <point x="531" y="99" type="line"/>
      <point x="472" y="42"/>
      <point x="419" y="14"/>
      <point x="353" y="14" type="curve" smooth="yes"/>
      <point x="249" y="14"/>
      <point x="195" y="102"/>
      <point x="195" y="233" type="curve" smooth="yes"/>
      <point x="195" y="454"/>
      <point x="312" y="626"/>
      <point x="489" y="626" type="curve" smooth="yes"/>
      <point x="546" y="626"/>
      <point x="584" y="598"/>
      <point x="612" y="556" type="curve"/>
      <point x="636" y="574" type="line"/>
      <point x="613" y="614"/>
      <point x="563" y="652"/>
      <point x="495" y="652" type="curve" smooth="yes"/>
      <point x="303" y="652"/>
      <point x="164" y="475"/>
    </contour>
  </outline>
</glyph>
<glyph name="cedillacmb" format="1">
  <advance width="600"/>
  <outline>
    <contour>
      <point x="242" y="-74" type="line"/>
      <point x="275" y="-83"/>
      <point x="301" y="-94"/>
      <point x="301" y="-121" type="curve" smooth="yes"/>
      <point x="301" y="-154"/>
      <point x="257" y="-172"/>
      <point x="195" y="-180" type="curve"/>
      <point x="196" y="-206" type="line"/>
      <point x="262" y="-197"/>
      <point x="330" y="-170"/>
      <point x="330" y="-112" type="curve" smooth="yes"/>
      <point x="330" y="-81"/>
      <point x="308" y="-65"/>
      <point x="282" y="-56" type="curve"/>
      <point x="324" y="2" type="line"/>
      <point x="297" y="2" type="line"/>
    </contour>
  </outline>
</glyph>
<glyph name="check.001" format="1">
  <advance width="600"/>
  <outline>
    <contour>
      <point x="187" y="-14" type="line"/>
      <point x="310" y="239"/>
      <point x="519" y="490"/>
      <point x="728" y="655" type="curve"/>
      <point x="711" y="680" type="line"/>
      <point x="504" y="513"/>
      <point x="289" y="248"/>
      <point x="172" y="12" type="curve"/>
      <point x="168" y="12" type="line"/>
      <point x="157" y="106"/>
      <point x="124" y="207"/>
      <point x="85" y="290" type="curve"/>
      <point x="57" y="272" type="line"/>
      <point x="98" y="188"/>
      <point x="128" y="87"/>
      <point x="144" y="-20" type="curve"/>
    </contour>
  </outline>
</glyph>
<glyph name="checkbox.001" format="1">
  <advance width="600"/>
  <outline>
    <contour>
      <point x="11" y="19" type="line"/>
      <point x="129" y="606" type="line"/>
      <point x="680" y="606" type="line"/>
      <point x="562" y="19" type="line"/>
    </contour>
    <contour>
      <point x="-24" y="-10" type="line"/>
      <point x="578" y="-10" type="line"/>
      <point x="630" y="39" type="line"/>
      <point x="755" y="668" type="line"/>
      <point x="161" y="668" type="line"/>
      <point x="104" y="628" type="line"/>
    </contour>
  </outline>
</glyph>
<glyph name="checkedbox.001" format="1">
  <advance width="600"/>
  <outline>
    <contour>
      <point x="333" y="106" type="line"/>
      <point x="452" y="351"/>
      <point x="651" y="594"/>
      <point x="856" y="754" type="curve"/>
      <point x="839" y="779" type="line"/>
      <point x="636" y="617"/>
      <point x="427" y="359"/>
      <point x="316" y="132" type="curve"/>
      <point x="312" y="132" type="line"/>
      <point x="302" y="223"/>
      <point x="271" y="320"/>
      <point x="235" y="400" type="curve"/>
      <point x="207" y="382" type="line"/>
      <point x="245" y="301"/>
      <point x="275" y="203"/>
      <point x="291" y="100" type="curve"/>
    </contour>
    <contour>
      <point x="11" y="19" type="line"/>
      <point x="129" y="606" type="line"/>
      <point x="680" y="606" type="line"/>
      <point x="562" y="19" type="line"/>
    </contour>
    <contour>
      <point x="-24" y="-10" type="line"/>
      <point x="578" y="-10" type="line"/>
      <point x="630" y="39" type="line"/>
      <point x="755" y="668" type="line"/>
      <point x="161" y="668" type="line"/>
      <point x="104" y="628" type="line"/>
    </contour>
  </outline>
</glyph>
<glyph name="circumflexacute.cap" format="1">
  <advance width="599"/>
  <outline>
    <contour>
      <point x="527" y="770" type="line"/>
      <point x="551" y="770" type="line"/>
      <point x="656" y="874" type="line"/>
      <point x="619" y="874" type="line"/>
    </contour>
    <contour>
      <point x="339" y="710" type="line"/>
      <point x="367" y="710" type="line"/>
      <point x="453" y="779" type="line"/>
      <point x="457" y="779" type="line"/>
      <point x="516" y="710" type="line"/>
      <point x="544" y="710" type="line"/>
      <point x="474" y="808" type="line"/>
      <point x="448" y="808" type="line"/>
    </contour>
  </outline>
</glyph>
<glyph name="circumflexacute" format="1">
  <advance width="599"/>
  <outline>
    <contour>
      <point x="317" y="572" type="line"/>
      <point x="343" y="572" type="line"/>
      <point x="428" y="652" type="line"/>
      <point x="432" y="652" type="line"/>
      <point x="485" y="572" type="line"/>
      <point x="511" y="572" type="line"/>
      <point x="449" y="684" type="line"/>
      <point x="423" y="684" type="line"/>
    </contour>
    <contour>
      <point x="500" y="636" type="line"/>
      <point x="525" y="636" type="line"/>
      <point x="636" y="746" type="line"/>
      <point x="600" y="746" type="line"/>
    </contour>
  </outline>
</glyph>
<glyph name="circumflexcmb.cap" format="1">
  <advance width="599"/>
  <outline>
    <contour>
      <point x="338" y="710" type="line"/>
      <point x="368" y="710" type="line"/>
      <point x="458" y="786" type="line"/>
      <point x="462" y="786" type="line"/>
      <point x="520" y="710" type="line"/>
      <point x="546" y="710" type="line"/>
      <point x="474" y="812" type="line"/>
      <point x="450" y="812" type="line"/>
    </contour>
  </outline>
</glyph>
<glyph name="circumflextilde" format="1">
  <advance width="600"/>
  <outline>
    <contour>
      <point x="309" y="570" type="line"/>
      <point x="335" y="570" type="line"/>
      <point x="426" y="640" type="line"/>
      <point x="430" y="640" type="line"/>
      <point x="493" y="570" type="line"/>
      <point x="519" y="570" type="line"/>
      <point x="446" y="668" type="line"/>
      <point x="421" y="668" type="line"/>
    </contour>
    <contour>
      <point x="346" y="704" type="line"/>
      <point x="356" y="734"/>
      <point x="376" y="750"/>
      <point x="398" y="750" type="curve" smooth="yes"/>
      <point x="434" y="750"/>
      <point x="443" y="704"/>
      <point x="491" y="704" type="curve" smooth="yes"/>
      <point x="538" y="704"/>
      <point x="564" y="744"/>
      <point x="572" y="775" type="curve"/>
      <point x="549" y="775" type="line"/>
      <point x="539" y="745"/>
      <point x="520" y="728"/>
      <point x="498" y="728" type="curve" smooth="yes"/>
      <point x="462" y="728"/>
      <point x="453" y="775"/>
      <point x="405" y="775" type="curve" smooth="yes"/>
      <point x="358" y="775"/>
      <point x="331" y="734"/>
      <point x="323" y="704" type="curve"/>
    </contour>
  </outline>
</glyph>
<glyph name="commaabovecmb" format="1">
  <advance width="600"/>
  <outline>
    <contour>
      <point x="384" y="546" type="line"/>
      <point x="448" y="578"/>
      <point x="473" y="629"/>
      <point x="473" y="672" type="curve" smooth="yes"/>
      <point x="473" y="697"/>
      <point x="463" y="711"/>
      <point x="444" y="711" type="curve" smooth="yes"/>
      <point x="426" y="711"/>
      <point x="408" y="698"/>
      <point x="408" y="672" type="curve" smooth="yes"/>
      <point x="408" y="655"/>
      <point x="422" y="648"/>
      <point x="434" y="648" type="curve" smooth="yes"/>
      <point x="446" y="648"/>
      <point x="454" y="652"/>
      <point x="467" y="666" type="curve"/>
      <point x="435" y="698" type="line"/>
      <point x="442" y="650" type="line"/>
      <point x="436" y="618"/>
      <point x="416" y="590"/>
      <point x="374" y="568" type="curve"/>
    </contour>
  </outline>
</glyph>
<glyph name="commabelowcmb.alt" format="1">
  <advance width="600"/>
  <outline>
    <contour>
      <point x="429" y="538" type="curve"/>
      <point x="444" y="563" type="line"/>
      <point x="420" y="569"/>
      <point x="395" y="579"/>
      <point x="395" y="606" type="curve" smooth="yes"/>
      <point x="395" y="640"/>
      <point x="438" y="657"/>
      <point x="500" y="666" type="curve"/>
      <point x="499" y="691" type="line"/>
      <point x="433" y="682"/>
      <point x="365" y="656"/>
      <point x="365" y="598" type="curve" smooth="yes"/>
      <point x="365" y="566"/>
      <point x="388" y="548"/>
    </contour>
  </outline>
</glyph>
<glyph name="commabelowcmb" format="1">
  <advance width="600"/>
  <outline>
    <contour>
      <point x="266" y="-52" type="curve"/>
      <point x="251" y="-78" type="line"/>
      <point x="276" y="-83"/>
      <point x="301" y="-94"/>
      <point x="301" y="-121" type="curve" smooth="yes"/>
      <point x="301" y="-154"/>
      <point x="257" y="-172"/>
      <point x="195" y="-180" type="curve"/>
      <point x="196" y="-205" type="line"/>
      <point x="262" y="-197"/>
      <point x="330" y="-170"/>
      <point x="330" y="-112" type="curve" smooth="yes"/>
      <point x="330" y="-80"/>
      <point x="307" y="-63"/>
    </contour>
  </outline>
</glyph>
<glyph name="commaturnedabovecmb" format="1">
  <advance width="600"/>
  <outline>
    <contour>
      <point x="468" y="711" type="line"/>
      <point x="403" y="679"/>
      <point x="379" y="628"/>
      <point x="379" y="585" type="curve" smooth="yes"/>
      <point x="379" y="560"/>
      <point x="389" y="546"/>
      <point x="407" y="546" type="curve" smooth="yes"/>
      <point x="426" y="546"/>
      <point x="444" y="559"/>
      <point x="444" y="585" type="curve" smooth="yes"/>
      <point x="444" y="602"/>
      <point x="430" y="609"/>
      <point x="418" y="609" type="curve" smooth="yes"/>
      <point x="406" y="609"/>
      <point x="397" y="605"/>
      <point x="384" y="591" type="curve"/>
      <point x="416" y="559" type="line"/>
      <point x="410" y="607" type="line"/>
      <point x="416" y="639"/>
      <point x="435" y="667"/>
      <point x="478" y="689" type="curve"/>
    </contour>
  </outline>
</glyph>
<glyph name="darkshade.001" format="1">
  <advance width="600"/>
  <outline>
    <contour>
      <point x="-40" y="-200" type="line"/>
      <point x="-10" y="-200" type="line"/>
      <point x="-30" y="-150" type="line"/>
    </contour>
    <contour>
      <point x="35" y="-200" type="line"/>
      <point x="65" y="-200" type="line"/>
      <point x="-5" y="-25" type="line"/>
      <point x="-15" y="-75" type="line"/>
    </contour>
    <contour>
      <point x="110" y="-200" type="line"/>
      <point x="140" y="-200" type="line"/>
      <point x="20" y="100" type="line"/>
      <point x="10" y="50" type="line"/>
    </contour>
    <contour>
      <point x="185" y="-200" type="line"/>
      <point x="215" y="-200" type="line"/>
      <point x="45" y="225" type="line"/>
      <point x="35" y="175" type="line"/>
    </contour>
    <contour>
      <point x="260" y="-200" type="line"/>
      <point x="290" y="-200" type="line"/>
      <point x="70" y="350" type="line"/>
      <point x="60" y="300" type="line"/>
    </contour>
    <contour>
      <point x="335" y="-200" type="line"/>
      <point x="365" y="-200" type="line"/>
      <point x="95" y="475" type="line"/>
      <point x="85" y="425" type="line"/>
    </contour>
    <contour>
      <point x="410" y="-200" type="line"/>
      <point x="440" y="-200" type="line"/>
      <point x="120" y="600" type="line"/>
      <point x="110" y="550" type="line"/>
    </contour>
    <contour>
      <point x="485" y="-200" type="line"/>
      <point x="515" y="-200" type="line"/>
      <point x="145" y="725" type="line"/>
      <point x="135" y="675" type="line"/>
    </contour>
    <contour>
      <point x="560" y="-200" type="line"/>
      <point x="570" y="-150" type="line"/>
      <point x="190" y="800" type="line"/>
      <point x="160" y="800" type="line"/>
    </contour>
    <contour>
      <point x="585" y="-75" type="line"/>
      <point x="595" y="-25" type="line"/>
      <point x="265" y="800" type="line"/>
      <point x="235" y="800" type="line"/>
    </contour>
    <contour>
      <point x="610" y="50" type="line"/>
      <point x="620" y="100" type="line"/>
      <point x="340" y="800" type="line"/>
      <point x="310" y="800" type="line"/>
    </contour>
    <contour>
      <point x="635" y="175" type="line"/>
      <point x="645" y="225" type="line"/>
      <point x="415" y="800" type="line"/>
      <point x="385" y="800" type="line"/>
    </contour>
    <contour>
      <point x="660" y="300" type="line"/>
      <point x="670" y="350" type="line"/>
      <point x="490" y="800" type="line"/>
      <point x="460" y="800" type="line"/>
    </contour>
    <contour>
      <point x="685" y="425" type="line"/>
      <point x="695" y="475" type="line"/>
      <point x="565" y="800" type="line"/>
      <point x="535" y="800" type="line"/>
    </contour>
    <contour>
      <point x="710" y="550" type="line"/>
      <point x="720" y="600" type="line"/>
      <point x="640" y="800" type="line"/>
      <point x="610" y="800" type="line"/>
    </contour>
    <contour>
      <point x="735" y="675" type="line"/>
      <point x="745" y="725" type="line"/>
      <point x="715" y="800" type="line"/>
      <point x="685" y="800" type="line"/>
    </contour>
  </outline>
</glyph>
<glyph name="dbldnleftbxd.001" format="1">
  <advance width="600"/>
  <outline>
    <contour>
      <point x="49" y="314" type="line"/>
      <point x="376" y="314" type="line"/>
      <point x="234" y="-400" type="line"/>
      <point x="261" y="-400" type="line"/>
      <point x="409" y="341" type="line"/>
      <point x="54" y="341" type="line"/>
    </contour>
    <contour>
      <point x="38" y="259" type="line"/>
      <point x="311" y="259" type="line"/>
      <point x="179" y="-400" type="line"/>
      <point x="206" y="-400" type="line"/>
      <point x="343" y="286" type="line"/>
      <point x="43" y="286" type="line"/>
    </contour>
  </outline>
</glyph>
<glyph name="dbldnrightbxd.001" format="1">
  <advance width="600"/>
  <outline>
    <contour>
      <point x="179" y="-400" type="line"/>
      <point x="206" y="-400" type="line"/>
      <point x="349" y="314" type="line"/>
      <point x="676" y="314" type="line"/>
      <point x="682" y="341" type="line"/>
      <point x="327" y="341" type="line"/>
    </contour>
    <contour>
      <point x="234" y="-400" type="line"/>
      <point x="261" y="-400" type="line"/>
      <point x="393" y="259" type="line"/>
      <point x="665" y="259" type="line"/>
      <point x="671" y="286" type="line"/>
      <point x="371" y="286" type="line"/>
    </contour>
  </outline>
</glyph>
<glyph name="dbluphorzbxd.001" format="1">
  <advance width="599"/>
  <outline>
    <contour>
      <point x="49" y="314" type="line"/>
      <point x="349" y="314" type="line"/>
      <point x="486" y="1000" type="line"/>
      <point x="459" y="1000" type="line"/>
      <point x="327" y="341" type="line"/>
      <point x="54" y="341" type="line"/>
    </contour>
    <contour>
      <point x="376" y="314" type="line"/>
      <point x="676" y="314" type="line"/>
      <point x="682" y="341" type="line"/>
      <point x="409" y="341" type="line"/>
      <point x="541" y="1000" type="line"/>
      <point x="513" y="1000" type="line"/>
    </contour>
    <contour>
      <point x="38" y="259" type="line"/>
      <point x="665" y="259" type="line"/>
      <point x="671" y="286" type="line"/>
      <point x="43" y="286" type="line"/>
    </contour>
  </outline>
</glyph>
<glyph name="dblupleftbxd.001" format="1">
  <advance width="599"/>
  <outline>
    <contour>
      <point x="38" y="259" type="line"/>
      <point x="393" y="259" type="line"/>
      <point x="541" y="1000" type="line"/>
      <point x="513" y="1000" type="line"/>
      <point x="371" y="286" type="line"/>
      <point x="43" y="286" type="line"/>
    </contour>
    <contour>
      <point x="49" y="314" type="line"/>
      <point x="349" y="314" type="line"/>
      <point x="486" y="1000" type="line"/>
      <point x="459" y="1000" type="line"/>
      <point x="327" y="341" type="line"/>
      <point x="54" y="341" type="line"/>
    </contour>
  </outline>
</glyph>
<glyph name="dbluprightbxd.001" format="1">
  <advance width="600"/>
  <outline>
    <contour>
      <point x="311" y="259" type="line"/>
      <point x="666" y="259" type="line"/>
      <point x="671" y="286" type="line"/>
      <point x="344" y="286" type="line"/>
      <point x="486" y="1000" type="line"/>
      <point x="459" y="1000" type="line"/>
    </contour>
    <contour>
      <point x="377" y="314" type="line"/>
      <point x="677" y="314" type="line"/>
      <point x="682" y="341" type="line"/>
      <point x="410" y="341" type="line"/>
      <point x="541" y="1000" type="line"/>
      <point x="514" y="1000" type="line"/>
    </contour>
  </outline>
</glyph>
<glyph name="dblvertbxd.001" format="1">
  <advance width="599"/>
  <outline>
    <contour>
      <point x="179" y="-400" type="line"/>
      <point x="206" y="-400" type="line"/>
      <point x="486" y="1000" type="line"/>
      <point x="459" y="1000" type="line"/>
    </contour>
    <contour>
      <point x="234" y="-400" type="line"/>
      <point x="261" y="-400" type="line"/>
      <point x="541" y="1000" type="line"/>
      <point x="514" y="1000" type="line"/>
    </contour>
  </outline>
</glyph>
<glyph name="dblvertleftbxd.001" format="1">
  <advance width="599"/>
  <outline>
    <contour>
      <point x="234" y="-400" type="line"/>
      <point x="261" y="-400" type="line"/>
      <point x="541" y="1000" type="line"/>
      <point x="513" y="1000" type="line"/>
    </contour>
    <contour>
      <point x="38" y="259" type="line"/>
      <point x="311" y="259" type="line"/>
      <point x="179" y="-400" type="line"/>
      <point x="206" y="-400" type="line"/>
      <point x="343" y="286" type="line"/>
      <point x="43" y="286" type="line"/>
    </contour>
    <contour>
      <point x="49" y="314" type="line"/>
      <point x="349" y="314" type="line"/>
      <point x="486" y="1000" type="line"/>
      <point x="459" y="1000" type="line"/>
      <point x="327" y="341" type="line"/>
      <point x="54" y="341" type="line"/>
    </contour>
  </outline>
</glyph>
<glyph name="diamondblack.001" format="1">
  <advance width="599"/>
  <outline>
    <contour>
      <point x="330" y="145" type="line"/>
      <point x="473" y="264" type="line"/>
      <point x="378" y="383" type="line"/>
      <point x="233" y="264" type="line"/>
    </contour>
  </outline>
</glyph>
<glyph name="dieresiscmb.cap" format="1">
  <advance width="600"/>
  <outline>
    <contour>
      <point x="376" y="726" type="curve" smooth="yes"/>
      <point x="392" y="726"/>
      <point x="408" y="742"/>
      <point x="408" y="762" type="curve" smooth="yes"/>
      <point x="408" y="780"/>
      <point x="398" y="790"/>
      <point x="382" y="790" type="curve" smooth="yes"/>
      <point x="366" y="790"/>
      <point x="350" y="774"/>
      <point x="350" y="752" type="curve" smooth="yes"/>
      <point x="350" y="736"/>
      <point x="360" y="726"/>
    </contour>
    <contour>
      <point x="522" y="726" type="curve" smooth="yes"/>
      <point x="538" y="726"/>
      <point x="554" y="742"/>
      <point x="554" y="762" type="curve" smooth="yes"/>
      <point x="554" y="780"/>
      <point x="544" y="790"/>
      <point x="528" y="790" type="curve" smooth="yes"/>
      <point x="512" y="790"/>
      <point x="496" y="774"/>
      <point x="496" y="752" type="curve" smooth="yes"/>
      <point x="496" y="736"/>
      <point x="506" y="726"/>
    </contour>
  </outline>
</glyph>
<glyph name="divide.001" format="1">
  <advance width="456"/>
  <outline>
    <contour>
      <point x="242" y="478" type="curve" smooth="yes"/>
      <point x="260" y="478"/>
      <point x="272" y="494"/>
      <point x="272" y="512" type="curve" smooth="yes"/>
      <point x="272" y="530"/>
      <point x="260" y="544"/>
      <point x="242" y="544" type="curve" smooth="yes"/>
      <point x="224" y="544"/>
      <point x="212" y="530"/>
      <point x="212" y="512" type="curve" smooth="yes"/>
      <point x="212" y="494"/>
      <point x="224" y="478"/>
    </contour>
    <contour>
      <point x="242" y="114" type="curve" smooth="yes"/>
      <point x="260" y="114"/>
      <point x="272" y="130"/>
      <point x="272" y="148" type="curve" smooth="yes"/>
      <point x="272" y="166"/>
      <point x="260" y="180"/>
      <point x="242" y="180" type="curve" smooth="yes"/>
      <point x="224" y="180"/>
      <point x="212" y="166"/>
      <point x="212" y="148" type="curve" smooth="yes"/>
      <point x="212" y="130"/>
      <point x="224" y="114"/>
    </contour>
    <contour>
      <point x="436" y="318" type="line"/>
      <point x="436" y="344" type="line"/>
      <point x="48" y="344" type="line"/>
      <point x="48" y="318" type="line"/>
    </contour>
  </outline>
</glyph>
<glyph name="dndblrightsngbxd.001" format="1">
  <advance width="600"/>
  <outline>
    <contour>
      <point x="179" y="-400" type="line"/>
      <point x="206" y="-400" type="line"/>
      <point x="344" y="286" type="line"/>
      <point x="371" y="286" type="line"/>
      <point x="234" y="-400" type="line"/>
      <point x="261" y="-400" type="line"/>
      <point x="398" y="286" type="line"/>
      <point x="671" y="286" type="line"/>
      <point x="676" y="314" type="line"/>
      <point x="349" y="314" type="line"/>
      <point x="322" y="314" type="line"/>
    </contour>
  </outline>
</glyph>
<glyph name="dnheavyleftlightbxd.001" format="1">
  <advance width="600"/>
  <outline>
    <contour>
      <point x="44" y="286" type="line"/>
      <point x="330" y="286" type="line"/>
      <point x="193" y="-400" type="line"/>
      <point x="248" y="-400" type="line"/>
      <point x="391" y="314" type="line"/>
      <point x="49" y="314" type="line"/>
    </contour>
  </outline>
</glyph>
<glyph name="dnheavyrightuplightbxd.001" format="1">
  <advance width="600"/>
  <outline>
    <contour>
      <point x="193" y="-400" type="line"/>
      <point x="248" y="-400" type="line"/>
      <point x="385" y="286" type="line"/>
      <point x="671" y="286" type="line"/>
      <point x="677" y="314" type="line"/>
      <point x="377" y="314" type="line"/>
      <point x="514" y="1000" type="line"/>
      <point x="486" y="1000" type="line"/>
      <point x="349" y="314" type="line"/>
      <point x="336" y="314" type="line"/>
    </contour>
  </outline>
</glyph>
<glyph name="dnheavyrightuplightbxd" format="1">
  <advance width="600"/>
  <outline>
    <contour>
      <point x="270" y="-400" type="line"/>
      <point x="330" y="-400" type="line"/>
      <point x="330" y="285" type="line"/>
      <point x="615" y="285" type="line"/>
      <point x="615" y="315" type="line"/>
      <point x="315" y="315" type="line"/>
      <point x="315" y="1000" type="line"/>
      <point x="285" y="1000" type="line"/>
      <point x="285" y="315" type="line"/>
      <point x="270" y="315" type="line"/>
    </contour>
  </outline>
</glyph>
<glyph name="dnlightrightheavybxd.001" format="1">
  <advance width="599"/>
  <outline>
    <contour>
      <point x="206" y="-400" type="line"/>
      <point x="233" y="-400" type="line"/>
      <point x="368" y="273" type="line"/>
      <point x="668" y="273" type="line"/>
      <point x="679" y="327" type="line"/>
      <point x="351" y="327" type="line"/>
    </contour>
  </outline>
</glyph>
<glyph name="dnlightrightupheavybxd.001" format="1">
  <advance width="599"/>
  <outline>
    <contour>
      <point x="327" y="273" type="line"/>
      <point x="340" y="273" type="line"/>
      <point x="206" y="-400" type="line"/>
      <point x="233" y="-400" type="line"/>
      <point x="368" y="273" type="line"/>
      <point x="668" y="273" type="line"/>
      <point x="679" y="327" type="line"/>
      <point x="392" y="327" type="line"/>
      <point x="527" y="1000" type="line"/>
      <point x="472" y="1000" type="line"/>
    </contour>
  </outline>
</glyph>
<glyph name="dnsnghorzdblbxd.001" format="1">
  <advance width="599"/>
  <outline>
    <contour>
      <point x="38" y="259" type="line"/>
      <point x="338" y="259" type="line"/>
      <point x="206" y="-400" type="line"/>
      <point x="234" y="-400" type="line"/>
      <point x="365" y="259" type="line"/>
      <point x="665" y="259" type="line"/>
      <point x="671" y="286" type="line"/>
      <point x="43" y="286" type="line"/>
    </contour>
    <contour>
      <point x="49" y="314" type="line"/>
      <point x="676" y="314" type="line"/>
      <point x="682" y="341" type="line"/>
      <point x="54" y="341" type="line"/>
    </contour>
  </outline>
</glyph>
<glyph name="dnsngleftdblbxd.001" format="1">
  <advance width="599"/>
  <outline>
    <contour>
      <point x="49" y="314" type="line"/>
      <point x="349" y="314" type="line"/>
      <point x="343" y="286" type="line"/>
      <point x="43" y="286" type="line"/>
      <point x="38" y="259" type="line"/>
      <point x="338" y="259" type="line"/>
      <point x="206" y="-400" type="line"/>
      <point x="234" y="-400" type="line"/>
      <point x="382" y="341" type="line"/>
      <point x="54" y="341" type="line"/>
    </contour>
  </outline>
</glyph>
<glyph name="dotaccentcmb" format="1">
  <advance width="600"/>
  <outline>
    <contour>
      <point x="425" y="600" type="curve" smooth="yes"/>
      <point x="446" y="600"/>
      <point x="468" y="619"/>
      <point x="468" y="645" type="curve" smooth="yes"/>
      <point x="468" y="667"/>
      <point x="453" y="682"/>
      <point x="434" y="682" type="curve" smooth="yes"/>
      <point x="413" y="682"/>
      <point x="391" y="662"/>
      <point x="391" y="634" type="curve" smooth="yes"/>
      <point x="391" y="615"/>
      <point x="406" y="600"/>
    </contour>
  </outline>
</glyph>
<glyph name="egrave.sups" format="1">
  <advance width="599"/>
  <outline>
    <contour>
      <point x="250" y="385" type="curve" smooth="yes"/>
      <point x="250" y="302"/>
      <point x="304" y="252"/>
      <point x="378" y="252" type="curve" smooth="yes"/>
      <point x="428" y="252"/>
      <point x="464" y="268"/>
      <point x="493" y="283" type="curve"/>
      <point x="485" y="306" type="line"/>
      <point x="456" y="289"/>
      <point x="424" y="278"/>
      <point x="386" y="278" type="curve" smooth="yes"/>
      <point x="310" y="278"/>
      <point x="270" y="335"/>
      <point x="284" y="414" type="curve"/>
      <point x="532" y="414" type="line"/>
      <point x="536" y="427"/>
      <point x="543" y="438"/>
      <point x="543" y="473" type="curve" smooth="yes"/>
      <point x="543" y="543"/>
      <point x="504" y="585"/>
      <point x="436" y="585" type="curve" smooth="yes"/>
      <point x="349" y="585"/>
      <point x="250" y="507"/>
    </contour>
    <contour>
      <point x="288" y="437" type="line"/>
      <point x="312" y="513"/>
      <point x="373" y="559"/>
      <point x="431" y="559" type="curve" smooth="yes"/>
      <point x="493" y="559"/>
      <point x="526" y="518"/>
      <point x="510" y="437" type="curve"/>
    </contour>
    <contour>
      <point x="458" y="638" type="line"/>
      <point x="483" y="638" type="line"/>
      <point x="440" y="728" type="line"/>
      <point x="404" y="728" type="line"/>
    </contour>
  </outline>
</glyph>
<glyph name="eighthnote.001" format="1">
  <advance width="599"/>
  <outline>
    <contour>
      <point x="106" y="38" type="curve" smooth="yes"/>
      <point x="106" y="2"/>
      <point x="139" y="-20"/>
      <point x="185" y="-20" type="curve" smooth="yes"/>
      <point x="254" y="-20"/>
      <point x="345" y="26"/>
      <point x="364" y="119" type="curve" smooth="yes"/>
      <point x="453" y="565" type="line"/>
      <point x="525" y="542"/>
      <point x="561" y="487"/>
      <point x="561" y="430" type="curve" smooth="yes"/>
      <point x="561" y="372"/>
      <point x="545" y="351"/>
      <point x="528" y="316" type="curve"/>
      <point x="550" y="309" type="line"/>
      <point x="569" y="348"/>
      <point x="597" y="407"/>
      <point x="597" y="471" type="curve" smooth="yes"/>
      <point x="597" y="521"/>
      <point x="579" y="571"/>
      <point x="525" y="618" type="curve" smooth="yes"/>
      <point x="483" y="654"/>
      <point x="475" y="664"/>
      <point x="471" y="694" type="curve"/>
      <point x="446" y="694" type="line"/>
      <point x="335" y="139" type="line"/>
      <point x="326" y="145"/>
      <point x="301" y="151"/>
      <point x="275" y="151" type="curve" smooth="yes"/>
      <point x="175" y="151"/>
      <point x="106" y="92"/>
    </contour>
  </outline>
</glyph>
<glyph name="equal.001" format="1">
  <advance width="456"/>
  <outline>
    <contour>
      <point x="436" y="416" type="line"/>
      <point x="436" y="442" type="line"/>
      <point x="48" y="442" type="line"/>
      <point x="48" y="416" type="line"/>
    </contour>
    <contour>
      <point x="436" y="218" type="line"/>
      <point x="436" y="244" type="line"/>
      <point x="48" y="244" type="line"/>
      <point x="48" y="218" type="line"/>
    </contour>
  </outline>
</glyph>
<glyph name="f.sups" format="1">
  <advance width="600"/>
  <outline>
    <contour>
      <point x="346" y="260" type="line"/>
      <point x="375" y="260" type="line"/>
      <point x="447" y="617" type="line" smooth="yes"/>
      <point x="458" y="676"/>
      <point x="492" y="717"/>
      <point x="559" y="717" type="curve" smooth="yes"/>
      <point x="587" y="717"/>
      <point x="606" y="714"/>
      <point x="631" y="703" type="curve"/>
      <point x="644" y="726" type="line"/>
      <point x="615" y="738"/>
      <point x="590" y="742"/>
      <point x="563" y="742" type="curve" smooth="yes"/>
      <point x="482" y="742"/>
      <point x="433" y="695"/>
      <point x="417" y="614" type="curve" smooth="yes"/>
    </contour>
    <contour>
      <point x="321" y="551" type="line"/>
      <point x="576" y="551" type="line"/>
      <point x="581" y="577" type="line"/>
      <point x="409" y="577" type="line"/>
      <point x="326" y="575" type="line"/>
    </contour>
  </outline>
</glyph>
<glyph name="fi" format="1">
  <advance width="600"/>
  <outline>
    <contour>
      <point x="156" y="0" type="line"/>
      <point x="183" y="0" type="line"/>
      <point x="302" y="594" type="line" smooth="yes"/>
      <point x="316" y="666"/>
      <point x="349" y="709"/>
      <point x="403" y="709" type="curve" smooth="yes"/>
      <point x="421" y="709"/>
      <point x="441" y="705"/>
      <point x="459" y="695" type="curve"/>
      <point x="473" y="719" type="line"/>
      <point x="453" y="729"/>
      <point x="430" y="735"/>
      <point x="411" y="735" type="curve" smooth="yes"/>
      <point x="345" y="735"/>
      <point x="294" y="692"/>
      <point x="275" y="598" type="curve" smooth="yes"/>
    </contour>
    <contour>
      <point x="180" y="452" type="line"/>
      <point x="388" y="452" type="line"/>
      <point x="393" y="478" type="line"/>
      <point x="251" y="478" type="line"/>
      <point x="185" y="474" type="line"/>
    </contour>
    <contour>
      <point x="420" y="0" type="line"/>
      <point x="448" y="0" type="line"/>
      <point x="543" y="478" type="line"/>
      <point x="516" y="478" type="line"/>
    </contour>
    <contour>
      <point x="554" y="601" type="curve" smooth="yes"/>
      <point x="577" y="601"/>
      <point x="601" y="620"/>
      <point x="601" y="648" type="curve" smooth="yes"/>
      <point x="601" y="669"/>
      <point x="588" y="681"/>
      <point x="570" y="681" type="curve" smooth="yes"/>
      <point x="547" y="681"/>
      <point x="523" y="662"/>
      <point x="523" y="633" type="curve" smooth="yes"/>
      <point x="523" y="613"/>
      <point x="536" y="601"/>
    </contour>
  </outline>
</glyph>
<glyph name="fisheye.001" format="1">
  <advance width="600"/>
  <outline>
    <contour>
      <point x="342" y="210" type="curve" smooth="yes"/>
      <point x="372" y="210"/>
      <point x="404" y="235"/>
      <point x="404" y="274" type="curve" smooth="yes"/>
      <point x="404" y="299"/>
      <point x="386" y="316"/>
      <point x="363" y="316" type="curve" smooth="yes"/>
      <point x="334" y="316"/>
      <point x="302" y="291"/>
      <point x="302" y="254" type="curve" smooth="yes"/>
      <point x="302" y="226"/>
      <point x="320" y="210"/>
    </contour>
    <contour>
      <point x="320" y="97" type="curve" smooth="yes"/>
      <point x="418" y="97"/>
      <point x="520" y="171"/>
      <point x="520" y="296" type="curve" smooth="yes"/>
      <point x="520" y="381"/>
      <point x="461" y="431"/>
      <point x="387" y="431" type="curve" smooth="yes"/>
      <point x="289" y="431"/>
      <point x="186" y="355"/>
      <point x="186" y="232" type="curve" smooth="yes"/>
      <point x="186" y="145"/>
      <point x="246" y="97"/>
    </contour>
    <contour>
      <point x="325" y="124" type="curve" smooth="yes"/>
      <point x="268" y="124"/>
      <point x="217" y="163"/>
      <point x="217" y="236" type="curve" smooth="yes"/>
      <point x="217" y="345"/>
      <point x="306" y="404"/>
      <point x="381" y="404" type="curve" smooth="yes"/>
      <point x="439" y="404"/>
      <point x="489" y="365"/>
      <point x="489" y="292" type="curve" smooth="yes"/>
      <point x="489" y="183"/>
      <point x="401" y="124"/>
    </contour>
  </outline>
</glyph>
<glyph name="fullblock.001" format="1">
  <advance width="600"/>
  <outline>
    <contour>
      <point x="-40" y="-200" type="line"/>
      <point x="560" y="-200" type="line"/>
      <point x="760" y="800" type="line"/>
      <point x="160" y="800" type="line"/>
    </contour>
  </outline>
</glyph>
<glyph name="g.supa" format="1">
  <advance width="599"/>
  <outline>
    <contour>
      <point x="216" y="167" type="curve"/>
      <point x="198" y="143" type="line"/>
      <point x="228" y="122"/>
      <point x="265" y="109"/>
      <point x="310" y="109" type="curve" smooth="yes"/>
      <point x="396" y="109"/>
      <point x="457" y="157"/>
      <point x="472" y="233" type="curve" smooth="yes"/>
      <point x="540" y="577" type="line"/>
      <point x="514" y="577" type="line"/>
      <point x="504" y="548" type="line"/>
      <point x="503" y="548" type="line"/>
      <point x="477" y="571"/>
      <point x="450" y="585"/>
      <point x="410" y="585" type="curve" smooth="yes"/>
      <point x="319" y="585"/>
      <point x="223" y="508"/>
      <point x="223" y="382" type="curve" smooth="yes"/>
      <point x="223" y="304"/>
      <point x="265" y="260"/>
      <point x="335" y="260" type="curve" smooth="yes"/>
      <point x="381" y="260"/>
      <point x="424" y="283"/>
      <point x="457" y="309" type="curve"/>
      <point x="442" y="237" type="line" smooth="yes"/>
      <point x="430" y="174"/>
      <point x="385" y="134"/>
      <point x="315" y="134" type="curve" smooth="yes"/>
      <point x="280" y="134"/>
      <point x="246" y="144"/>
    </contour>
    <contour>
      <point x="345" y="286" type="curve" smooth="yes"/>
      <point x="286" y="286"/>
      <point x="256" y="328"/>
      <point x="256" y="389" type="curve" smooth="yes"/>
      <point x="256" y="485"/>
      <point x="328" y="558"/>
      <point x="406" y="558" type="curve" smooth="yes"/>
      <point x="440" y="558"/>
      <point x="468" y="547"/>
      <point x="498" y="518" type="curve"/>
      <point x="463" y="339" type="line"/>
      <point x="420" y="305"/>
      <point x="382" y="286"/>
    </contour>
  </outline>
</glyph>
<glyph name="gravecmb" format="1">
  <advance width="599"/>
  <outline>
    <contour>
      <point x="440" y="572" type="line"/>
      <point x="466" y="572" type="line"/>
      <point x="400" y="705" type="line"/>
      <point x="363" y="705" type="line"/>
    </contour>
  </outline>
</glyph>
<glyph name="greater.001" format="1">
  <advance width="456"/>
  <outline>
    <contour>
      <point x="48" y="156" type="line"/>
      <point x="438" y="316" type="line"/>
      <point x="438" y="344" type="line"/>
      <point x="48" y="504" type="line"/>
      <point x="48" y="476" type="line"/>
      <point x="278" y="382" type="line"/>
      <point x="400" y="332" type="line"/>
      <point x="400" y="328" type="line"/>
      <point x="278" y="278" type="line"/>
      <point x="48" y="184" type="line"/>
    </contour>
  </outline>
</glyph>
<glyph name="greater.002" format="1">
  <advance width="600"/>
  <outline>
    <contour>
      <point x="545" y="347" type="line"/>
      <point x="235" y="601" type="line"/>
      <point x="228" y="568" type="line"/>
      <point x="513" y="334" type="line"/>
      <point x="512" y="330" type="line"/>
      <point x="134" y="96" type="line"/>
      <point x="127" y="63" type="line"/>
      <point x="539" y="317" type="line"/>
    </contour>
  </outline>
</glyph>
<glyph name="greaterequal.002" format="1">
  <advance width="600"/>
  <outline>
    <contour>
      <point x="99" y="0" type="line"/>
      <point x="502" y="0" type="line"/>
      <point x="507" y="26" type="line"/>
      <point x="104" y="26" type="line"/>
    </contour>
    <contour>
      <point x="571" y="348" type="line"/>
      <point x="201" y="511" type="line"/>
      <point x="195" y="481" type="line"/>
      <point x="418" y="386" type="line"/>
      <point x="539" y="333" type="line"/>
      <point x="538" y="329" type="line"/>
      <point x="396" y="277" type="line"/>
      <point x="135" y="182" type="line"/>
      <point x="129" y="152" type="line"/>
      <point x="564" y="314" type="line"/>
    </contour>
  </outline>
</glyph>
<glyph name="guarani" format="1">
  <advance width="600"/>
  <outline>
    <contour>
      <point x="452" y="635" type="line"/>
      <point x="480" y="635" type="line"/>
      <point x="503" y="750" type="line"/>
      <point x="475" y="750" type="line"/>
    </contour>
    <contour>
      <point x="323" y="-9" type="line"/>
      <point x="303" y="-110" type="line"/>
      <point x="332" y="-110" type="line"/>
      <point x="352" y="-9" type="line"/>
    </contour>
    <contour>
      <point x="152" y="233" type="curve" smooth="yes"/>
      <point x="152" y="85"/>
      <point x="218" y="-12"/>
      <point x="334" y="-12" type="curve" smooth="yes"/>
      <point x="406" y="-12"/>
      <point x="470" y="12"/>
      <point x="528" y="60" type="curve"/>
      <point x="577" y="305" type="line"/>
      <point x="399" y="305" type="line"/>
      <point x="394" y="279" type="line"/>
      <point x="544" y="279" type="line"/>
      <point x="503" y="71" type="line"/>
      <point x="469" y="40"/>
      <point x="404" y="14"/>
      <point x="341" y="14" type="curve" smooth="yes"/>
      <point x="237" y="14"/>
      <point x="183" y="102"/>
      <point x="183" y="233" type="curve" smooth="yes"/>
      <point x="183" y="454"/>
      <point x="300" y="626"/>
      <point x="478" y="626" type="curve" smooth="yes"/>
      <point x="534" y="626"/>
      <point x="573" y="598"/>
      <point x="600" y="556" type="curve"/>
      <point x="624" y="574" type="line"/>
      <point x="601" y="614"/>
      <point x="551" y="652"/>
      <point x="483" y="652" type="curve" smooth="yes"/>
      <point x="291" y="652"/>
      <point x="152" y="475"/>
    </contour>
  </outline>
</glyph>
<glyph name="heavydbldashhorzbxd.001" format="1">
  <advance width="599"/>
  <outline>
    <contour>
      <point x="129" y="273" type="line"/>
      <point x="279" y="273" type="line"/>
      <point x="290" y="327" type="line"/>
      <point x="140" y="327" type="line"/>
    </contour>
    <contour>
      <point x="429" y="273" type="line"/>
      <point x="579" y="273" type="line"/>
      <point x="590" y="327" type="line"/>
      <point x="440" y="327" type="line"/>
    </contour>
  </outline>
</glyph>
<glyph name="heavydbldashvertbxd.001" format="1">
  <advance width="600"/>
  <outline>
    <contour>
      <point x="258" y="-75" type="line"/>
      <point x="313" y="-75" type="line"/>
      <point x="363" y="175" type="line"/>
      <point x="308" y="175" type="line"/>
    </contour>
    <contour>
      <point x="358" y="425" type="line"/>
      <point x="413" y="425" type="line"/>
      <point x="463" y="675" type="line"/>
      <point x="408" y="675" type="line"/>
    </contour>
  </outline>
</glyph>
<glyph name="heavydnleftbxd.001" format="1">
  <advance width="600"/>
  <outline>
    <contour>
      <point x="41" y="273" type="line"/>
      <point x="327" y="273" type="line"/>
      <point x="193" y="-400" type="line"/>
      <point x="248" y="-400" type="line"/>
      <point x="393" y="327" type="line"/>
      <point x="52" y="327" type="line"/>
    </contour>
  </outline>
</glyph>
<glyph name="heavyleftlightrightbxd" format="1">
  <advance width="600"/>
  <outline>
    <contour>
      <point x="-15" y="270" type="line"/>
      <point x="315" y="270" type="line"/>
      <point x="315" y="285" type="line"/>
      <point x="615" y="285" type="line"/>
      <point x="615" y="315" type="line"/>
      <point x="315" y="315" type="line"/>
      <point x="315" y="330" type="line"/>
      <point x="-15" y="330" type="line"/>
    </contour>
  </outline>
</glyph>
<glyph name="heavyquaddashhorzbxd.001" format="1">
  <advance width="599"/>
  <outline>
    <contour>
      <point x="72" y="273" type="line"/>
      <point x="185" y="273" type="line"/>
      <point x="196" y="327" type="line"/>
      <point x="83" y="327" type="line"/>
    </contour>
    <contour>
      <point x="222" y="273" type="line"/>
      <point x="335" y="273" type="line"/>
      <point x="346" y="327" type="line"/>
      <point x="233" y="327" type="line"/>
    </contour>
    <contour>
      <point x="372" y="273" type="line"/>
      <point x="485" y="273" type="line"/>
      <point x="496" y="327" type="line"/>
      <point x="383" y="327" type="line"/>
    </contour>
    <contour>
      <point x="522" y="273" type="line"/>
      <point x="635" y="273" type="line"/>
      <point x="646" y="327" type="line"/>
      <point x="533" y="327" type="line"/>
    </contour>
  </outline>
</glyph>
<glyph name="heavyquaddashvertbxd.001" format="1">
  <advance width="600"/>
  <outline>
    <contour>
      <point x="239" y="-169" type="line"/>
      <point x="294" y="-169" type="line"/>
      <point x="331" y="19" type="line"/>
      <point x="277" y="19" type="line"/>
    </contour>
    <contour>
      <point x="289" y="81" type="line"/>
      <point x="344" y="81" type="line"/>
      <point x="381" y="269" type="line"/>
      <point x="327" y="269" type="line"/>
    </contour>
    <contour>
      <point x="339" y="331" type="line"/>
      <point x="394" y="331" type="line"/>
      <point x="431" y="519" type="line"/>
      <point x="376" y="519" type="line"/>
    </contour>
    <contour>
      <point x="389" y="581" type="line"/>
      <point x="444" y="581" type="line"/>
      <point x="481" y="769" type="line"/>
      <point x="426" y="769" type="line"/>
    </contour>
  </outline>
</glyph>
<glyph name="heavytrpldashhorzbxd.001" format="1">
  <advance width="599"/>
  <outline>
    <contour>
      <point x="87" y="273" type="line"/>
      <point x="221" y="273" type="line"/>
      <point x="232" y="327" type="line"/>
      <point x="98" y="327" type="line"/>
    </contour>
    <contour>
      <point x="287" y="273" type="line"/>
      <point x="421" y="273" type="line"/>
      <point x="432" y="327" type="line"/>
      <point x="298" y="327" type="line"/>
    </contour>
    <contour>
      <point x="487" y="273" type="line"/>
      <point x="621" y="273" type="line"/>
      <point x="632" y="327" type="line"/>
      <point x="498" y="327" type="line"/>
    </contour>
  </outline>
</glyph>
<glyph name="heavytrpldashvertbxd.001" format="1">
  <advance width="600"/>
  <outline>
    <contour>
      <point x="244" y="-145" type="line"/>
      <point x="299" y="-145" type="line"/>
      <point x="343" y="77" type="line"/>
      <point x="288" y="77" type="line"/>
    </contour>
    <contour>
      <point x="311" y="188" type="line"/>
      <point x="365" y="188" type="line"/>
      <point x="410" y="410" type="line"/>
      <point x="355" y="410" type="line"/>
    </contour>
    <contour>
      <point x="377" y="521" type="line"/>
      <point x="432" y="521" type="line"/>
      <point x="476" y="743" type="line"/>
      <point x="421" y="743" type="line"/>
    </contour>
  </outline>
</glyph>
<glyph name="heavyupbxd.001" format="1">
  <advance width="600"/>
  <outline>
    <contour>
      <point x="330" y="286" type="line"/>
      <point x="385" y="286" type="line"/>
      <point x="527" y="1000" type="line"/>
      <point x="473" y="1000" type="line"/>
    </contour>
  </outline>
</glyph>
<glyph name="heavyuplightdnbxd.001" format="1">
  <advance width="599"/>
  <outline>
    <contour>
      <point x="329" y="286" type="line"/>
      <point x="343" y="286" type="line"/>
      <point x="206" y="-400" type="line"/>
      <point x="233" y="-400" type="line"/>
      <point x="371" y="286" type="line"/>
      <point x="384" y="286" type="line"/>
      <point x="527" y="1000" type="line"/>
      <point x="472" y="1000" type="line"/>
    </contour>
  </outline>
</glyph>
<glyph name="heavyuprightbxd.001" format="1">
  <advance width="599"/>
  <outline>
    <contour>
      <point x="327" y="273" type="line"/>
      <point x="668" y="273" type="line"/>
      <point x="679" y="327" type="line"/>
      <point x="393" y="327" type="line"/>
      <point x="527" y="1000" type="line"/>
      <point x="472" y="1000" type="line"/>
    </contour>
  </outline>
</glyph>
<glyph name="heavyvertbxd.001" format="1">
  <advance width="600"/>
  <outline>
    <contour>
      <point x="193" y="-400" type="line"/>
      <point x="248" y="-400" type="line"/>
      <point x="528" y="1000" type="line"/>
      <point x="473" y="1000" type="line"/>
    </contour>
  </outline>
</glyph>
<glyph name="hoicmb.cap" format="1">
  <advance width="599"/>
  <outline>
    <contour>
      <point x="422" y="836" type="line"/>
      <point x="482" y="830"/>
      <point x="496" y="816"/>
      <point x="496" y="790" type="curve" smooth="yes"/>
      <point x="496" y="758"/>
      <point x="468" y="740"/>
      <point x="414" y="722" type="curve"/>
      <point x="422" y="702" type="line"/>
      <point x="480" y="720"/>
      <point x="522" y="746"/>
      <point x="522" y="796" type="curve" smooth="yes"/>
      <point x="522" y="828"/>
      <point x="494" y="854"/>
      <point x="426" y="858" type="curve"/>
    </contour>
  </outline>
</glyph>
<glyph name="hoicmb" format="1">
  <advance width="599"/>
  <outline>
    <contour>
      <point x="390" y="684" type="line"/>
      <point x="450" y="678"/>
      <point x="464" y="664"/>
      <point x="464" y="638" type="curve" smooth="yes"/>
      <point x="464" y="606"/>
      <point x="436" y="588"/>
      <point x="382" y="570" type="curve"/>
      <point x="390" y="550" type="line"/>
      <point x="448" y="568"/>
      <point x="490" y="594"/>
      <point x="490" y="644" type="curve" smooth="yes"/>
      <point x="490" y="676"/>
      <point x="462" y="702"/>
      <point x="394" y="706" type="curve"/>
    </contour>
  </outline>
</glyph>
<glyph name="hungarumlautcmb.cap" format="1">
  <advance width="599"/>
  <outline>
    <contour>
      <point x="360" y="710" type="line"/>
      <point x="386" y="710" type="line"/>
      <point x="484" y="814" type="line"/>
      <point x="450" y="814" type="line"/>
    </contour>
    <contour>
      <point x="492" y="710" type="line"/>
      <point x="518" y="710" type="line"/>
      <point x="616" y="814" type="line"/>
      <point x="582" y="814" type="line"/>
    </contour>
  </outline>
</glyph>
<glyph name="hungarumlautcmb" format="1">
  <advance width="600"/>
  <outline>
    <contour>
      <point x="336" y="570" type="line"/>
      <point x="362" y="570" type="line"/>
      <point x="478" y="706" type="line"/>
      <point x="440" y="706" type="line"/>
    </contour>
    <contour>
      <point x="460" y="570" type="line"/>
      <point x="486" y="570" type="line"/>
      <point x="602" y="706" type="line"/>
      <point x="564" y="706" type="line"/>
    </contour>
  </outline>
</glyph>
<glyph name="i.sups" format="1">
  <advance width="599"/>
  <outline>
    <contour>
      <point x="290" y="551" type="line"/>
      <point x="445" y="551" type="line"/>
      <point x="387" y="260" type="line"/>
      <point x="416" y="260" type="line"/>
      <point x="479" y="577" type="line"/>
      <point x="295" y="577" type="line"/>
    </contour>
    <contour>
      <point x="479" y="653" type="curve" smooth="yes"/>
      <point x="499" y="653"/>
      <point x="517" y="668"/>
      <point x="517" y="691" type="curve" smooth="yes"/>
      <point x="517" y="707"/>
      <point x="507" y="717"/>
      <point x="492" y="717" type="curve" smooth="yes"/>
      <point x="471" y="717"/>
      <point x="453" y="701"/>
      <point x="453" y="679" type="curve" smooth="yes"/>
      <point x="453" y="663"/>
      <point x="463" y="653"/>
    </contour>
  </outline>
</glyph>
<glyph name="infinity.001" format="1">
  <advance width="728"/>
  <outline>
    <contour>
      <point x="158" y="190" type="curve" smooth="yes"/>
      <point x="242" y="190"/>
      <point x="292" y="256"/>
      <point x="326" y="302" type="curve"/>
      <point x="330" y="302" type="line"/>
      <point x="386" y="232"/>
      <point x="440" y="178"/>
      <point x="522" y="178" type="curve" smooth="yes"/>
      <point x="610" y="178"/>
      <point x="672" y="244"/>
      <point x="672" y="332" type="curve" smooth="yes"/>
      <point x="672" y="424"/>
      <point x="610" y="484"/>
      <point x="520" y="484" type="curve" smooth="yes"/>
      <point x="436" y="484"/>
      <point x="386" y="422"/>
      <point x="334" y="356" type="curve"/>
      <point x="330" y="356" type="line"/>
      <point x="296" y="402"/>
      <point x="243" y="470"/>
      <point x="164" y="470" type="curve" smooth="yes"/>
      <point x="86" y="470"/>
      <point x="22" y="416"/>
      <point x="22" y="330" type="curve" smooth="yes"/>
      <point x="22" y="248"/>
      <point x="86" y="190"/>
    </contour>
    <contour>
      <point x="346" y="330" type="curve"/>
      <point x="400" y="406"/>
      <point x="454" y="460"/>
      <point x="518" y="460" type="curve" smooth="yes"/>
      <point x="596" y="460"/>
      <point x="644" y="403"/>
      <point x="644" y="330" type="curve" smooth="yes"/>
      <point x="644" y="260"/>
      <point x="598" y="206"/>
      <point x="524" y="206" type="curve" smooth="yes"/>
      <point x="462" y="206"/>
      <point x="410" y="242"/>
    </contour>
    <contour>
      <point x="162" y="214" type="curve" smooth="yes"/>
      <point x="104" y="214"/>
      <point x="50" y="262"/>
      <point x="50" y="332" type="curve" smooth="yes"/>
      <point x="50" y="402"/>
      <point x="102" y="444"/>
      <point x="162" y="444" type="curve" smooth="yes"/>
      <point x="218" y="444"/>
      <point x="266" y="398"/>
      <point x="314" y="330" type="curve"/>
      <point x="276" y="270"/>
      <point x="224" y="214"/>
    </contour>
  </outline>
</glyph>
<glyph name="infinity.002" format="1">
  <advance width="599"/>
  <outline>
    <contour>
      <point x="168" y="189" type="curve" smooth="yes"/>
      <point x="243" y="189"/>
      <point x="303" y="256"/>
      <point x="341" y="302" type="curve"/>
      <point x="345" y="302" type="line"/>
      <point x="378" y="222"/>
      <point x="415" y="175"/>
      <point x="489" y="175" type="curve" smooth="yes"/>
      <point x="588" y="175"/>
      <point x="666" y="263"/>
      <point x="666" y="364" type="curve" smooth="yes"/>
      <point x="666" y="437"/>
      <point x="622" y="487"/>
      <point x="547" y="487" type="curve" smooth="yes"/>
      <point x="472" y="487"/>
      <point x="407" y="426"/>
      <point x="355" y="356" type="curve"/>
      <point x="351" y="356" type="line"/>
      <point x="332" y="412"/>
      <point x="299" y="471"/>
      <point x="230" y="471" type="curve" smooth="yes"/>
      <point x="149" y="471"/>
      <point x="67" y="402"/>
      <point x="67" y="304" type="curve" smooth="yes"/>
      <point x="67" y="237"/>
      <point x="110" y="189"/>
    </contour>
    <contour>
      <point x="365" y="332" type="curve"/>
      <point x="431" y="422"/>
      <point x="484" y="461"/>
      <point x="540" y="461" type="curve" smooth="yes"/>
      <point x="604" y="461"/>
      <point x="637" y="416"/>
      <point x="637" y="357" type="curve" smooth="yes"/>
      <point x="637" y="277"/>
      <point x="580" y="205"/>
      <point x="497" y="205" type="curve" smooth="yes"/>
      <point x="442" y="205"/>
      <point x="402" y="233"/>
    </contour>
    <contour>
      <point x="176" y="215" type="curve" smooth="yes"/>
      <point x="131" y="215"/>
      <point x="96" y="252"/>
      <point x="96" y="309" type="curve" smooth="yes"/>
      <point x="96" y="392"/>
      <point x="154" y="441"/>
      <point x="222" y="441" type="curve" smooth="yes"/>
      <point x="270" y="441"/>
      <point x="303" y="407"/>
      <point x="330" y="328" type="curve"/>
      <point x="283" y="258"/>
      <point x="231" y="215"/>
    </contour>
  </outline>
</glyph>
<glyph name="k.sups" format="1">
  <advance width="599"/>
  <outline>
    <contour>
      <point x="265" y="260" type="line"/>
      <point x="295" y="260" type="line"/>
      <point x="313" y="348" type="line"/>
      <point x="421" y="434" type="line"/>
      <point x="517" y="260" type="line"/>
      <point x="552" y="260" type="line"/>
      <point x="445" y="454" type="line"/>
      <point x="594" y="577" type="line"/>
      <point x="558" y="577" type="line"/>
      <point x="322" y="387" type="line"/>
      <point x="321" y="387" type="line"/>
      <point x="390" y="734" type="line"/>
      <point x="360" y="734" type="line"/>
    </contour>
  </outline>
</glyph>
<glyph name="kturned" format="1">
  <advance width="600"/>
  <outline>
    <contour>
      <point x="564" y="478" type="line"/>
      <point x="537" y="478" type="line"/>
      <point x="510" y="341" type="line"/>
      <point x="332" y="200" type="line"/>
      <point x="165" y="478" type="line"/>
      <point x="132" y="478" type="line"/>
      <point x="306" y="184" type="line"/>
      <point x="71" y="0" type="line"/>
      <point x="108" y="0" type="line"/>
      <point x="498" y="305" type="line"/>
      <point x="502" y="305" type="line"/>
      <point x="397" y="-223" type="line"/>
      <point x="424" y="-223" type="line"/>
    </contour>
  </outline>
</glyph>
<glyph name="leftdnheavyrightuplightbxd.001" format="1">
  <advance width="600"/>
  <outline>
    <contour>
      <point x="41" y="273" type="line"/>
      <point x="327" y="273" type="line"/>
      <point x="193" y="-400" type="line"/>
      <point x="248" y="-400" type="line"/>
      <point x="385" y="286" type="line"/>
      <point x="671" y="286" type="line"/>
      <point x="677" y="314" type="line"/>
      <point x="390" y="314" type="line"/>
      <point x="393" y="327" type="line"/>
      <point x="379" y="327" type="line"/>
      <point x="514" y="1000" type="line"/>
      <point x="486" y="1000" type="line"/>
      <point x="352" y="327" type="line"/>
      <point x="52" y="327" type="line"/>
    </contour>
  </outline>
</glyph>
<glyph name="lefteighthblock.001" format="1">
  <advance width="599"/>
  <outline>
    <contour>
      <point x="-40" y="-200" type="line"/>
      <point x="35" y="-200" type="line"/>
      <point x="235" y="800" type="line"/>
      <point x="160" y="800" type="line"/>
    </contour>
  </outline>
</glyph>
<glyph name="leftlightrightdnheavybxd.001" format="1">
  <advance width="600"/>
  <outline>
    <contour>
      <point x="44" y="286" type="line"/>
      <point x="330" y="286" type="line"/>
      <point x="193" y="-400" type="line"/>
      <point x="248" y="-400" type="line"/>
      <point x="382" y="273" type="line"/>
      <point x="669" y="273" type="line"/>
      <point x="680" y="327" type="line"/>
      <point x="339" y="327" type="line"/>
      <point x="336" y="314" type="line"/>
      <point x="49" y="314" type="line"/>
    </contour>
  </outline>
</glyph>
<glyph name="leftquarterblock.001" format="1">
  <advance width="599"/>
  <outline>
    <contour>
      <point x="-40" y="-200" type="line"/>
      <point x="110" y="-200" type="line"/>
      <point x="310" y="800" type="line"/>
      <point x="160" y="800" type="line"/>
    </contour>
  </outline>
</glyph>
<glyph name="leftthreeeighthsblock" format="1">
  <advance width="600"/>
  <outline>
    <contour>
      <point x="0" y="-200" type="line"/>
      <point x="225" y="-200" type="line"/>
      <point x="225" y="800" type="line"/>
      <point x="0" y="800" type="line"/>
    </contour>
  </outline>
</glyph>
<glyph name="leftthreequartersblock.001" format="1">
  <advance width="600"/>
  <outline>
    <contour>
      <point x="-40" y="-200" type="line"/>
      <point x="410" y="-200" type="line"/>
      <point x="610" y="800" type="line"/>
      <point x="160" y="800" type="line"/>
    </contour>
  </outline>
</glyph>
<glyph name="less.002" format="1">
  <advance width="600"/>
  <outline>
    <contour>
      <point x="188" y="317" type="line"/>
      <point x="499" y="63" type="line"/>
      <point x="505" y="96" type="line"/>
      <point x="220" y="330" type="line"/>
      <point x="221" y="334" type="line"/>
      <point x="600" y="568" type="line"/>
      <point x="606" y="601" type="line"/>
      <point x="194" y="347" type="line"/>
    </contour>
  </outline>
</glyph>
<glyph name="lessequal.001" format="1">
  <advance width="456"/>
  <outline>
    <contour>
      <point x="436" y="0" type="line"/>
      <point x="436" y="26" type="line"/>
      <point x="48" y="26" type="line"/>
      <point x="48" y="0" type="line"/>
    </contour>
    <contour>
      <point x="46" y="316" type="line"/>
      <point x="436" y="156" type="line"/>
      <point x="436" y="184" type="line"/>
      <point x="206" y="278" type="line"/>
      <point x="84" y="328" type="line"/>
      <point x="84" y="332" type="line"/>
      <point x="206" y="382" type="line"/>
      <point x="436" y="476" type="line"/>
      <point x="436" y="504" type="line"/>
      <point x="46" y="344" type="line"/>
    </contour>
  </outline>
</glyph>
<glyph name="lessequal.002" format="1">
  <advance width="600"/>
  <outline>
    <contour>
      <point x="99" y="0" type="line"/>
      <point x="502" y="0" type="line"/>
      <point x="507" y="26" type="line"/>
      <point x="104" y="26" type="line"/>
    </contour>
    <contour>
      <point x="162" y="314" type="line"/>
      <point x="532" y="152" type="line"/>
      <point x="538" y="182" type="line"/>
      <point x="315" y="277" type="line"/>
      <point x="194" y="329" type="line"/>
      <point x="195" y="333" type="line"/>
      <point x="337" y="386" type="line"/>
      <point x="598" y="481" type="line"/>
      <point x="604" y="511" type="line"/>
      <point x="169" y="348" type="line"/>
    </contour>
  </outline>
</glyph>
<glyph name="lightarcdnleftbxd.001" format="1">
  <advance width="600"/>
  <outline>
    <contour>
      <point x="314" y="0" type="line" smooth="yes"/>
      <point x="349" y="173"/>
      <point x="236" y="314"/>
      <point x="63" y="314" type="curve" smooth="yes"/>
      <point x="49" y="314" type="line"/>
      <point x="44" y="286" type="line"/>
      <point x="58" y="286" type="line" smooth="yes"/>
      <point x="215" y="286"/>
      <point x="318" y="158"/>
      <point x="287" y="0" type="curve" smooth="yes"/>
      <point x="207" y="-400" type="line"/>
      <point x="234" y="-400" type="line"/>
    </contour>
  </outline>
</glyph>
<glyph name="lightarcdnrightbxd.001" format="1">
  <advance width="599"/>
  <outline>
    <contour>
      <point x="206" y="-400" type="line"/>
      <point x="233" y="-400" type="line"/>
      <point x="313" y="0" type="line" smooth="yes"/>
      <point x="345" y="158"/>
      <point x="499" y="286"/>
      <point x="657" y="286" type="curve" smooth="yes"/>
      <point x="671" y="286" type="line"/>
      <point x="676" y="314" type="line"/>
      <point x="662" y="314" type="line" smooth="yes"/>
      <point x="489" y="314"/>
      <point x="321" y="173"/>
      <point x="286" y="0" type="curve" smooth="yes"/>
    </contour>
  </outline>
</glyph>
<glyph name="lightarcupleftbxd.001" format="1">
  <advance width="600"/>
  <outline>
    <contour>
      <point x="514" y="1000" type="line"/>
      <point x="487" y="1000" type="line"/>
      <point x="407" y="600" type="line" smooth="yes"/>
      <point x="375" y="442"/>
      <point x="221" y="314"/>
      <point x="63" y="314" type="curve" smooth="yes"/>
      <point x="49" y="314" type="line"/>
      <point x="44" y="286" type="line"/>
      <point x="58" y="286" type="line" smooth="yes"/>
      <point x="231" y="286"/>
      <point x="399" y="427"/>
      <point x="434" y="600" type="curve" smooth="yes"/>
    </contour>
  </outline>
</glyph>
<glyph name="lightarcupleftbxd" format="1">
  <advance width="600"/>
  <outline>
    <contour>
      <point x="315" y="1000" type="line"/>
      <point x="285" y="1000" type="line"/>
      <point x="285" y="600" type="line" smooth="yes"/>
      <point x="285" y="443"/>
      <point x="157" y="315"/>
      <point x="0" y="315" type="curve" smooth="yes"/>
      <point x="-15" y="315" type="line"/>
      <point x="-15" y="285" type="line"/>
      <point x="0" y="285" type="line" smooth="yes"/>
      <point x="174" y="285"/>
      <point x="315" y="426"/>
      <point x="315" y="600" type="curve" smooth="yes"/>
    </contour>
  </outline>
</glyph>
<glyph name="lightarcuprightbxd.001" format="1">
  <advance width="600"/>
  <outline>
    <contour>
      <point x="407" y="600" type="line" smooth="yes"/>
      <point x="372" y="427"/>
      <point x="484" y="286"/>
      <point x="658" y="286" type="curve" smooth="yes"/>
      <point x="671" y="286" type="line"/>
      <point x="677" y="314" type="line"/>
      <point x="663" y="314" type="line" smooth="yes"/>
      <point x="505" y="314"/>
      <point x="403" y="442"/>
      <point x="434" y="600" type="curve" smooth="yes"/>
      <point x="514" y="1000" type="line"/>
      <point x="487" y="1000" type="line"/>
    </contour>
  </outline>
</glyph>
<glyph name="lightdbldashhorzbxd.001" format="1">
  <advance width="599"/>
  <outline>
    <contour>
      <point x="132" y="286" type="line"/>
      <point x="282" y="286" type="line"/>
      <point x="287" y="314" type="line"/>
      <point x="137" y="314" type="line"/>
    </contour>
    <contour>
      <point x="432" y="286" type="line"/>
      <point x="582" y="286" type="line"/>
      <point x="587" y="314" type="line"/>
      <point x="437" y="314" type="line"/>
    </contour>
  </outline>
</glyph>
<glyph name="lightdbldashhorzbxd" format="1">
  <advance width="600"/>
  <outline>
    <contour>
      <point x="75" y="285" type="line"/>
      <point x="225" y="285" type="line"/>
      <point x="225" y="315" type="line"/>
      <point x="75" y="315" type="line"/>
    </contour>
    <contour>
      <point x="375" y="285" type="line"/>
      <point x="525" y="285" type="line"/>
      <point x="525" y="315" type="line"/>
      <point x="375" y="315" type="line"/>
    </contour>
  </outline>
</glyph>
<glyph name="lightdbldashvertbxd.001" format="1">
  <advance width="599"/>
  <outline>
    <contour>
      <point x="271" y="-75" type="line"/>
      <point x="298" y="-75" type="line"/>
      <point x="348" y="175" type="line"/>
      <point x="321" y="175" type="line"/>
    </contour>
    <contour>
      <point x="371" y="425" type="line"/>
      <point x="398" y="425" type="line"/>
      <point x="448" y="675" type="line"/>
      <point x="421" y="675" type="line"/>
    </contour>
  </outline>
</glyph>
<glyph name="lightdiagcrossbxd.001" format="1">
  <advance width="600"/>
  <outline>
    <contour>
      <point x="176" y="814" type="line"/>
      <point x="149" y="814" type="line"/>
      <point x="143" y="786" type="line"/>
      <point x="338" y="300" type="line"/>
      <point x="-51" y="-186" type="line"/>
      <point x="-56" y="-214" type="line"/>
      <point x="-29" y="-214" type="line"/>
      <point x="353" y="263" type="line"/>
      <point x="544" y="-214" type="line"/>
      <point x="571" y="-214" type="line"/>
      <point x="576" y="-186" type="line"/>
      <point x="382" y="300" type="line"/>
      <point x="771" y="786" type="line"/>
      <point x="776" y="814" type="line"/>
      <point x="749" y="814" type="line"/>
      <point x="367" y="337" type="line"/>
    </contour>
  </outline>
</glyph>
<glyph name="lightdiagupleftdnrightbxd.001" format="1">
  <advance width="600"/>
  <outline>
    <contour>
      <point x="176" y="814" type="line"/>
      <point x="148" y="814" type="line"/>
      <point x="143" y="786" type="line"/>
      <point x="543" y="-214" type="line"/>
      <point x="571" y="-214" type="line"/>
      <point x="576" y="-186" type="line"/>
    </contour>
  </outline>
</glyph>
<glyph name="lightdiaguprightdnleftbxd.001" format="1">
  <advance width="600"/>
  <outline>
    <contour>
      <point x="-51" y="-186" type="line"/>
      <point x="-56" y="-214" type="line"/>
      <point x="-29" y="-214" type="line"/>
      <point x="771" y="786" type="line"/>
      <point x="776" y="814" type="line"/>
      <point x="749" y="814" type="line"/>
    </contour>
  </outline>
</glyph>
<glyph name="lightdnbxd.001" format="1">
  <advance width="600"/>
  <outline>
    <contour>
      <point x="206" y="-400" type="line"/>
      <point x="233" y="-400" type="line"/>
      <point x="376" y="314" type="line"/>
      <point x="349" y="314" type="line"/>
    </contour>
  </outline>
</glyph>
<glyph name="lightdnhorzbxd.001" format="1">
  <advance width="600"/>
  <outline>
    <contour>
      <point x="44" y="286" type="line"/>
      <point x="344" y="286" type="line"/>
      <point x="207" y="-400" type="line"/>
      <point x="234" y="-400" type="line"/>
      <point x="371" y="286" type="line"/>
      <point x="671" y="286" type="line"/>
      <point x="677" y="314" type="line"/>
      <point x="49" y="314" type="line"/>
    </contour>
  </outline>
</glyph>
<glyph name="lightdnrightbxd.001" format="1">
  <advance width="599"/>
  <outline>
    <contour>
      <point x="206" y="-400" type="line"/>
      <point x="233" y="-400" type="line"/>
      <point x="371" y="286" type="line"/>
      <point x="671" y="286" type="line"/>
      <point x="676" y="314" type="line"/>
      <point x="349" y="314" type="line"/>
    </contour>
  </outline>
</glyph>
<glyph name="lighthorzbxd.001" format="1">
  <advance width="600"/>
  <outline>
    <contour>
      <point x="44" y="286" type="line"/>
      <point x="671" y="286" type="line"/>
      <point x="677" y="314" type="line"/>
      <point x="49" y="314" type="line"/>
    </contour>
  </outline>
</glyph>
<glyph name="lightleftbxd.001" format="1">
  <advance width="600"/>
  <outline>
    <contour>
      <point x="44" y="286" type="line"/>
      <point x="371" y="286" type="line"/>
      <point x="377" y="314" type="line"/>
      <point x="49" y="314" type="line"/>
    </contour>
  </outline>
</glyph>
<glyph name="lightleftheavyrightbxd.001" format="1">
  <advance width="600"/>
  <outline>
    <contour>
      <point x="44" y="286" type="line"/>
      <point x="344" y="286" type="line"/>
      <point x="341" y="273" type="line"/>
      <point x="669" y="273" type="line"/>
      <point x="680" y="327" type="line"/>
      <point x="352" y="327" type="line"/>
      <point x="349" y="314" type="line"/>
      <point x="49" y="314" type="line"/>
    </contour>
  </outline>
</glyph>
<glyph name="lightquaddashhorzbxd.001" format="1">
  <advance width="599"/>
  <outline>
    <contour>
      <point x="75" y="286" type="line"/>
      <point x="188" y="286" type="line"/>
      <point x="193" y="314" type="line"/>
      <point x="80" y="314" type="line"/>
    </contour>
    <contour>
      <point x="225" y="286" type="line"/>
      <point x="338" y="286" type="line"/>
      <point x="343" y="314" type="line"/>
      <point x="230" y="314" type="line"/>
    </contour>
    <contour>
      <point x="375" y="286" type="line"/>
      <point x="488" y="286" type="line"/>
      <point x="493" y="314" type="line"/>
      <point x="380" y="314" type="line"/>
    </contour>
    <contour>
      <point x="525" y="286" type="line"/>
      <point x="638" y="286" type="line"/>
      <point x="643" y="314" type="line"/>
      <point x="530" y="314" type="line"/>
    </contour>
  </outline>
</glyph>
<glyph name="lightquaddashvertbxd.001" format="1">
  <advance width="600"/>
  <outline>
    <contour>
      <point x="253" y="-169" type="line"/>
      <point x="280" y="-169" type="line"/>
      <point x="318" y="19" type="line"/>
      <point x="291" y="19" type="line"/>
    </contour>
    <contour>
      <point x="303" y="81" type="line"/>
      <point x="330" y="81" type="line"/>
      <point x="368" y="269" type="line"/>
      <point x="341" y="269" type="line"/>
    </contour>
    <contour>
      <point x="353" y="331" type="line"/>
      <point x="380" y="331" type="line"/>
      <point x="418" y="519" type="line"/>
      <point x="390" y="519" type="line"/>
    </contour>
    <contour>
      <point x="403" y="581" type="line"/>
      <point x="430" y="581" type="line"/>
      <point x="468" y="769" type="line"/>
      <point x="440" y="769" type="line"/>
    </contour>
  </outline>
</glyph>
<glyph name="lightshade.001" format="1">
  <advance width="600"/>
  <outline>
    <contour>
      <point x="-40" y="-200" type="line"/>
      <point x="-10" y="-200" type="line"/>
      <point x="-30" y="-150" type="line"/>
    </contour>
    <contour>
      <point x="260" y="-200" type="line"/>
      <point x="290" y="-200" type="line"/>
      <point x="70" y="350" type="line"/>
      <point x="60" y="300" type="line"/>
    </contour>
    <contour>
      <point x="560" y="-200" type="line"/>
      <point x="570" y="-150" type="line"/>
      <point x="190" y="800" type="line"/>
      <point x="160" y="800" type="line"/>
    </contour>
    <contour>
      <point x="660" y="300" type="line"/>
      <point x="670" y="350" type="line"/>
      <point x="490" y="800" type="line"/>
      <point x="460" y="800" type="line"/>
    </contour>
  </outline>
</glyph>
<glyph name="lighttrpldashhorzbxd.001" format="1">
  <advance width="599"/>
  <outline>
    <contour>
      <point x="90" y="286" type="line"/>
      <point x="224" y="286" type="line"/>
      <point x="229" y="314" type="line"/>
      <point x="95" y="314" type="line"/>
    </contour>
    <contour>
      <point x="290" y="286" type="line"/>
      <point x="424" y="286" type="line"/>
      <point x="429" y="314" type="line"/>
      <point x="295" y="314" type="line"/>
    </contour>
    <contour>
      <point x="490" y="286" type="line"/>
      <point x="624" y="286" type="line"/>
      <point x="629" y="314" type="line"/>
      <point x="495" y="314" type="line"/>
    </contour>
  </outline>
</glyph>
<glyph name="lighttrpldashvertbxd.001" format="1">
  <advance width="599"/>
  <outline>
    <contour>
      <point x="257" y="-145" type="line"/>
      <point x="284" y="-145" type="line"/>
      <point x="329" y="77" type="line"/>
      <point x="301" y="77" type="line"/>
    </contour>
    <contour>
      <point x="324" y="188" type="line"/>
      <point x="351" y="188" type="line"/>
      <point x="395" y="410" type="line"/>
      <point x="368" y="410" type="line"/>
    </contour>
    <contour>
      <point x="390" y="521" type="line"/>
      <point x="417" y="521" type="line"/>
      <point x="462" y="743" type="line"/>
      <point x="434" y="743" type="line"/>
    </contour>
  </outline>
</glyph>
<glyph name="lightupheavydnbxd.001" format="1">
  <advance width="599"/>
  <outline>
    <contour>
      <point x="193" y="-400" type="line"/>
      <point x="248" y="-400" type="line"/>
      <point x="390" y="314" type="line"/>
      <point x="377" y="314" type="line"/>
      <point x="514" y="1000" type="line"/>
      <point x="486" y="1000" type="line"/>
      <point x="349" y="314" type="line"/>
      <point x="336" y="314" type="line"/>
    </contour>
  </outline>
</glyph>
<glyph name="lightupleftbxd.001" format="1">
  <advance width="600"/>
  <outline>
    <contour>
      <point x="44" y="286" type="line"/>
      <point x="371" y="286" type="line"/>
      <point x="514" y="1000" type="line"/>
      <point x="487" y="1000" type="line"/>
      <point x="349" y="314" type="line"/>
      <point x="49" y="314" type="line"/>
    </contour>
  </outline>
</glyph>
<glyph name="lightuprightbxd.001" format="1">
  <advance width="600"/>
  <outline>
    <contour>
      <point x="344" y="286" type="line"/>
      <point x="671" y="286" type="line"/>
      <point x="677" y="314" type="line"/>
      <point x="377" y="314" type="line"/>
      <point x="514" y="1000" type="line"/>
      <point x="487" y="1000" type="line"/>
    </contour>
  </outline>
</glyph>
<glyph name="lightvertbxd.001" format="1">
  <advance width="599"/>
  <outline>
    <contour>
      <point x="206" y="-400" type="line"/>
      <point x="233" y="-400" type="line"/>
      <point x="513" y="1000" type="line"/>
      <point x="486" y="1000" type="line"/>
    </contour>
  </outline>
</glyph>
<glyph name="lightvertrightbxd.001" format="1">
  <advance width="599"/>
  <outline>
    <contour>
      <point x="206" y="-400" type="line"/>
      <point x="233" y="-400" type="line"/>
      <point x="371" y="286" type="line"/>
      <point x="671" y="286" type="line"/>
      <point x="676" y="314" type="line"/>
      <point x="376" y="314" type="line"/>
      <point x="513" y="1000" type="line"/>
      <point x="486" y="1000" type="line"/>
    </contour>
  </outline>
</glyph>
<glyph name="lozenge.001" format="1">
  <advance width="600"/>
  <outline>
    <contour>
      <point x="279" y="-10" type="line"/>
      <point x="317" y="-10" type="line"/>
      <point x="551" y="330" type="line"/>
      <point x="453" y="670" type="line"/>
      <point x="415" y="670" type="line"/>
      <point x="181" y="330" type="line"/>
    </contour>
    <contour>
      <point x="301" y="14" type="line"/>
      <point x="259" y="156" type="line"/>
      <point x="213" y="330" type="line"/>
      <point x="328" y="502" type="line"/>
      <point x="427" y="646" type="line"/>
      <point x="431" y="646" type="line"/>
      <point x="473" y="502" type="line"/>
      <point x="519" y="330" type="line"/>
      <point x="404" y="156" type="line"/>
      <point x="305" y="14" type="line"/>
    </contour>
  </outline>
</glyph>
<glyph name="macroncmb.cap" format="1">
  <advance width="599"/>
  <outline>
    <contour>
      <point x="344" y="746" type="line"/>
      <point x="554" y="746" type="line"/>
      <point x="560" y="772" type="line"/>
      <point x="350" y="772" type="line"/>
    </contour>
  </outline>
</glyph>
<glyph name="minus.001" format="1">
  <advance width="456"/>
  <outline>
    <contour>
      <point x="436" y="318" type="line"/>
      <point x="436" y="344" type="line"/>
      <point x="48" y="344" type="line"/>
      <point x="48" y="318" type="line"/>
    </contour>
  </outline>
</glyph>
<glyph name="mturned" format="1">
  <advance width="599"/>
  <outline>
    <contour>
      <point x="614" y="478" type="line"/>
      <point x="587" y="478" type="line"/>
      <point x="513" y="111" type="line"/>
      <point x="466" y="46"/>
      <point x="429" y="14"/>
      <point x="381" y="14" type="curve" smooth="yes"/>
      <point x="330" y="14"/>
      <point x="313" y="54"/>
      <point x="329" y="133" type="curve" smooth="yes"/>
      <point x="398" y="478" type="line"/>
      <point x="370" y="478" type="line"/>
      <point x="296" y="111" type="line"/>
      <point x="249" y="46"/>
      <point x="212" y="14"/>
      <point x="165" y="14" type="curve" smooth="yes"/>
      <point x="114" y="14"/>
      <point x="96" y="54"/>
      <point x="112" y="133" type="curve" smooth="yes"/>
      <point x="181" y="478" type="line"/>
      <point x="154" y="478" type="line"/>
      <point x="84" y="130" type="line" smooth="yes"/>
      <point x="65" y="34"/>
      <point x="93" y="-12"/>
      <point x="159" y="-12" type="curve" smooth="yes"/>
      <point x="212" y="-12"/>
      <point x="246" y="18"/>
      <point x="295" y="74" type="curve"/>
      <point x="297" y="16"/>
      <point x="321" y="-12"/>
      <point x="375" y="-12" type="curve" smooth="yes"/>
      <point x="428" y="-12"/>
      <point x="463" y="18"/>
      <point x="502" y="66" type="curve"/>
      <point x="504" y="66" type="line"/>
      <point x="494" y="0" type="line"/>
      <point x="518" y="0" type="line"/>
    </contour>
  </outline>
</glyph>
<glyph name="mu.math" format="1">
  <advance width="599"/>
  <outline>
    <contour>
      <point x="55" y="-180" type="line"/>
      <point x="82" y="-180" type="line"/>
      <point x="95" y="-93"/>
      <point x="103" y="-55"/>
      <point x="127" y="65" type="curve"/>
      <point x="149" y="2"/>
      <point x="199" y="-12"/>
      <point x="264" y="-12" type="curve" smooth="yes"/>
      <point x="336" y="-12"/>
      <point x="411" y="26"/>
      <point x="482" y="113" type="curve"/>
      <point x="484" y="113" type="line"/>
      <point x="466" y="23"/>
      <point x="466" y="-12"/>
      <point x="506" y="-12" type="curve" smooth="yes"/>
      <point x="516" y="-12"/>
      <point x="523" y="-10"/>
      <point x="531" y="-8" type="curve"/>
      <point x="530" y="16" type="line"/>
      <point x="520" y="14"/>
      <point x="516" y="14"/>
      <point x="512" y="14" type="curve" smooth="yes"/>
      <point x="502" y="14"/>
      <point x="495" y="21"/>
      <point x="495" y="36" type="curve" smooth="yes"/>
      <point x="495" y="38"/>
      <point x="345" y="-687"/>
      <point x="585" y="478" type="curve"/>
      <point x="558" y="478" type="line"/>
      <point x="493" y="153" type="line"/>
      <point x="394" y="29"/>
      <point x="326" y="14"/>
      <point x="265" y="14" type="curve" smooth="yes"/>
      <point x="162" y="14"/>
      <point x="134" y="79"/>
      <point x="155" y="183" type="curve" smooth="yes"/>
      <point x="213" y="478" type="line"/>
      <point x="186" y="478" type="line"/>
    </contour>
  </outline>
</glyph>
<glyph name="multiply.001" format="1">
  <advance width="456"/>
  <outline>
    <contour>
      <point x="242" y="314" type="line"/>
      <point x="400" y="148" type="line"/>
      <point x="418" y="166" type="line"/>
      <point x="260" y="332" type="line"/>
      <point x="418" y="496" type="line"/>
      <point x="400" y="514" type="line"/>
      <point x="242" y="350" type="line"/>
      <point x="84" y="514" type="line"/>
      <point x="66" y="496" type="line"/>
      <point x="224" y="332" type="line"/>
      <point x="66" y="166" type="line"/>
      <point x="84" y="148" type="line"/>
    </contour>
  </outline>
</glyph>
<glyph name="naira" format="1">
  <advance width="600"/>
  <outline>
    <contour>
      <point x="141" y="0" type="line"/>
      <point x="172" y="0" type="line"/>
      <point x="246" y="375" type="line"/>
      <point x="285" y="596" type="line"/>
      <point x="289" y="596" type="line"/>
      <point x="328" y="420" type="line"/>
      <point x="420" y="0" type="line"/>
      <point x="459" y="0" type="line"/>
      <point x="587" y="640" type="line"/>
      <point x="557" y="640" type="line"/>
      <point x="482" y="265" type="line"/>
      <point x="443" y="44" type="line"/>
      <point x="439" y="44" type="line"/>
      <point x="401" y="222" type="line"/>
      <point x="309" y="640" type="line"/>
      <point x="269" y="640" type="line"/>
    </contour>
    <contour>
      <point x="132" y="344" type="line"/>
      <point x="602" y="344" type="line"/>
      <point x="608" y="371" type="line"/>
      <point x="216" y="371" type="line"/>
      <point x="137" y="367" type="line"/>
    </contour>
    <contour>
      <point x="112" y="244" type="line"/>
      <point x="582" y="244" type="line"/>
      <point x="588" y="274" type="line"/>
      <point x="196" y="274" type="line"/>
      <point x="117" y="270" type="line"/>
    </contour>
  </outline>
</glyph>
<glyph name="notequal.001" format="1">
  <advance width="456"/>
  <outline>
    <contour>
      <point x="436" y="218" type="line"/>
      <point x="436" y="244" type="line"/>
      <point x="204" y="244" type="line"/>
      <point x="310" y="416" type="line"/>
      <point x="436" y="416" type="line"/>
      <point x="436" y="442" type="line"/>
      <point x="324" y="442" type="line"/>
      <point x="406" y="572" type="line"/>
      <point x="376" y="572" type="line"/>
      <point x="294" y="442" type="line"/>
      <point x="48" y="442" type="line"/>
      <point x="48" y="416" type="line"/>
      <point x="280" y="416" type="line"/>
      <point x="174" y="244" type="line"/>
      <point x="48" y="244" type="line"/>
      <point x="48" y="218" type="line"/>
      <point x="160" y="218" type="line"/>
      <point x="78" y="88" type="line"/>
      <point x="108" y="88" type="line"/>
      <point x="190" y="218" type="line"/>
    </contour>
  </outline>
</glyph>
<glyph name="o.sups" format="1">
  <advance width="600"/>
  <outline>
    <contour>
      <point x="230" y="383" type="curve" smooth="yes"/>
      <point x="230" y="301"/>
      <point x="281" y="252"/>
      <point x="351" y="252" type="curve" smooth="yes"/>
      <point x="446" y="252"/>
      <point x="538" y="329"/>
      <point x="538" y="453" type="curve" smooth="yes"/>
      <point x="538" y="536"/>
      <point x="487" y="585"/>
      <point x="417" y="585" type="curve" smooth="yes"/>
      <point x="323" y="585"/>
      <point x="230" y="507"/>
    </contour>
    <contour>
      <point x="262" y="388" type="curve" smooth="yes"/>
      <point x="262" y="484"/>
      <point x="332" y="559"/>
      <point x="412" y="559" type="curve" smooth="yes"/>
      <point x="470" y="559"/>
      <point x="506" y="513"/>
      <point x="506" y="448" type="curve" smooth="yes"/>
      <point x="506" y="351"/>
      <point x="437" y="279"/>
      <point x="356" y="279" type="curve" smooth="yes"/>
      <point x="298" y="279"/>
      <point x="262" y="323"/>
    </contour>
  </outline>
</glyph>
<glyph name="ogonekcmb.cap" format="1">
  <advance width="599"/>
  <outline>
    <contour>
      <point x="323" y="4" type="line"/>
      <point x="272" y="-31"/>
      <point x="226" y="-83"/>
      <point x="226" y="-139" type="curve" smooth="yes"/>
      <point x="226" y="-181"/>
      <point x="254" y="-201"/>
      <point x="291" y="-201" type="curve" smooth="yes"/>
      <point x="311" y="-201"/>
      <point x="339" y="-192"/>
      <point x="355" y="-180" type="curve"/>
      <point x="345" y="-161" type="line"/>
      <point x="329" y="-171"/>
      <point x="316" y="-175"/>
      <point x="298" y="-175" type="curve" smooth="yes"/>
      <point x="275" y="-175"/>
      <point x="255" y="-160"/>
      <point x="255" y="-131" type="curve" smooth="yes"/>
      <point x="255" y="-87"/>
      <point x="294" y="-35"/>
      <point x="358" y="4" type="curve"/>
    </contour>
  </outline>
</glyph>
<glyph name="one.dnom" format="1">
  <advance width="599"/>
  <outline>
    <contour>
      <point x="301" y="0" type="line"/>
      <point x="327" y="0" type="line"/>
      <point x="387" y="300" type="line"/>
      <point x="364" y="300" type="line"/>
      <point x="338" y="286"/>
      <point x="312" y="276"/>
      <point x="273" y="269" type="curve"/>
      <point x="268" y="246" type="line"/>
      <point x="350" y="246" type="line"/>
    </contour>
  </outline>
</glyph>
<glyph name="period.dnom" format="1">
  <advance width="600"/>
  <outline>
    <contour>
      <point x="273" y="18" type="curve" smooth="yes"/>
      <point x="273" y="1"/>
      <point x="283" y="-8"/>
      <point x="299" y="-8" type="curve" smooth="yes"/>
      <point x="319" y="-8"/>
      <point x="337" y="7"/>
      <point x="337" y="32" type="curve" smooth="yes"/>
      <point x="337" y="49"/>
      <point x="327" y="59"/>
      <point x="312" y="59" type="curve" smooth="yes"/>
      <point x="291" y="59"/>
      <point x="273" y="44"/>
    </contour>
  </outline>
</glyph>
<glyph name="plusminus.001" format="1">
  <advance width="456"/>
  <outline>
    <contour>
      <point x="228" y="110" type="line"/>
      <point x="256" y="110" type="line"/>
      <point x="256" y="318" type="line"/>
      <point x="436" y="318" type="line"/>
      <point x="436" y="344" type="line"/>
      <point x="256" y="344" type="line"/>
      <point x="256" y="546" type="line"/>
      <point x="228" y="546" type="line"/>
      <point x="228" y="344" type="line"/>
      <point x="48" y="344" type="line"/>
      <point x="48" y="318" type="line"/>
      <point x="228" y="318" type="line"/>
    </contour>
    <contour>
      <point x="436" y="0" type="line"/>
      <point x="436" y="26" type="line"/>
      <point x="48" y="26" type="line"/>
      <point x="48" y="0" type="line"/>
    </contour>
  </outline>
</glyph>
<glyph name="prime" format="1">
  <advance width="599"/>
  <outline>
    <contour>
      <point x="379" y="501" type="line"/>
      <point x="397" y="501" type="line"/>
      <point x="447" y="632" type="line"/>
      <point x="467" y="694" type="line"/>
      <point x="442" y="694" type="line"/>
    </contour>
  </outline>
</glyph>
<glyph name="rightdnheavyleftuplightbxd.001" format="1">
  <advance width="600"/>
  <outline>
    <contour>
      <point x="44" y="286" type="line"/>
      <point x="330" y="286" type="line"/>
      <point x="193" y="-400" type="line"/>
      <point x="248" y="-400" type="line"/>
      <point x="382" y="273" type="line"/>
      <point x="669" y="273" type="line"/>
      <point x="680" y="327" type="line"/>
      <point x="380" y="327" type="line"/>
      <point x="514" y="1000" type="line"/>
      <point x="487" y="1000" type="line"/>
      <point x="352" y="327" type="line"/>
      <point x="339" y="327" type="line"/>
      <point x="336" y="314" type="line"/>
      <point x="49" y="314" type="line"/>
    </contour>
  </outline>
</glyph>
<glyph name="righthalfblock.001" format="1">
  <advance width="599"/>
  <outline>
    <contour>
      <point x="260" y="-200" type="line"/>
      <point x="560" y="-200" type="line"/>
      <point x="760" y="800" type="line"/>
      <point x="460" y="800" type="line"/>
    </contour>
  </outline>
</glyph>
<glyph name="rightheavyleftuplightbxd.001" format="1">
  <advance width="600"/>
  <outline>
    <contour>
      <point x="44" y="286" type="line"/>
      <point x="344" y="286" type="line"/>
      <point x="341" y="273" type="line"/>
      <point x="669" y="273" type="line"/>
      <point x="680" y="327" type="line"/>
      <point x="380" y="327" type="line"/>
      <point x="514" y="1000" type="line"/>
      <point x="487" y="1000" type="line"/>
      <point x="349" y="314" type="line"/>
      <point x="49" y="314" type="line"/>
    </contour>
  </outline>
</glyph>
<glyph name="rightlightleftupheavybxd.001" format="1">
  <advance width="600"/>
  <outline>
    <contour>
      <point x="41" y="273" type="line"/>
      <point x="382" y="273" type="line"/>
      <point x="385" y="286" type="line"/>
      <point x="671" y="286" type="line"/>
      <point x="677" y="314" type="line"/>
      <point x="390" y="314" type="line"/>
      <point x="527" y="1000" type="line"/>
      <point x="473" y="1000" type="line"/>
      <point x="338" y="327" type="line"/>
      <point x="52" y="327" type="line"/>
    </contour>
  </outline>
</glyph>
<glyph name="rightupheavyleftdnlightbxd.001" format="1">
  <advance width="600"/>
  <outline>
    <contour>
      <point x="44" y="286" type="line"/>
      <point x="330" y="286" type="line"/>
      <point x="328" y="273" type="line"/>
      <point x="341" y="273" type="line"/>
      <point x="207" y="-400" type="line"/>
      <point x="234" y="-400" type="line"/>
      <point x="369" y="273" type="line"/>
      <point x="669" y="273" type="line"/>
      <point x="680" y="327" type="line"/>
      <point x="393" y="327" type="line"/>
      <point x="528" y="1000" type="line"/>
      <point x="473" y="1000" type="line"/>
      <point x="336" y="314" type="line"/>
      <point x="49" y="314" type="line"/>
    </contour>
  </outline>
</glyph>
<glyph name="ringcmb" format="1">
  <advance width="600"/>
  <outline>
    <contour>
      <point x="416" y="534" type="curve" smooth="yes"/>
      <point x="462" y="534"/>
      <point x="502" y="578"/>
      <point x="502" y="628" type="curve" smooth="yes"/>
      <point x="502" y="678"/>
      <point x="472" y="704"/>
      <point x="432" y="704" type="curve" smooth="yes"/>
      <point x="386" y="704"/>
      <point x="346" y="660"/>
      <point x="346" y="610" type="curve" smooth="yes"/>
      <point x="346" y="560"/>
      <point x="376" y="534"/>
    </contour>
    <contour>
      <point x="430" y="682" type="curve" smooth="yes"/>
      <point x="460" y="682"/>
      <point x="478" y="660"/>
      <point x="478" y="626" type="curve" smooth="yes"/>
      <point x="478" y="588"/>
      <point x="450" y="556"/>
      <point x="418" y="556" type="curve" smooth="yes"/>
      <point x="388" y="556"/>
      <point x="370" y="578"/>
      <point x="370" y="612" type="curve" smooth="yes"/>
      <point x="370" y="650"/>
      <point x="398" y="682"/>
    </contour>
  </outline>
</glyph>
<glyph name="seven.dnom" format="1">
  <advance width="599"/>
  <outline>
    <contour>
      <point x="269" y="0" type="curve"/>
      <point x="295" y="0" type="line"/>
      <point x="322" y="106"/>
      <point x="357" y="180"/>
      <point x="468" y="281" type="curve"/>
      <point x="472" y="300" type="line"/>
      <point x="247" y="300" type="line"/>
      <point x="242" y="275" type="line"/>
      <point x="432" y="275" type="line"/>
      <point x="342" y="189"/>
      <point x="299" y="115"/>
    </contour>
  </outline>
</glyph>
<glyph name="seven.onum" format="1">
  <advance width="599"/>
  <outline>
    <contour>
      <point x="239" y="-70" type="curve"/>
      <point x="273" y="-70" type="line"/>
      <point x="333" y="182"/>
      <point x="419" y="347"/>
      <point x="636" y="554" type="curve"/>
      <point x="639" y="570" type="line"/>
      <point x="190" y="570" type="line"/>
      <point x="185" y="544" type="line"/>
      <point x="595" y="544" type="line"/>
      <point x="401" y="356"/>
      <point x="303" y="197"/>
    </contour>
  </outline>
</glyph>
<glyph name="squareblack.001" format="1">
  <advance width="600"/>
  <outline>
    <contour>
      <point x="254" y="179" type="line"/>
      <point x="418" y="179" type="line"/>
      <point x="452" y="349" type="line"/>
      <point x="288" y="349" type="line"/>
    </contour>
  </outline>
</glyph>
<glyph name="squareshadow.001" format="1">
  <advance width="600"/>
  <outline>
    <contour>
      <point x="244" y="164" type="line"/>
      <point x="274" y="316" type="line"/>
      <point x="417" y="316" type="line"/>
      <point x="387" y="164" type="line"/>
    </contour>
    <contour>
      <point x="211" y="139" type="line"/>
      <point x="404" y="139" type="line"/>
      <point x="456" y="191" type="line"/>
      <point x="493" y="379" type="line"/>
      <point x="311" y="379" type="line"/>
      <point x="251" y="338" type="line"/>
    </contour>
  </outline>
</glyph>
<glyph name="squareshadow" format="1">
  <advance width="600"/>
  <outline>
    <contour>
      <point x="210" y="164" type="line"/>
      <point x="210" y="316" type="line"/>
      <point x="354" y="316" type="line"/>
      <point x="354" y="164" type="line"/>
    </contour>
    <contour>
      <point x="183" y="139" type="line"/>
      <point x="376" y="139" type="line"/>
      <point x="417" y="191" type="line"/>
      <point x="417" y="379" type="line"/>
      <point x="235" y="379" type="line"/>
      <point x="183" y="338" type="line"/>
    </contour>
  </outline>
</glyph>
<glyph name="triangleblackdown.001" format="1">
  <advance width="600"/>
  <outline>
    <contour>
      <point x="307" y="41" type="line"/>
      <point x="311" y="41" type="line"/>
      <point x="652" y="507" type="line"/>
      <point x="652" y="509" type="line"/>
      <point x="151" y="509" type="line"/>
      <point x="151" y="507" type="line"/>
    </contour>
  </outline>
</glyph>
<glyph name="triangleblackleft.001" format="1">
  <advance width="600"/>
  <outline>
    <contour>
      <point x="102" y="280" type="line"/>
      <point x="521" y="31" type="line"/>
      <point x="523" y="31" type="line"/>
      <point x="623" y="531" type="line"/>
      <point x="621" y="531" type="line"/>
      <point x="103" y="284" type="line"/>
    </contour>
  </outline>
</glyph>
<glyph name="triangleblackright" format="1">
  <advance width="600"/>
  <outline>
    <contour>
      <point x="84" y="31" type="line"/>
      <point x="86" y="31" type="line"/>
      <point x="555" y="280" type="line"/>
      <point x="555" y="284" type="line"/>
      <point x="86" y="531" type="line"/>
      <point x="84" y="531" type="line"/>
    </contour>
  </outline>
</glyph>
<glyph name="triangleblackup.001" format="1">
  <advance width="600"/>
  <outline>
    <contour>
      <point x="60" y="53" type="line"/>
      <point x="561" y="53" type="line"/>
      <point x="561" y="55" type="line"/>
      <point x="407" y="523" type="line"/>
      <point x="403" y="523" type="line"/>
      <point x="60" y="55" type="line"/>
    </contour>
  </outline>
</glyph>
<glyph name="trianglewhiteleft.001" format="1">
  <advance width="600"/>
  <outline>
    <contour>
      <point x="161" y="282" type="line"/>
      <point x="585" y="482" type="line"/>
      <point x="505" y="82" type="line"/>
    </contour>
    <contour>
      <point x="623" y="531" type="line"/>
      <point x="621" y="531" type="line"/>
      <point x="103" y="284" type="line"/>
      <point x="102" y="280" type="line"/>
      <point x="521" y="31" type="line"/>
      <point x="523" y="31" type="line"/>
    </contour>
  </outline>
</glyph>
<glyph name="trianglewhiteright.001" format="1">
  <advance width="600"/>
  <outline>
    <contour>
      <point x="129" y="82" type="line"/>
      <point x="209" y="482" type="line"/>
      <point x="552" y="282" type="line"/>
    </contour>
    <contour>
      <point x="90" y="31" type="line"/>
      <point x="92" y="31" type="line"/>
      <point x="611" y="280" type="line"/>
      <point x="611" y="284" type="line"/>
      <point x="192" y="531" type="line"/>
      <point x="190" y="531" type="line"/>
    </contour>
  </outline>
</glyph>
<glyph name="trianglewhiteup.001" format="1">
  <advance width="600"/>
  <outline>
    <contour>
      <point x="117" y="79" type="line"/>
      <point x="395" y="469" type="line"/>
      <point x="517" y="79" type="line"/>
    </contour>
    <contour>
      <point x="60" y="53" type="line"/>
      <point x="561" y="53" type="line"/>
      <point x="561" y="55" type="line"/>
      <point x="407" y="523" type="line"/>
      <point x="403" y="523" type="line"/>
      <point x="60" y="55" type="line"/>
    </contour>
  </outline>
</glyph>
<glyph name="tturned" format="1">
  <advance width="600"/>
  <outline>
    <contour>
      <point x="427" y="302" type="line" smooth="yes"/>
      <point x="449" y="414"/>
      <point x="427" y="490"/>
      <point x="300" y="490" type="curve" smooth="yes"/>
      <point x="257" y="490"/>
      <point x="196" y="478"/>
      <point x="150" y="459" type="curve"/>
      <point x="155" y="437" type="line"/>
      <point x="198" y="454"/>
      <point x="241" y="464"/>
      <point x="294" y="464" type="curve" smooth="yes"/>
      <point x="406" y="464"/>
      <point x="420" y="403"/>
      <point x="401" y="306" type="curve" smooth="yes"/>
      <point x="344" y="26" type="line"/>
      <point x="81" y="26" type="line"/>
      <point x="76" y="0" type="line"/>
      <point x="339" y="0" type="line"/>
      <point x="311" y="-140" type="line"/>
      <point x="335" y="-140" type="line"/>
      <point x="367" y="0" type="line"/>
      <point x="515" y="0" type="line"/>
      <point x="520" y="26" type="line"/>
      <point x="372" y="26" type="line"/>
    </contour>
  </outline>
</glyph>
<glyph name="two.onum" format="1">
  <advance width="600"/>
  <outline>
    <contour>
      <point x="86" y="0" type="line"/>
      <point x="511" y="0" type="line"/>
      <point x="516" y="26" type="line"/>
      <point x="263" y="26" type="line" smooth="yes"/>
      <point x="222" y="26"/>
      <point x="182" y="24"/>
      <point x="141" y="22" type="curve"/>
      <point x="409" y="188"/>
      <point x="559" y="307"/>
      <point x="559" y="436" type="curve" smooth="yes"/>
      <point x="559" y="525"/>
      <point x="503" y="582"/>
      <point x="397" y="582" type="curve" smooth="yes"/>
      <point x="313" y="582"/>
      <point x="242" y="539"/>
      <point x="182" y="488" type="curve"/>
      <point x="199" y="469" type="line"/>
      <point x="254" y="520"/>
      <point x="323" y="556"/>
      <point x="391" y="556" type="curve" smooth="yes"/>
      <point x="489" y="556"/>
      <point x="530" y="502"/>
      <point x="530" y="432" type="curve" smooth="yes"/>
      <point x="530" y="318"/>
      <point x="392" y="201"/>
      <point x="90" y="18" type="curve"/>
    </contour>
  </outline>
</glyph>
<glyph name="updblhorzsngbxd.001" format="1">
  <advance width="600"/>
  <outline>
    <contour>
      <point x="44" y="286" type="line"/>
      <point x="671" y="286" type="line"/>
      <point x="677" y="314" type="line"/>
      <point x="404" y="314" type="line"/>
      <point x="541" y="1000" type="line"/>
      <point x="514" y="1000" type="line"/>
      <point x="377" y="314" type="line"/>
      <point x="349" y="314" type="line"/>
      <point x="487" y="1000" type="line"/>
      <point x="459" y="1000" type="line"/>
      <point x="322" y="314" type="line"/>
      <point x="49" y="314" type="line"/>
    </contour>
  </outline>
</glyph>
<glyph name="updblrightsngbxd.001" format="1">
  <advance width="599"/>
  <outline>
    <contour>
      <point x="316" y="286" type="line"/>
      <point x="671" y="286" type="line"/>
      <point x="676" y="314" type="line"/>
      <point x="404" y="314" type="line"/>
      <point x="541" y="1000" type="line"/>
      <point x="513" y="1000" type="line"/>
      <point x="376" y="314" type="line"/>
      <point x="349" y="314" type="line"/>
      <point x="486" y="1000" type="line"/>
      <point x="459" y="1000" type="line"/>
    </contour>
  </outline>
</glyph>
<glyph name="upeighthblock.001" format="1">
  <advance width="600"/>
  <outline>
    <contour>
      <point x="135" y="675" type="line"/>
      <point x="735" y="675" type="line"/>
      <point x="760" y="800" type="line"/>
      <point x="160" y="800" type="line"/>
    </contour>
  </outline>
</glyph>
<glyph name="upheavyhorzlightbxd.001" format="1">
  <advance width="600"/>
  <outline>
    <contour>
      <point x="44" y="286" type="line"/>
      <point x="671" y="286" type="line"/>
      <point x="677" y="314" type="line"/>
      <point x="391" y="314" type="line"/>
      <point x="528" y="1000" type="line"/>
      <point x="473" y="1000" type="line"/>
      <point x="336" y="314" type="line"/>
      <point x="49" y="314" type="line"/>
    </contour>
  </outline>
</glyph>
<glyph name="upheavyleftdnlightbxd.001" format="1">
  <advance width="600"/>
  <outline>
    <contour>
      <point x="44" y="286" type="line"/>
      <point x="344" y="286" type="line"/>
      <point x="207" y="-400" type="line"/>
      <point x="234" y="-400" type="line"/>
      <point x="371" y="286" type="line"/>
      <point x="385" y="286" type="line"/>
      <point x="528" y="1000" type="line"/>
      <point x="473" y="1000" type="line"/>
      <point x="336" y="314" type="line"/>
      <point x="49" y="314" type="line"/>
    </contour>
  </outline>
</glyph>
<glyph name="upheavyrightlightbxd.001" format="1">
  <advance width="600"/>
  <outline>
    <contour>
      <point x="330" y="286" type="line"/>
      <point x="671" y="286" type="line"/>
      <point x="677" y="314" type="line"/>
      <point x="390" y="314" type="line"/>
      <point x="527" y="1000" type="line"/>
      <point x="473" y="1000" type="line"/>
    </contour>
  </outline>
</glyph>
<glyph name="uplightleftdnheavybxd.001" format="1">
  <advance width="599"/>
  <outline>
    <contour>
      <point x="41" y="273" type="line"/>
      <point x="327" y="273" type="line"/>
      <point x="193" y="-400" type="line"/>
      <point x="248" y="-400" type="line"/>
      <point x="393" y="327" type="line"/>
      <point x="379" y="327" type="line"/>
      <point x="514" y="1000" type="line"/>
      <point x="486" y="1000" type="line"/>
      <point x="352" y="327" type="line"/>
      <point x="52" y="327" type="line"/>
    </contour>
  </outline>
</glyph>
<glyph name="uplightleftheavybxd.001" format="1">
  <advance width="599"/>
  <outline>
    <contour>
      <point x="41" y="273" type="line"/>
      <point x="368" y="273" type="line"/>
      <point x="514" y="1000" type="line"/>
      <point x="486" y="1000" type="line"/>
      <point x="352" y="327" type="line"/>
      <point x="52" y="327" type="line"/>
    </contour>
  </outline>
</glyph>
<glyph name="uprightdnleftquadrant.001" format="1">
  <advance width="600"/>
  <outline>
    <contour>
      <point x="-40" y="-200" type="line"/>
      <point x="260" y="-200" type="line"/>
      <point x="360" y="300" type="line"/>
      <point x="60" y="300" type="line"/>
    </contour>
    <contour>
      <point x="360" y="300" type="line"/>
      <point x="660" y="300" type="line"/>
      <point x="760" y="800" type="line"/>
      <point x="460" y="800" type="line"/>
    </contour>
  </outline>
</glyph>
<glyph name="upsnghorzdblbxd.001" format="1">
  <advance width="599"/>
  <outline>
    <contour>
      <point x="49" y="314" type="line"/>
      <point x="676" y="314" type="line"/>
      <point x="682" y="341" type="line"/>
      <point x="382" y="341" type="line"/>
      <point x="513" y="1000" type="line"/>
      <point x="486" y="1000" type="line"/>
      <point x="354" y="341" type="line"/>
      <point x="54" y="341" type="line"/>
    </contour>
    <contour>
      <point x="38" y="259" type="line"/>
      <point x="665" y="259" type="line"/>
      <point x="671" y="286" type="line"/>
      <point x="43" y="286" type="line"/>
    </contour>
  </outline>
</glyph>
<glyph name="upsngleftdblbxd.001" format="1">
  <advance width="599"/>
  <outline>
    <contour>
      <point x="49" y="314" type="line"/>
      <point x="349" y="314" type="line"/>
      <point x="343" y="286" type="line"/>
      <point x="43" y="286" type="line"/>
      <point x="38" y="259" type="line"/>
      <point x="365" y="259" type="line"/>
      <point x="513" y="1000" type="line"/>
      <point x="486" y="1000" type="line"/>
      <point x="354" y="341" type="line"/>
      <point x="54" y="341" type="line"/>
    </contour>
  </outline>
</glyph>
<glyph name="upsngrightdblbxd.001" format="1">
  <advance width="599"/>
  <outline>
    <contour>
      <point x="338" y="259" type="line"/>
      <point x="665" y="259" type="line"/>
      <point x="671" y="286" type="line"/>
      <point x="371" y="286" type="line"/>
      <point x="376" y="314" type="line"/>
      <point x="676" y="314" type="line"/>
      <point x="682" y="341" type="line"/>
      <point x="382" y="341" type="line"/>
      <point x="513" y="1000" type="line"/>
      <point x="486" y="1000" type="line"/>
    </contour>
  </outline>
</glyph>
<glyph name="v.sups" format="1">
  <advance width="600"/>
  <outline>
    <contour>
      <point x="347" y="260" type="line"/>
      <point x="382" y="260" type="line"/>
      <point x="565" y="577" type="line"/>
      <point x="535" y="577" type="line"/>
      <point x="422" y="379" type="line" smooth="yes"/>
      <point x="404" y="347"/>
      <point x="388" y="317"/>
      <point x="371" y="288" type="curve"/>
      <point x="369" y="288" type="line"/>
      <point x="364" y="317"/>
      <point x="360" y="348"/>
      <point x="354" y="379" type="curve" smooth="yes"/>
      <point x="320" y="577" type="line"/>
      <point x="288" y="577" type="line"/>
    </contour>
  </outline>
</glyph>
<glyph name="vertdblhorzsngbxd.001" format="1">
  <advance width="600"/>
  <outline>
    <contour>
      <point x="44" y="286" type="line"/>
      <point x="317" y="286" type="line"/>
      <point x="179" y="-400" type="line"/>
      <point x="207" y="-400" type="line"/>
      <point x="344" y="286" type="line"/>
      <point x="371" y="286" type="line"/>
      <point x="234" y="-400" type="line"/>
      <point x="262" y="-400" type="line"/>
      <point x="399" y="286" type="line"/>
      <point x="671" y="286" type="line"/>
      <point x="677" y="314" type="line"/>
      <point x="404" y="314" type="line"/>
      <point x="541" y="1000" type="line"/>
      <point x="514" y="1000" type="line"/>
      <point x="377" y="314" type="line"/>
      <point x="349" y="314" type="line"/>
      <point x="487" y="1000" type="line"/>
      <point x="459" y="1000" type="line"/>
      <point x="322" y="314" type="line"/>
      <point x="49" y="314" type="line"/>
    </contour>
  </outline>
</glyph>
<glyph name="vertdblrightsngbxd.001" format="1">
  <advance width="600"/>
  <outline>
    <contour>
      <point x="234" y="-400" type="line"/>
      <point x="261" y="-400" type="line"/>
      <point x="398" y="286" type="line"/>
      <point x="671" y="286" type="line"/>
      <point x="676" y="314" type="line"/>
      <point x="404" y="314" type="line"/>
      <point x="541" y="1000" type="line"/>
      <point x="514" y="1000" type="line"/>
    </contour>
    <contour>
      <point x="179" y="-400" type="line"/>
      <point x="206" y="-400" type="line"/>
      <point x="486" y="1000" type="line"/>
      <point x="459" y="1000" type="line"/>
    </contour>
  </outline>
</glyph>
<glyph name="verticallinelowmod" format="1">
  <advance width="599"/>
  <outline>
    <contour>
      <point x="321" y="39" type="line"/>
      <point x="294" y="39" type="line"/>
      <point x="221" y="-243" type="line"/>
      <point x="281" y="-243" type="line"/>
    </contour>
  </outline>
</glyph>
<glyph name="vertlightleftheavybxd.001" format="1">
  <advance width="599"/>
  <outline>
    <contour>
      <point x="41" y="273" type="line"/>
      <point x="341" y="273" type="line"/>
      <point x="207" y="-400" type="line"/>
      <point x="234" y="-400" type="line"/>
      <point x="514" y="1000" type="line"/>
      <point x="486" y="1000" type="line"/>
      <point x="352" y="327" type="line"/>
      <point x="52" y="327" type="line"/>
    </contour>
  </outline>
</glyph>
<glyph name="vturned" format="1">
  <advance width="600"/>
  <outline>
    <contour>
      <point x="408" y="478" type="line"/>
      <point x="381" y="478" type="line"/>
      <point x="67" y="0" type="line"/>
      <point x="94" y="0" type="line"/>
      <point x="298" y="312" type="line" smooth="yes"/>
      <point x="330" y="360"/>
      <point x="358" y="406"/>
      <point x="386" y="447" type="curve"/>
      <point x="390" y="447" type="line"/>
      <point x="400" y="406"/>
      <point x="413" y="360"/>
      <point x="425" y="312" type="curve" smooth="yes"/>
      <point x="504" y="0" type="line"/>
      <point x="533" y="0" type="line"/>
    </contour>
  </outline>
</glyph>
